<svg width="54" height="55" viewBox="0 0 54 55" fill="none" xmlns="http://www.w3.org/2000/svg">
<path d="M4.5 6.20715H13.5L18 39.9572H49.5" stroke="#56BD7F" stroke-width="1.5" stroke-linecap="round" stroke-linejoin="round"/>
<path d="M25.875 48.9572C27.739 48.9572 29.25 47.4461 29.25 45.5822C29.25 43.7182 27.739 42.2072 25.875 42.2072C24.011 42.2072 22.5 43.7182 22.5 45.5822C22.5 47.4461 24.011 48.9572 25.875 48.9572Z" stroke="#56BD7F" stroke-width="1.5" stroke-linecap="round" stroke-linejoin="round"/>
<path d="M41.625 48.9572C43.489 48.9572 45 47.4461 45 45.5822C45 43.7182 43.489 42.2072 41.625 42.2072C39.761 42.2072 38.25 43.7182 38.25 45.5822C38.25 47.4461 39.761 48.9572 41.625 48.9572Z" stroke="#56BD7F" stroke-width="1.5" stroke-linecap="round" stroke-linejoin="round"/>
<path d="M30.36 9.79736H30C29.77 9.79736 29.55 9.81736 29.33 9.84736C26.89 10.1674 25 12.2574 25 14.7974V27.2974C25 30.0574 27.24 32.2974 30 32.2974H42.02" stroke="#57BD80" stroke-width="1.5" stroke-linecap="round" stroke-linejoin="round"/>
<path d="M48.5775 18.518C49.3372 19.3647 49.353 20.6466 48.6567 21.5487C47.2719 23.337 45.7526 24.8563 43.9643 26.2411C43.0622 26.9374 41.7803 26.9216 40.9336 26.1619C38.623 24.0967 36.5182 21.9364 34.4766 19.5625C34.2788 19.3251 34.1522 19.0403 34.1205 18.7317C33.9939 17.3706 33.7407 13.4458 34.8011 12.3855C35.8693 11.3172 39.7862 11.5784 41.1473 11.705C41.4559 11.7366 41.7407 11.8632 41.9781 12.061C44.352 14.1026 46.5122 16.2154 48.5775 18.518Z" fill="#BEE1CC" stroke="#57BD80" stroke-width="1.5" stroke-linecap="round" stroke-linejoin="round"/>
<path d="M38 13.5822C36.9028 13.5822 36 14.471 36 15.5822C36 16.6933 36.8889 17.5822 38 17.5822C39.1111 17.5822 40 16.6933 40 15.5822C40 14.471 39.1111 13.5822 38 13.5822Z" fill="white" stroke="#57BD80" stroke-width="1.5" stroke-linecap="round" stroke-linejoin="round"/>
</svg>
