<svg width="16" height="18" viewBox="0 0 16 18" fill="none" xmlns="http://www.w3.org/2000/svg">
<path d="M15.1782 6.02607H1.48535M11.3747 1.22607V3.62607M5.28893 1.22607V3.62607M5.13679 17.2261H11.5268C12.8049 17.2261 13.444 17.2261 13.9322 16.9645C14.3616 16.7344 14.7107 16.3672 14.9295 15.9157C15.1782 15.4023 15.1782 14.7302 15.1782 13.3861V6.66607C15.1782 5.32195 15.1782 4.64989 14.9295 4.1365C14.7107 3.68491 14.3616 3.31775 13.9322 3.08766C13.444 2.82607 12.8049 2.82607 11.5268 2.82607H5.13679C3.85867 2.82607 3.21961 2.82607 2.73143 3.08766C2.30201 3.31775 1.95289 3.68491 1.73409 4.1365C1.48535 4.64989 1.48535 5.32195 1.48535 6.66607V13.3861C1.48535 14.7302 1.48535 15.4023 1.73409 15.9157C1.95289 16.3672 2.30201 16.7344 2.73143 16.9645C3.21961 17.2261 3.85867 17.2261 5.13679 17.2261Z" stroke="#666666" stroke-width="1.4" stroke-linecap="round" stroke-linejoin="round"/>
</svg>
