<svg width="44" height="44" viewBox="0 0 44 44" fill="none" xmlns="http://www.w3.org/2000/svg">
<path d="M7.6 11.5001H13.9L15.2897 7.33088C15.5347 6.59587 16.2226 6.1001 16.9974 6.1001H27.0026C27.7775 6.1001 28.4652 6.59587 28.7102 7.33088L30.1 11.5001H36.4C38.3883 11.5001 40 13.1119 40 15.1001V34.9001C40 36.8884 38.3883 38.5001 36.4 38.5001H7.6C5.61177 38.5001 4 36.8884 4 34.9001V15.1001C4 13.1119 5.61177 11.5001 7.6 11.5001Z" stroke="#42B0D5" stroke-width="2.7" stroke-linecap="round" stroke-linejoin="round"/>
<path d="M28.3064 24.9001C28.3064 28.3795 25.4847 31.2001 22.0039 31.2001C18.523 31.2001 15.7012 28.3795 15.7012 24.9001C15.7012 21.4207 18.523 18.6001 22.0039 18.6001C25.4847 18.6001 28.3064 21.4207 28.3064 24.9001Z" stroke="#42B0D5" stroke-width="2.7" stroke-linecap="round" stroke-linejoin="round"/>
</svg>
