<svg width="30" height="30" viewBox="0 0 30 30" fill="none" xmlns="http://www.w3.org/2000/svg">
<path d="M14.7676 29.9922C17.6842 29.9922 20.5352 29.1273 22.9602 27.507C25.3852 25.8867 27.2752 23.5837 28.3913 20.8891C29.5074 18.1946 29.7994 15.2297 29.2304 12.3692C28.6615 9.50873 27.257 6.88121 25.1947 4.81893C23.1325 2.75664 20.5049 1.35221 17.6445 0.783224C14.784 0.214241 11.819 0.506262 9.12453 1.62236C6.43002 2.73846 4.12699 4.62852 2.50666 7.05351C0.886331 9.4785 0.0214844 12.3295 0.0214844 15.246C0.0214844 19.157 1.57509 22.9077 4.34053 25.6731C7.10597 28.4386 10.8567 29.9922 14.7676 29.9922Z" fill="#151D2B"/>
<path d="M19.5361 9.95703L9.26741 20.7453" stroke="#D1D1D1" stroke-width="1.5" stroke-linecap="round"/>
<path d="M9.26758 9.74609L20.2676 20.7461" stroke="#D1D1D1" stroke-width="1.5" stroke-linecap="round"/>
</svg>
