<svg width="24" height="24" viewBox="0 0 24 24" fill="none" xmlns="http://www.w3.org/2000/svg">
<path d="M17.4776 8.00005C17.4924 7.83536 17.5 7.66856 17.5 7.5C17.5 4.46243 15.0376 2 12 2C9.12324 2 6.76233 4.20862 6.52042 7.0227M17.4776 8.00005C17.395 8.91677 17.0874 9.76862 16.6105 10.5M17.4776 8.00005C19.9675 7.98791 22 10.0072 22 12.5C22 13.9034 21 15.5 20 16M6.52042 7.0227C3.98398 7.26407 2 9.40034 2 12C2 13.6358 2.78555 15.0805 4 16M6.52042 7.0227C6.67826 7.00768 6.83823 7 7 7C8.12582 7 9.16474 7.37209 10.0005 8" stroke="#D1D1D1" stroke-width="1.5" stroke-linecap="round" stroke-linejoin="round"/>
<path d="M11.999 11.3066C15.1429 11.3066 17.6923 13.8552 17.6924 16.999C17.6924 20.143 15.143 22.6924 11.999 22.6924C8.85518 22.6923 6.30664 20.1429 6.30664 16.999C6.30677 13.8553 8.85527 11.3068 11.999 11.3066ZM14.5537 16.9082C14.2949 16.9503 14.0929 17.1555 14.0557 17.415C13.915 18.3988 13.0409 19.1689 12.0029 19.1689C11.3082 19.1688 10.694 18.8226 10.3232 18.291L9.83105 18.6348L9.33887 18.9775C9.92444 19.817 10.8993 20.369 12.0029 20.3691C13.1136 20.3691 14.1101 19.8084 14.7041 18.9512L14.8691 19.2812L14.9346 19.3838C15.1069 19.6031 15.4156 19.6784 15.6748 19.5488C15.9708 19.4005 16.0905 19.0404 15.9424 18.7441L15.1865 17.2314C15.069 16.997 14.8126 16.8662 14.5537 16.9082ZM10.3232 18.291C10.1337 18.0195 9.75997 17.9532 9.48828 18.1426C9.21664 18.3321 9.14957 18.7058 9.33887 18.9775L10.3232 18.291ZM12.0029 13.876C10.8927 13.8761 9.89475 14.4343 9.30078 15.291L9.1377 14.9639L9.07227 14.8604C8.8999 14.6411 8.59122 14.5657 8.33203 14.6953C8.07291 14.8251 7.9483 15.1173 8.02051 15.3867L8.06348 15.5L8.82031 17.0127C8.93774 17.2472 9.19424 17.3779 9.45312 17.3359C9.71199 17.2938 9.91402 17.0888 9.95117 16.8291C10.0919 15.8456 10.9652 15.0754 12.0029 15.0752C12.6978 15.0752 13.3128 15.4216 13.6836 15.9531C13.8732 16.2248 14.2468 16.2911 14.5186 16.1016C14.7902 15.912 14.8573 15.5383 14.668 15.2666C14.0824 14.4271 13.1066 13.876 12.0029 13.876Z" fill="#F49055"/>
</svg>
