<svg width="20" height="14" viewBox="0 0 20 14" fill="none" xmlns="http://www.w3.org/2000/svg">
<path d="M18.77 8.65721C18.77 11.0017 16.8718 12.9058 14.5214 12.9058H5.01857C2.67411 12.9058 0.769974 11.0017 0.769974 8.65721C0.769974 6.31275 2.67411 4.40862 5.01857 4.40862C5.16138 4.40862 5.31013 4.41457 5.44699 4.43242C5.85757 2.52234 7.55939 1.09424 9.59443 1.09424C11.6295 1.09424 13.3551 2.54614 13.7538 4.48597C13.9977 4.43242 14.2536 4.40862 14.5154 4.40862C16.8658 4.40862 18.764 6.3068 18.764 8.65721H18.77Z" fill="#41B0D5" stroke="#2291B9" stroke-width="1.3" stroke-linecap="round" stroke-linejoin="round"/>
<path d="M6.67281 8.96064C7.07743 10.1686 8.21991 11.0492 9.56471 11.0492C11.0285 11.0492 12.2483 10.0198 12.5399 8.64526" stroke="white" stroke-linecap="round" stroke-linejoin="round"/>
<path d="M6.71446 6.92558C7.14289 5.76525 8.26157 4.94409 9.57066 4.94409C10.8024 4.94409 11.8616 5.67004 12.3436 6.71732" stroke="white" stroke-linecap="round" stroke-linejoin="round"/>
<path d="M6.66684 10.9955V8.96045H8.46386" stroke="white" stroke-linecap="round" stroke-linejoin="round"/>
<path d="M12.3733 4.68213V6.71717H10.5763" stroke="white" stroke-linecap="round" stroke-linejoin="round"/>
</svg>
