<svg width="25" height="25" viewBox="0 0 25 25" fill="none" xmlns="http://www.w3.org/2000/svg">
<path d="M17.9268 8.16191C17.9416 7.99722 17.9492 7.83043 17.9492 7.66187C17.9492 4.6243 15.4868 2.16187 12.4492 2.16187C9.57246 2.16187 7.21155 4.37049 6.96964 7.18457M17.9268 8.16191C17.8442 9.07863 17.5366 9.93049 17.0597 10.6619M17.9268 8.16191C20.4167 8.14977 22.4492 10.1691 22.4492 12.6619C22.4492 14.0653 21.4492 15.6619 20.4492 16.1619M6.96964 7.18457C4.4332 7.42594 2.44922 9.56221 2.44922 12.1619C2.44922 13.7977 3.23477 15.2424 4.44922 16.1619M6.96964 7.18457C7.12748 7.16955 7.28745 7.16187 7.44922 7.16187C8.57504 7.16187 9.61396 7.53396 10.4497 8.16187" stroke="#132043" stroke-width="1.5" stroke-linecap="round" stroke-linejoin="round"/>
<path d="M12.4482 10.469C15.5921 10.469 18.1415 13.0175 18.1416 16.1614C18.1416 19.3053 15.5922 21.8547 12.4482 21.8547C9.3044 21.8546 6.75586 19.3052 6.75586 16.1614C6.75599 13.0176 9.30448 10.4691 12.4482 10.469ZM15.0029 16.0706C14.7765 16.1074 14.5935 16.2689 14.5264 16.4827L14.5049 16.5774C14.3642 17.5612 13.4901 18.3313 12.4521 18.3313C11.7574 18.3311 11.1433 17.9849 10.7725 17.4534L10.2803 17.7971L9.78809 18.1399C10.3737 18.9793 11.3486 19.5313 12.4521 19.5315C13.5628 19.5315 14.5593 18.9708 15.1533 18.1135L15.3184 18.4436L15.3838 18.5461C15.5561 18.7654 15.8648 18.8408 16.124 18.7112C16.3832 18.5813 16.507 18.2893 16.4346 18.0198L16.3916 17.9065L15.6357 16.3938C15.5183 16.1594 15.2618 16.0286 15.0029 16.0706ZM10.7725 17.4534C10.5829 17.1819 10.2092 17.1156 9.9375 17.3049C9.66586 17.4944 9.59879 17.8682 9.78809 18.1399L10.7725 17.4534ZM12.4521 13.0383C11.342 13.0385 10.344 13.5966 9.75 14.4534L9.58691 14.1262L9.52148 14.0227C9.34911 13.8035 9.04044 13.7281 8.78125 13.8577C8.52213 13.9874 8.39752 14.2796 8.46973 14.5491L8.5127 14.6624L9.26953 16.175C9.38696 16.4095 9.64346 16.5402 9.90234 16.4983C10.1612 16.4561 10.3632 16.2511 10.4004 15.9915L10.4346 15.8098C10.6502 14.9147 11.4792 14.2378 12.4521 14.2375C13.147 14.2375 13.762 14.5839 14.1328 15.1155C14.3224 15.3871 14.696 15.4534 14.9678 15.2639C15.2394 15.0744 15.3065 14.7007 15.1172 14.429C14.5316 13.5894 13.5559 13.0383 12.4521 13.0383Z" fill="#F49055"/>
</svg>
