<svg width="24" height="24" viewBox="0 0 24 24" fill="none" xmlns="http://www.w3.org/2000/svg">
<path d="M17.4776 8.00005C17.4924 7.83536 17.5 7.66856 17.5 7.5C17.5 4.46243 15.0376 2 12 2C9.12324 2 6.76233 4.20862 6.52042 7.0227M17.4776 8.00005C17.395 8.91677 17.0874 9.76862 16.6105 10.5M17.4776 8.00005C19.9675 7.98791 22 10.0072 22 12.5C22 13.9034 21 15.5 20 16M6.52042 7.0227C3.98398 7.26407 2 9.40034 2 12C2 13.6358 2.78555 15.0805 4 16M6.52042 7.0227C6.67826 7.00768 6.83823 7 7 7C8.12582 7 9.16474 7.37209 10.0005 8" stroke="#D1D1D1" stroke-width="1.5" stroke-linecap="round" stroke-linejoin="round"/>
<path d="M11.8926 10.9102C15.1682 10.9104 17.8232 13.5661 17.8232 16.8418C17.823 20.1172 15.168 22.7722 11.8926 22.7725C8.61692 22.7725 5.9612 20.1174 5.96094 16.8418C5.96094 13.566 8.61676 10.9102 11.8926 10.9102ZM10.5713 19.4463C10.7623 19.6373 11.025 19.7397 11.2949 19.7275C11.565 19.7154 11.8181 19.5896 11.9912 19.3818L11.252 18.7666L10.5713 19.4463ZM15.0752 14.1777C14.667 13.8377 14.06 13.8926 13.7197 14.3008L11.1865 17.3398L10.0078 16.1611C9.63202 15.7853 9.02226 15.7853 8.64648 16.1611C8.27083 16.5369 8.27075 17.1467 8.64648 17.5225L10.5713 19.4463L11.252 18.7656L11.9912 19.3818L15.1982 15.5332C15.5384 15.125 15.4834 14.518 15.0752 14.1777Z" fill="#56BD7F"/>
</svg>
