<svg width="25" height="25" viewBox="0 0 25 25" fill="none" xmlns="http://www.w3.org/2000/svg">
<path d="M17.9268 8.15068C17.9416 7.98599 17.9492 7.81919 17.9492 7.65063C17.9492 4.61306 15.4868 2.15063 12.4492 2.15063C9.57246 2.15063 7.21155 4.35925 6.96964 7.17333M17.9268 8.15068C17.8442 9.0674 17.5366 9.91925 17.0597 10.6506M17.9268 8.15068C20.4167 8.13854 22.4492 10.1578 22.4492 12.6506C22.4492 14.054 21.4492 15.6506 20.4492 16.1506M6.96964 7.17333C4.4332 7.4147 2.44922 9.55097 2.44922 12.1506C2.44922 13.7864 3.23477 15.2311 4.44922 16.1506M6.96964 7.17333C7.12748 7.15831 7.28745 7.15063 7.44922 7.15063C8.57504 7.15063 9.61396 7.52272 10.4497 8.15063" stroke="#00243E" stroke-width="1.5" stroke-linecap="round" stroke-linejoin="round"/>
<path d="M12.3418 11.0601C15.6174 11.0603 18.2725 13.716 18.2725 16.9917C18.2722 20.2671 15.6172 22.9221 12.3418 22.9224C9.06614 22.9224 6.41042 20.2673 6.41016 16.9917C6.41016 13.7159 9.06598 11.0601 12.3418 11.0601ZM11.0205 19.5962C11.2116 19.7872 11.4742 19.8896 11.7441 19.8774C12.0142 19.8653 12.2674 19.7395 12.4404 19.5317L11.7012 18.9165L11.0205 19.5962ZM15.5244 14.3276C15.1162 13.9876 14.5092 14.0425 14.1689 14.4507L11.6357 17.4897L10.457 16.311C10.0812 15.9352 9.47148 15.9352 9.0957 16.311C8.72005 16.6868 8.71997 17.2966 9.0957 17.6724L11.0205 19.5962L11.7012 18.9155L12.4404 19.5317L15.6475 15.6831C15.9876 15.2749 15.9327 14.6679 15.5244 14.3276Z" fill="#12B76A"/>
</svg>
