<svg width="37" height="37" viewBox="0 0 37 37" fill="none" xmlns="http://www.w3.org/2000/svg">
<path d="M0.872498 23.4764H34.4038V27.8535C34.4038 31.7195 31.2698 34.8535 27.4038 34.8535H7.8725C4.00651 34.8535 0.872498 31.7195 0.872498 27.8535V23.4764Z" fill="#FFF0D8"/>
<path d="M28.9763 1.83984C30.592 2.20641 31.819 2.809 32.8097 3.79962C35.3387 6.32867 35.3387 10.3991 35.3387 18.54C35.3387 26.6808 35.3387 30.7513 32.8097 33.2802C30.2806 35.8092 26.2101 35.8092 18.0693 35.8092C9.92849 35.8092 5.85807 35.8092 3.32902 33.2802C0.799988 30.7513 0.799988 26.6808 0.799988 18.5398C0.799988 10.3991 0.799988 6.32867 3.32902 3.79962C4.31966 2.809 5.54678 2.20641 7.16239 1.83984" stroke="#F4A52B" stroke-width="1.5" stroke-linecap="round" stroke-linejoin="round"/>
<path d="M12.6158 6.7252L18.0693 1.27173L23.5228 6.7252M18.0693 3.08955V15.8143" stroke="#F4A52B" stroke-width="1.5" stroke-linecap="round" stroke-linejoin="round"/>
<path d="M0.799988 23.9945H35.3387" stroke="#F4A52B" stroke-width="1.5"/>
<path d="M11.7069 35.8104V23.9945V35.8104ZM24.4317 35.8104V23.9945V35.8104Z" fill="#806363"/>
<path d="M11.7069 35.8104V23.9945M24.4317 35.8104V23.9945" stroke="#F4A52B" stroke-width="1.5"/>
</svg>
