<svg width="18" height="19" viewBox="0 0 18 19" fill="none" xmlns="http://www.w3.org/2000/svg">
<path fill-rule="evenodd" clip-rule="evenodd" d="M5.52409 1.91667C5.33375 1.91667 5.15537 2.00954 5.04623 2.16548L1.95372 6.58333C4.10799 6.58333 6.26227 6.58333 8.41667 6.58333V1.91667H5.52409ZM9.58333 1.91667V6.58333H16.0463L12.9538 2.16548C12.8446 2.00954 12.6662 1.91667 12.4759 1.91667H9.58333ZM16.5833 7.75H3.49663L3.8592 9.05524L5.61769 8.50571C5.78665 8.45292 5.97049 8.47972 6.11737 8.57857C6.26425 8.67741 6.35829 8.83762 6.37299 9.01405L6.66465 12.5141C6.6914 12.8351 6.45282 13.1171 6.13178 13.1438C5.81071 13.1706 5.52876 12.932 5.50201 12.6109L5.27081 9.83641L3.63234 10.3485C3.48158 10.3956 3.31816 10.3795 3.17944 10.304C3.04072 10.2285 2.93855 10.1 2.89629 9.9478L2.28578 7.75H1.41667V16.5C1.41667 16.8222 1.67783 17.0833 2 17.0833H16C16.3222 17.0833 16.5833 16.8222 16.5833 16.5V7.75ZM4.09043 1.49644C4.41792 1.02862 4.95304 0.75 5.52409 0.75H12.4759C13.047 0.75 13.5821 1.02862 13.9096 1.49644L17.6446 6.83215C17.7132 6.93018 17.75 7.047 17.75 7.16667V16.5C17.75 17.4665 16.9665 18.25 16 18.25H2C1.0335 18.25 0.25 17.4665 0.25 16.5V7.16667C0.25 7.047 0.286814 6.93018 0.355449 6.83215L4.09043 1.49644ZM8.41667 13C8.41667 12.6778 8.67782 12.4167 9 12.4167H14.8333C15.1555 12.4167 15.4167 12.6778 15.4167 13V15.3333C15.4167 15.6555 15.1555 15.9167 14.8333 15.9167H9C8.8453 15.9167 8.69693 15.8552 8.58752 15.7458C8.47812 15.6364 8.41667 15.488 8.41667 15.3333V13ZM9.58333 13.5833V14.75H14.25V13.5833H9.58333Z" fill="#42B0D5" stroke="#42B0D5" stroke-width="0.3"/>
</svg>
