<svg width="25" height="25" viewBox="0 0 25 25" fill="none" xmlns="http://www.w3.org/2000/svg">
<path d="M17.9268 8.15044C17.9416 7.98575 17.9492 7.81895 17.9492 7.65039C17.9492 4.61282 15.4868 2.15039 12.4492 2.15039C9.57246 2.15039 7.21155 4.35901 6.96964 7.17309M17.9268 8.15044C17.8442 9.06716 17.5366 9.91901 17.0597 10.6504M17.9268 8.15044C20.4167 8.1383 22.4492 10.1576 22.4492 12.6504C22.4492 14.0538 21.4492 15.6504 20.4492 16.1504M6.96964 7.17309C4.4332 7.41446 2.44922 9.55073 2.44922 12.1504C2.44922 13.7862 3.23477 15.2309 4.44922 16.1504M6.96964 7.17309C7.12748 7.15807 7.28745 7.15039 7.44922 7.15039C8.57504 7.15039 9.61396 7.52248 10.4497 8.15039" stroke="#D1D1D1" stroke-width="1.5" stroke-linecap="round" stroke-linejoin="round"/>
<path d="M12.4482 11.457C15.5921 11.457 18.1415 14.0056 18.1416 17.1494C18.1416 20.2934 15.5922 22.8428 12.4482 22.8428C9.3044 22.8426 6.75586 20.2933 6.75586 17.1494C6.75599 14.0057 9.30448 11.4572 12.4482 11.457ZM15.0029 17.0586C14.7765 17.0954 14.5935 17.257 14.5264 17.4707L14.5049 17.5654C14.3642 18.5492 13.4901 19.3193 12.4521 19.3193C11.7574 19.3192 11.1433 18.9729 10.7725 18.4414L10.2803 18.7852L9.78809 19.1279C10.3737 19.9674 11.3486 20.5194 12.4521 20.5195C13.5628 20.5195 14.5593 19.9588 15.1533 19.1016L15.3184 19.4316L15.3838 19.5342C15.5561 19.7535 15.8648 19.8288 16.124 19.6992C16.3832 19.5693 16.507 19.2773 16.4346 19.0078L16.3916 18.8945L15.6357 17.3818C15.5183 17.1474 15.2618 17.0166 15.0029 17.0586ZM10.7725 18.4414C10.5829 18.1699 10.2092 18.1036 9.9375 18.293C9.66586 18.4825 9.59879 18.8562 9.78809 19.1279L10.7725 18.4414ZM12.4521 14.0264C11.342 14.0265 10.344 14.5847 9.75 15.4414L9.58691 15.1143L9.52148 15.0107C9.34911 14.7915 9.04044 14.7161 8.78125 14.8457C8.52213 14.9755 8.39752 15.2677 8.46973 15.5371L8.5127 15.6504L9.26953 17.1631C9.38696 17.3976 9.64346 17.5283 9.90234 17.4863C10.1612 17.4442 10.3632 17.2391 10.4004 16.9795L10.4346 16.7979C10.6502 15.9028 11.4792 15.2258 12.4521 15.2256C13.147 15.2256 13.762 15.572 14.1328 16.1035C14.3224 16.3751 14.696 16.4415 14.9678 16.252C15.2394 16.0624 15.3065 15.6887 15.1172 15.417C14.5316 14.5775 13.5559 14.0264 12.4521 14.0264Z" fill="#F49055"/>
</svg>
