<svg width="25" height="25" viewBox="0 0 25 25" fill="none" xmlns="http://www.w3.org/2000/svg">
<path d="M17.9268 8.15044C17.9416 7.98575 17.9492 7.81895 17.9492 7.65039C17.9492 4.61282 15.4868 2.15039 12.4492 2.15039C9.57246 2.15039 7.21155 4.35901 6.96964 7.17309M17.9268 8.15044C17.8442 9.06716 17.5366 9.91901 17.0597 10.6504M17.9268 8.15044C20.4167 8.1383 22.4492 10.1576 22.4492 12.6504C22.4492 14.0538 21.4492 15.6504 20.4492 16.1504M6.96964 7.17309C4.4332 7.41446 2.44922 9.55073 2.44922 12.1504C2.44922 13.7862 3.23477 15.2309 4.44922 16.1504M6.96964 7.17309C7.12748 7.15807 7.28745 7.15039 7.44922 7.15039C8.57504 7.15039 9.61396 7.52248 10.4497 8.15039" stroke="#D1D1D1" stroke-width="1.5" stroke-linecap="round" stroke-linejoin="round"/>
<path d="M12.3418 11.0605C15.6174 11.0608 18.2725 13.7165 18.2725 16.9922C18.2722 20.2676 15.6172 22.9226 12.3418 22.9229C9.06614 22.9229 6.41042 20.2678 6.41016 16.9922C6.41016 13.7164 9.06598 11.0605 12.3418 11.0605ZM11.0205 19.5967C11.2116 19.7877 11.4742 19.8901 11.7441 19.8779C12.0142 19.8657 12.2674 19.7399 12.4404 19.5322L11.7012 18.917L11.0205 19.5967ZM15.5244 14.3281C15.1162 13.9881 14.5092 14.043 14.1689 14.4512L11.6357 17.4902L10.457 16.3115C10.0812 15.9357 9.47148 15.9357 9.0957 16.3115C8.72005 16.6873 8.71997 17.2971 9.0957 17.6729L11.0205 19.5967L11.7012 18.916L12.4404 19.5322L15.6475 15.6836C15.9876 15.2753 15.9327 14.6684 15.5244 14.3281Z" fill="#56BD7F"/>
</svg>
