<svg width="21" height="20" viewBox="0 0 21 20" fill="none" xmlns="http://www.w3.org/2000/svg">
<path d="M19.5415 11.0229C19.3832 12.7366 18.74 14.3698 17.6873 15.7313C16.6346 17.0928 15.216 18.1264 13.5973 18.7111C11.9786 19.2957 10.2269 19.4073 8.54716 19.0328C6.86739 18.6582 5.32903 17.813 4.11208 16.5961C2.89513 15.3791 2.04994 13.8408 1.67539 12.161C1.30084 10.4812 1.41243 8.72953 1.9971 7.11087C2.58178 5.4922 3.61535 4.07353 4.97688 3.02084C6.33841 1.96815 7.97159 1.325 9.68531 1.16663C8.68198 2.52401 8.19917 4.19644 8.3247 5.87971C8.45022 7.56299 9.17574 9.1453 10.3693 10.3389C11.5629 11.5324 13.1452 12.2579 14.8285 12.3835C16.5117 12.509 18.1842 12.0262 19.5415 11.0229Z" stroke="#666666" stroke-width="1.5" stroke-linecap="round" stroke-linejoin="round"/>
</svg>
