<svg width="30" height="30" viewBox="0 0 30 30" fill="none" xmlns="http://www.w3.org/2000/svg">
<path d="M17.6001 13V20M13.4001 13V20M9.2001 9V20.8C9.2001 21.9201 9.2001 22.4798 9.42898 22.9076C9.63032 23.2839 9.95134 23.5905 10.3465 23.7822C10.7953 24 11.383 24 12.5569 24H18.4433C19.6172 24 20.2041 24 20.6529 23.7822C21.048 23.5905 21.3701 23.2839 21.5714 22.9076C21.8001 22.4802 21.8001 21.921 21.8001 20.8031V9M9.2001 9H11.3001M9.2001 9H7.1001M11.3001 9H19.7001M11.3001 9C11.3001 8.06812 11.3001 7.60241 11.46 7.23486C11.6731 6.74481 12.0816 6.35523 12.5962 6.15224C12.9821 6 13.4716 6 14.4501 6H16.5501C17.5286 6 18.0178 6 18.4037 6.15224C18.9183 6.35523 19.327 6.74481 19.5401 7.23486C19.7 7.6024 19.7001 8.06812 19.7001 9M19.7001 9H21.8001M21.8001 9H23.9001" stroke="#F73C3C" stroke-width="1.5" stroke-linecap="round" stroke-linejoin="round"/>
</svg>
