<svg width="49" height="48" viewBox="0 0 49 48" fill="none" xmlns="http://www.w3.org/2000/svg">
<g clip-path="url(#clip0_5047_14435)">
<path d="M38.48 0H3.97C1.77743 0 0 1.77743 0 3.97V38.48C0 40.6726 1.77743 42.45 3.97 42.45H38.48C40.6726 42.45 42.45 40.6726 42.45 38.48V3.97C42.45 1.77743 40.6726 0 38.48 0Z" fill="#FF9797"/>
<path d="M10.5697 6.18018H44.0197C46.1497 6.18018 47.8697 7.91018 47.8697 10.0302V44.9602C47.8697 46.2702 46.7997 47.3402 45.4897 47.3402H10.5697C8.43973 47.3402 6.71973 45.6102 6.71973 43.4902V10.0302C6.71973 7.90018 8.44973 6.18018 10.5697 6.18018Z" fill="white"/>
<path d="M46.7604 48.0002H33.0704C32.7204 48.0002 32.4404 47.7202 32.4404 47.3702C32.4404 47.0202 32.7204 46.7402 33.0704 46.7402H46.7604C47.0404 46.7402 47.2704 46.5102 47.2704 46.2302V32.5402C47.2704 32.1902 47.5504 31.9102 47.9004 31.9102C48.2504 31.9102 48.5304 32.1902 48.5304 32.5402V46.2302C48.5304 47.2102 47.7304 48.0002 46.7604 48.0002Z" fill="black"/>
<path d="M47.8996 33.1702H20.4396C20.0896 33.1702 19.8096 32.8902 19.8096 32.5402C19.8096 32.1902 20.0896 31.9102 20.4396 31.9102H47.8996C48.2496 31.9102 48.5296 32.1902 48.5296 32.5402C48.5296 32.8902 48.2496 33.1702 47.8996 33.1702Z" fill="black"/>
<path d="M26.16 39.9899C26 39.9899 25.84 39.9299 25.71 39.8099L18.85 32.9499C18.73 32.8299 18.67 32.6699 18.67 32.4999C18.67 32.3299 18.74 32.1699 18.85 32.0499L25.71 25.1899C25.96 24.9399 26.36 24.9399 26.6 25.1899C26.85 25.4399 26.85 25.8399 26.6 26.0799L20.18 32.4999L26.6 38.9199C26.85 39.1699 26.85 39.5699 26.6 39.8099C26.48 39.9299 26.32 39.9899 26.15 39.9899H26.16Z" fill="black"/>
<path d="M21.6 46.7402H10.15C8.59997 46.7402 7.34997 45.4902 7.34997 43.9402V32.5402C7.34997 32.1902 7.06997 31.9102 6.71997 31.9102C6.36997 31.9102 6.08997 32.1902 6.08997 32.5402V43.9402C6.08997 46.1802 7.90997 48.0002 10.15 48.0002H21.58C21.91 48.0002 22.2 47.7602 22.23 47.4302C22.27 47.0502 21.97 46.7402 21.6 46.7402Z" fill="black"/>
<path d="M44.46 5.5498H10.15C7.89996 5.5498 6.07996 7.3698 6.07996 9.6198V21.1898C6.07996 21.5398 6.35996 21.8198 6.70996 21.8198C7.05996 21.8198 7.33996 21.5398 7.33996 21.1898V9.6198C7.33996 8.0698 8.59996 6.8098 10.15 6.8098H44.46C46.01 6.8098 47.27 8.0698 47.27 9.6198V21.0598C47.27 21.3898 47.51 21.6898 47.84 21.7198C48.21 21.7498 48.53 21.4598 48.53 21.0898V9.6198C48.53 7.3698 46.71 5.5498 44.46 5.5498Z" fill="black"/>
<path d="M7.33996 23.8199C7.33996 23.472 7.0579 23.1899 6.70996 23.1899C6.36202 23.1899 6.07996 23.472 6.07996 23.8199V27.7099C6.07996 28.0579 6.36202 28.3399 6.70996 28.3399C7.0579 28.3399 7.33996 28.0579 7.33996 27.7099V23.8199Z" fill="black"/>
</g>
<defs>
<clipPath id="clip0_5047_14435">
<rect width="48.53" height="48" fill="white"/>
</clipPath>
</defs>
</svg>
