<svg width="24" height="25" viewBox="0 0 24 25" fill="none" xmlns="http://www.w3.org/2000/svg">
<path d="M11.9991 24C10.0816 23.9981 8.5277 22.4939 8.52462 20.639V19.8622C7.75865 19.528 7.03375 19.1096 6.3669 18.6137C6.32384 18.5807 6.22472 18.4994 5.61995 18.8577C4.73082 19.3139 3.62945 19.0156 3.11281 18.1807L1.7471 15.8929C1.25647 15.0696 1.51781 14.0178 2.34184 13.4996C2.53008 13.3863 2.96363 13.1267 2.98765 13.0075C2.85248 12.1513 2.85047 11.2796 2.98064 10.4224C2.97163 10.3313 2.92056 10.25 2.84146 10.1996L2.33182 9.87124V9.87221C1.50779 9.35208 1.25547 8.2944 1.76109 7.47791L3.10778 5.20659C3.60241 4.37846 4.68175 4.07142 5.56086 4.50728L6.11354 4.7746C6.21868 4.81237 6.33682 4.7901 6.42093 4.71842C7.07076 4.22348 7.79066 3.82152 8.5586 3.5261C8.66173 3.48542 8.73282 3.39341 8.74384 3.2859L8.7939 2.66891C8.85698 1.72551 9.67001 0.993277 10.6472 1.00005H13.3496C14.3269 0.996172 15.1429 1.71969 15.223 2.66212L15.255 3.30427C15.2631 3.40984 15.3672 3.47571 15.4523 3.50864V3.50767C16.2122 3.82052 16.9291 4.22441 17.586 4.70968C17.7161 4.8172 17.8823 4.80848 18.433 4.51985C19.3131 4.0772 20.3985 4.3794 20.9011 5.20752L22.2518 7.48658C22.7415 8.30987 22.4801 9.35981 21.6561 9.87799C21.4468 10.0097 21.0503 10.2586 21.0203 10.3787C21.1554 11.233 21.1574 12.1009 21.0273 12.9552C21.0273 13.0434 21.0773 13.1238 21.1565 13.1654L21.6771 13.5141V13.5131C22.4881 14.0352 22.7394 15.0764 22.2518 15.891L20.9001 18.171C20.4115 19.0001 19.3392 19.3149 18.4571 18.8897L17.8743 18.5981C17.7712 18.5652 17.6571 18.5894 17.577 18.6601C16.9221 19.1337 16.2172 19.5376 15.4723 19.8641V20.6389C15.4703 22.4937 13.9165 23.998 11.9991 24ZM10.1267 19.4758V20.64V20.6391C10.1387 21.6309 10.9738 22.43 11.9991 22.43C13.0244 22.43 13.8594 21.6309 13.8714 20.6391C13.8704 20.5877 13.8714 14.9817 13.8724 14.9371V14.9332L13.8714 14.9322C13.8754 14.8683 13.8874 14.8044 13.9065 14.7424V14.7405L13.9075 14.7395V14.7376L13.9085 14.7366V14.7347L13.9105 14.7327V14.7308L13.9115 14.7298V14.7279L13.9135 14.725V14.723L13.9175 14.7143L13.9185 14.7114V14.7095C13.9505 14.6223 13.9996 14.5409 14.0617 14.4693L14.0637 14.4673H14.0647L14.0687 14.4635L14.0707 14.4625L14.0747 14.4586C14.0747 14.4586 14.0777 14.4635 14.0757 14.4576H14.0767L14.0787 14.4557H14.0797L14.0767 14.4538C14.9398 13.8193 15.4584 12.8401 15.4885 11.7922C15.5185 10.7432 15.0559 9.73885 14.2309 9.059V10.6688V10.6678C14.2269 11.5676 13.4719 12.294 12.5418 12.2921H11.4564H11.4574C10.5272 12.2941 9.77229 11.5676 9.76829 10.6678V9.03963C8.2564 10.3104 8.08918 12.5227 9.39283 13.993C9.65615 14.2836 10.1117 14.4696 10.1258 14.9083C10.1278 14.9296 10.1288 14.95 10.1288 14.9713L10.1267 19.4758ZM15.4723 15.3389V18.1111L15.4733 18.1101C15.8528 17.9551 16.2072 17.7479 16.5246 17.4931C17.3056 16.8974 18.409 16.9032 19.183 17.5086C19.3041 17.5561 19.4433 17.5105 19.5104 17.4021L20.8621 15.122C21.0523 14.8315 20.4876 14.6407 20.2523 14.445V14.444C19.6615 14.0731 19.3451 13.4038 19.4423 12.7287C19.5494 12.0381 19.5494 11.3368 19.4423 10.6462C19.23 9.5537 20.2142 8.93575 20.7439 8.60351C20.809 8.57445 20.859 8.52021 20.8811 8.45532C20.9031 8.38946 20.8961 8.31778 20.862 8.25676L19.5103 5.97771C19.4423 5.86923 19.3001 5.83048 19.1839 5.8886C18.7033 6.14139 17.5459 6.74967 16.5656 5.90313C15.6455 5.0934 13.711 4.90357 13.6569 3.39456C13.6068 3.06719 13.752 2.55675 13.3505 2.55094H10.6481L10.6471 2.54998C10.5139 2.5432 10.4008 2.64102 10.3918 2.76984C10.5229 3.68418 10.0213 4.57429 9.15621 4.96368C7.90564 5.32688 6.82327 6.88726 5.40442 6.16472C5.17113 6.09111 4.67549 5.66688 4.49127 5.9865L3.14558 8.25782C2.94433 8.55614 3.50502 8.72661 3.75335 8.92614C5.16512 9.86567 4.22695 11.4124 4.56438 12.7318C4.78565 13.8592 3.76037 14.4732 3.20966 14.8026C3.09952 14.8713 3.06648 15.0137 3.13657 15.1213L4.49628 17.3984C4.57037 17.5175 4.72757 17.5611 4.85572 17.4981C5.60667 16.9228 6.664 16.9063 7.43304 17.4594C7.76144 17.7277 8.12891 17.9466 8.52441 18.1083V15.3382C5.70794 13.032 6.76719 8.02921 10.3187 7.01234C10.6741 6.90096 11.0626 7.0414 11.2558 7.35038L11.2568 7.35135V7.35232L11.2578 7.35425L11.2598 7.35619V7.35716C11.3269 7.46855 11.365 7.59446 11.369 7.72426C11.361 7.74847 11.375 10.6427 11.369 10.6687H11.37C11.371 10.6891 11.38 10.7094 11.397 10.723C11.413 10.7375 11.4351 10.7443 11.4561 10.7433H12.5415C12.5635 10.7443 12.5845 10.7375 12.6005 10.723C12.6166 10.7094 12.6266 10.6891 12.6276 10.6687V7.73194C12.6276 7.71451 12.6286 7.69708 12.6306 7.68255V7.6777L12.6316 7.67383C12.6316 7.67092 12.6326 7.66996 12.6316 7.66705L12.6336 7.65349L12.6346 7.64768V7.64187L12.6356 7.63799V7.63412L12.6376 7.61959V7.61572L12.6386 7.61184V7.60409L12.6396 7.60119L12.6406 7.59634L12.6436 7.59538L12.6446 7.59247V7.58763L12.6456 7.58472V7.58569L12.6476 7.57891V7.57407L12.6486 7.57213V7.57116L12.6496 7.56922V7.56729L12.6506 7.56535L12.6526 7.55857V7.5576L12.6536 7.55566V7.54985H12.6546V7.54791L12.6556 7.54404V7.53823L12.6566 7.53629V7.53436H12.6596V7.53048L12.6606 7.52854L12.6616 7.52757V7.52273L12.6626 7.51983V7.51886L12.6636 7.51692V7.51208H12.6656L12.6666 7.51014V7.50045L12.6676 7.49852V7.49658L12.6706 7.49852V7.49658L12.6716 7.49464V7.49367L12.6736 7.48883V7.48786L12.6756 7.48399L12.6776 7.47818L12.6816 7.46849L12.6836 7.46268L12.6856 7.45784L12.6896 7.45009V7.44718L12.6926 7.44428V7.44331L12.6937 7.44234V7.44137L12.6947 7.4404V7.43847L12.6957 7.4375L12.6967 7.43459L12.6977 7.43265V7.42975L12.6987 7.42684L12.6997 7.42587L12.7007 7.42297V7.422L12.7037 7.41619V7.41522L12.7047 7.41328L12.7067 7.41038V7.40844L12.7077 7.40747H12.7097L12.7107 7.4065V7.40553L12.7117 7.4036L12.7127 7.40263L12.7137 7.40069V7.39972L12.7157 7.39779V7.39585L12.7167 7.39488L12.7187 7.38907L12.7197 7.3881H12.7207V7.38713L12.7217 7.38519L12.7227 7.38423L12.7237 7.38229V7.37938L12.7247 7.37841H12.7257V7.37551L12.7267 7.37454L12.7287 7.37357L12.7297 7.3726L12.7307 7.37067L12.7317 7.3697V7.36582L12.7337 7.36292L12.7347 7.36195L12.7357 7.36001V7.35807L12.7367 7.35711V7.35614H12.7377L12.7417 7.35226V7.35129L12.7427 7.35033V7.34936L12.7447 7.34548V7.33386L12.7467 7.33192V7.32708L12.7477 7.32611L12.7487 7.32417L12.7497 7.32321V7.32127L12.7507 7.3203L12.7517 7.31836V7.31739L12.7527 7.31643L12.7537 7.31449V7.31352L12.7557 7.30965L12.7577 7.30771V7.30577L12.7587 7.30383V7.30287H12.7727L12.7778 7.29802V7.29609L12.7838 7.29027V7.28931L12.7858 7.28737L12.7868 7.28543L12.7918 7.28059L12.7908 7.27962L12.7948 7.27575V7.27478L12.7998 7.26993H12.7988L12.8028 7.26606L12.8048 7.26509L12.8078 7.26219L12.8058 7.26122C12.8328 7.22925 12.8619 7.2002 12.8919 7.17308H12.8929L12.8969 7.1692L12.8989 7.16823L12.8999 7.16726H12.8989L12.8999 7.1663L12.9019 7.16533L12.9029 7.16436L12.9049 7.16339H12.9039L12.9059 7.16145H12.9069L12.9109 7.15758H12.9119L12.9129 7.15661H12.9139V7.15564H12.9149L12.9159 7.15467L12.9179 7.1537C12.9179 7.1537 12.9209 7.15661 12.9189 7.15274H12.9209C12.9209 7.15274 12.9219 7.15758 12.9219 7.15177H12.9229L12.9249 7.1508H12.9259L12.9299 7.14692H12.9309L12.9319 7.14596L12.934 7.14499H12.935L12.9309 7.14208L12.933 7.14111L12.934 7.14014L12.936 7.13918L12.937 7.13821H12.936C12.967 7.11496 13 7.09365 13.0341 7.07428H13.0351L13.0371 7.07331L13.0401 7.07138H13.0391L13.0421 7.06944L13.0481 7.06653V7.0675L13.0501 7.06653C13.0501 7.06653 13.0541 7.07041 13.0521 7.06556L13.0561 7.06363H13.0581L13.0601 7.06266H13.0611L13.0631 7.06169H13.0651L13.0631 7.05975C13.0651 7.05975 13.0581 7.05975 13.0651 7.05878L13.0661 7.05782H13.0671L13.0711 7.05588L13.0741 7.05394H13.0751L13.0771 7.05297L13.0801 7.05104L13.0791 7.052C13.2674 6.96289 13.4836 6.94837 13.6829 7.01326C14.8934 7.40263 15.9007 8.23367 16.4894 9.32911C17.0371 10.2967 17.2343 11.4135 17.0501 12.5032C16.8658 13.5919 16.3102 14.5895 15.4731 15.3383L15.4723 15.3389Z" fill="#666666"/>
</svg>
