<svg width="21" height="17" viewBox="0 0 21 17" fill="none" xmlns="http://www.w3.org/2000/svg">
<path d="M18.4872 2.38757H10.3417L8.30537 0.387573H2.19628C1.65796 0.390217 1.14262 0.602097 0.762927 0.976883C0.383234 1.35167 0.170087 1.85887 0.170094 2.38757L0.159912 14.3876C0.161524 14.9175 0.376586 15.4253 0.758129 15.8C1.13967 16.1748 1.65669 16.386 2.19628 16.3876H18.4872C19.0268 16.386 19.5438 16.1748 19.9253 15.8C20.3069 15.4253 20.5219 14.9175 20.5235 14.3876V4.38757C20.5219 3.85763 20.3069 3.34984 19.9253 2.97511C19.5438 2.60038 19.0268 2.38916 18.4872 2.38757ZM18.4872 14.3876H2.19628V4.38757H18.4872V14.3876Z" fill="#4B5565"/>
</svg>
