<svg width="45" height="44" viewBox="0 0 45 44" fill="none" xmlns="http://www.w3.org/2000/svg">
<path d="M5.40039 30.4039L14.3458 21.4584C14.957 20.8472 15.786 20.5039 16.6504 20.5039C17.5148 20.5039 18.3438 20.8472 18.9549 21.4584L26.1004 28.6039M26.1004 28.6039L28.8004 31.3039M26.1004 28.6039L29.6459 25.0584C30.257 24.4472 31.086 24.1039 31.9504 24.1039C32.8148 24.1039 33.6438 24.4472 34.2549 25.0584L39.6004 30.4039" stroke="#42B0D5" stroke-width="2.7" stroke-linecap="round" stroke-linejoin="round"/>
<path d="M28.8004 15.1037C29.2974 15.1037 29.7004 14.7008 29.7004 14.2037C29.7004 13.7067 29.2974 13.3037 28.8004 13.3037M28.8004 15.1037C28.3034 15.1037 27.9004 14.7008 27.9004 14.2037C27.9004 13.7067 28.3034 13.3037 28.8004 13.3037M28.8004 15.1037V13.3037" stroke="#42B0D5" stroke-width="2.7" stroke-linecap="round" stroke-linejoin="round"/>
<path d="M39.6004 35.8037V8.80361C39.6004 6.81539 37.9887 5.20361 36.0004 5.20361H9.00039C7.01216 5.20361 5.40039 6.81539 5.40039 8.80361V35.8037C5.40039 37.7918 7.01216 39.4037 9.00039 39.4037H36.0004C37.9887 39.4037 39.6004 37.7918 39.6004 35.8037Z" stroke="#42B0D5" stroke-width="2.7" stroke-linecap="round" stroke-linejoin="round"/>
</svg>
