<svg width="37" height="38" viewBox="0 0 37 38" fill="none" xmlns="http://www.w3.org/2000/svg">
<path d="M0.872498 23.9354H34.4038V27.8571C34.4038 31.723 31.2698 34.8571 27.4038 34.8571H7.8725C4.00651 34.8571 0.872498 31.723 0.872498 27.8571V23.9354Z" fill="#D5F1F8"/>
<path d="M28.9763 2.29883C30.592 2.66539 31.819 3.26798 32.8097 4.25861C35.3387 6.78766 35.3387 10.8581 35.3387 18.999C35.3387 27.1398 35.3387 31.2103 32.8097 33.7392C30.2806 36.2682 26.2101 36.2682 18.0693 36.2682C9.92849 36.2682 5.85807 36.2682 3.32902 33.7392C0.799988 31.2103 0.799988 27.1398 0.799988 18.9988C0.799988 10.8581 0.799988 6.78766 3.32902 4.25861C4.31966 3.26798 5.54678 2.66539 7.16239 2.29883" stroke="#42B0D5" stroke-width="1.5" stroke-linecap="round" stroke-linejoin="round"/>
<path d="M12.6158 10.8198L18.0693 16.2733L23.5228 10.8198M18.0693 14.4555V1.73071" stroke="#42B0D5" stroke-width="1.5" stroke-linecap="round" stroke-linejoin="round"/>
<path d="M0.799988 24.4535H35.3387" stroke="#42B0D5" stroke-width="1.5"/>
<path d="M11.7069 36.2694V24.4535V36.2694ZM24.4317 36.2694V24.4535V36.2694Z" fill="#806363"/>
<path d="M11.7069 36.2694V24.4535M24.4317 36.2694V24.4535" stroke="#42B0D5" stroke-width="1.5"/>
</svg>
