<svg width="35" height="35" viewBox="0 0 35 35" fill="none" xmlns="http://www.w3.org/2000/svg">
<path fill-rule="evenodd" clip-rule="evenodd" d="M34.3788 5.86197C34.3788 2.71213 31.8253 0.158691 28.6754 0.158691H5.86209C2.71222 0.158691 0.158752 2.71213 0.158752 5.86197V15.639C0.158752 16.0889 0.523538 16.4538 0.973514 16.4538C1.42349 16.4538 1.78828 16.0889 1.78828 15.639V5.86197C1.78828 3.61209 3.61219 1.7882 5.86209 1.7882H28.6754C30.9253 1.7882 32.7492 3.61209 32.7492 5.86197V28.6751C32.7492 30.9249 30.9253 32.7488 28.6754 32.7488H18.8983C18.4484 32.7488 18.0835 33.1137 18.0835 33.5636C18.0835 34.0135 18.4484 34.3783 18.8983 34.3783H28.6754C31.8253 34.3783 34.3788 31.8249 34.3788 28.6751V5.86197Z" fill="#E533CD"/>
<path fill-rule="evenodd" clip-rule="evenodd" d="M12.3802 8.30627H22.1574V6.67676H12.3802V8.30627Z" fill="#E533CD"/>
<path fill-rule="evenodd" clip-rule="evenodd" d="M9.12113 18.0839C13.171 18.0839 16.454 21.3668 16.454 25.4166C16.454 29.4665 13.171 32.7494 9.12113 32.7494C5.07131 32.7494 1.78828 29.4665 1.78828 25.4166C1.78828 21.3668 5.07131 18.0839 9.12113 18.0839ZM18.0835 25.4166C18.0835 20.4668 14.071 16.4543 9.12113 16.4543C4.17134 16.4543 0.158752 20.4668 0.158752 25.4166C0.158752 30.3664 4.17134 34.3789 9.12113 34.3789C14.071 34.3789 18.0835 30.3664 18.0835 25.4166Z" fill="#E533CD"/>
<path d="M16.3969 25.4549C16.3969 29.5195 13.4145 32.8146 9.03715 32.8146C4.6598 32.8146 1.6774 29.5195 1.6774 25.4549C1.6774 21.3903 4.6598 18.0952 9.03715 18.0952C13.4145 18.0952 16.3969 21.3903 16.3969 25.4549Z" fill="#F4CEEF"/>
<path fill-rule="evenodd" clip-rule="evenodd" d="M12.9564 24.3624L10.0348 27.284C9.08027 28.2385 7.53263 28.2385 6.57809 27.284L5.28604 25.9919L6.43829 24.8397L7.73033 26.1317C8.04852 26.4498 8.5644 26.4498 8.88258 26.1317L11.8041 23.2102L12.9564 24.3624Z" fill="#E533CD"/>
</svg>
