<svg width="30" height="30" viewBox="0 0 30 30" fill="none" xmlns="http://www.w3.org/2000/svg">
<path d="M21.5779 12.7531H20.8943V10.116C20.8943 6.96615 18.6234 4.5 15.3759 4.5C12.1284 4.5 9.90646 7.01498 9.90646 10.116V12.7286C9.90646 12.7531 9.90646 12.7531 9.90646 12.7286H9.22278C7.70891 12.7286 6.48804 13.9495 6.46362 15.4878V23.7408C6.46362 25.2547 7.68449 26.4756 9.22278 26.5H21.5779C23.0918 26.5 24.3127 25.2791 24.3371 23.7408V15.4878C24.3371 13.9739 23.0918 12.7531 21.5779 12.7531ZM11.2738 12.7531V10.116C11.2738 7.77192 12.8854 5.86737 15.3759 5.86737C17.8421 5.86737 19.5269 7.72309 19.5269 10.116V12.7286C19.5269 12.7531 19.5269 12.7531 19.5269 12.7286H11.2738C11.2738 12.7531 11.2738 12.7531 11.2738 12.7531ZM22.9453 23.7408C22.9453 24.4978 22.3349 25.1082 21.5779 25.1082H9.22278C8.46584 25.1082 7.85541 24.4978 7.85541 23.7408V15.4878C7.85541 14.7309 8.46584 14.1204 9.22278 14.1204H21.5779C22.3349 14.1204 22.9453 14.7309 22.9453 15.4878V23.7408ZM16.7677 18.2469C16.7677 18.7597 16.4991 19.1992 16.084 19.4434V21.6898C16.084 22.0805 15.7666 22.3735 15.4004 22.3735C15.0097 22.3735 14.7167 22.056 14.7167 21.6898V19.4434C14.3016 19.1992 14.033 18.7597 14.033 18.2469C14.033 17.49 14.6434 16.8796 15.4004 16.8796C16.1573 16.8552 16.7677 17.4656 16.7677 18.2469Z" fill="#F73C3C"/>
</svg>
