<svg width="14" height="20" viewBox="0 0 14 20" fill="none" xmlns="http://www.w3.org/2000/svg">
<path d="M7.02726 1C6.37628 1 5.75195 1.2586 5.29164 1.71892C4.83132 2.17924 4.57272 2.80356 4.57272 3.45455V10C4.57272 10.651 4.83132 11.2753 5.29164 11.7356C5.75195 12.1959 6.37628 12.4545 7.02726 12.4545C7.67825 12.4545 8.30257 12.1959 8.76289 11.7356C9.2232 11.2753 9.48181 10.651 9.48181 10V3.45455C9.48181 2.80356 9.2232 2.17924 8.76289 1.71892C8.30257 1.2586 7.67825 1 7.02726 1Z" fill="#204259" stroke="#204259" stroke-width="1.2" stroke-linecap="round" stroke-linejoin="round"/>
<path d="M12.7545 8.36365V10C12.7545 11.519 12.1511 12.9757 11.0771 14.0498C10.003 15.1239 8.54623 15.7273 7.02726 15.7273C5.50829 15.7273 4.05154 15.1239 2.97747 14.0498C1.9034 12.9757 1.29999 11.519 1.29999 10V8.36365" stroke="#204259" stroke-width="1.2" stroke-linecap="round" stroke-linejoin="round"/>
<path d="M7.02726 15.7273V19" stroke="#204259" stroke-width="1.2" stroke-linecap="round" stroke-linejoin="round"/>
<path d="M3.75453 19H10.3" stroke="#204259" stroke-width="1.2" stroke-linecap="round" stroke-linejoin="round"/>
</svg>
