<svg width="14" height="21" viewBox="0 0 14 21" fill="none" xmlns="http://www.w3.org/2000/svg">
<path d="M7.27272 1.5C6.62174 1.5 5.99741 1.7586 5.5371 2.21892C5.07678 2.67924 4.81818 3.30356 4.81818 3.95455V10.5C4.81818 11.151 5.07678 11.7753 5.5371 12.2356C5.99741 12.6959 6.62174 12.9545 7.27272 12.9545C7.92371 12.9545 8.54803 12.6959 9.00835 12.2356C9.46866 11.7753 9.72727 11.151 9.72727 10.5V3.95455C9.72727 3.30356 9.46866 2.67924 9.00835 2.21892C8.54803 1.7586 7.92371 1.5 7.27272 1.5Z" fill="#204259" stroke="#204259" stroke-width="1.2" stroke-linecap="round" stroke-linejoin="round"/>
<path d="M13 8.86353V10.4999C13 12.0189 12.3966 13.4756 11.3225 14.5497C10.2484 15.6238 8.7917 16.2272 7.27273 16.2272C5.75376 16.2272 4.29701 15.6238 3.22294 14.5497C2.14886 13.4756 1.54546 12.0189 1.54546 10.4999V8.86353" stroke="#204259" stroke-width="1.2" stroke-linecap="round" stroke-linejoin="round"/>
<path d="M7.27274 16.2273V19.5" stroke="#204259" stroke-width="1.2" stroke-linecap="round" stroke-linejoin="round"/>
<path d="M4 19.5H10.5455" stroke="#204259" stroke-width="1.2" stroke-linecap="round" stroke-linejoin="round"/>
</svg>
