<svg width="18" height="20" viewBox="0 0 18 20" fill="none" xmlns="http://www.w3.org/2000/svg">
<path d="M8.45312 17.8456H7.35938C7.05734 17.8456 6.8125 17.5987 6.8125 17.2941C6.8125 16.9895 7.05734 16.7426 7.35938 16.7426H8.45312V15.6397C8.45312 15.3351 8.69797 15.0882 9 15.0882C9.30203 15.0882 9.54688 15.3351 9.54688 15.6397V16.7426H10.6406C10.9427 16.7426 11.1875 16.9895 11.1875 17.2941C11.1875 17.5987 10.9427 17.8456 10.6406 17.8456H9.54688V18.9485C9.54688 19.2531 9.30203 19.5 9 19.5C8.69797 19.5 8.45312 19.2531 8.45312 18.9485V17.8456ZM1.89062 1.85294C1.58859 1.85294 1.34375 2.09984 1.34375 2.40441V6.81618C1.34375 7.12075 1.58859 7.36765 1.89062 7.36765H16.1094C16.4114 7.36765 16.6562 7.12075 16.6562 6.81618V2.40441C16.6562 2.09984 16.4114 1.85294 16.1094 1.85294H1.89062ZM1.89062 0.75H16.1094C17.0155 0.75 17.75 1.49071 17.75 2.40441V6.81618C17.75 7.72988 17.0155 8.47059 16.1094 8.47059H1.89062C0.984533 8.47059 0.25 7.72988 0.25 6.81618V2.40441C0.25 1.49071 0.984533 0.75 1.89062 0.75ZM4.89844 16.7426C5.20047 16.7426 5.44531 16.9895 5.44531 17.2941C5.44531 17.5987 5.20047 17.8456 4.89844 17.8456H1.89062C0.984533 17.8456 0.25 17.1049 0.25 16.1912V11.7794C0.25 10.8657 0.984533 10.125 1.89062 10.125H16.1094C17.0155 10.125 17.75 10.8657 17.75 11.7794V16.1912C17.75 17.1049 17.0155 17.8456 16.1094 17.8456H13.1016C12.7995 17.8456 12.5547 17.5987 12.5547 17.2941C12.5547 16.9895 12.7995 16.7426 13.1016 16.7426H16.1094C16.4114 16.7426 16.6562 16.4957 16.6562 16.1912V11.7794C16.6562 11.4748 16.4114 11.2279 16.1094 11.2279H1.89062C1.58859 11.2279 1.34375 11.4748 1.34375 11.7794V16.1912C1.34375 16.4957 1.58859 16.7426 1.89062 16.7426H4.89844Z" fill="#42B0D5" stroke="#42B0D5" stroke-width="0.3"/>
</svg>
