<svg width="192" height="141" viewBox="0 0 192 141" fill="none" xmlns="http://www.w3.org/2000/svg">
<mask id="mask0_4712_13117" style="mask-type:luminance" maskUnits="userSpaceOnUse" x="0" y="0" width="192" height="141">
<path d="M191.189 0H0V140.818H191.189V0Z" fill="white"/>
</mask>
<g mask="url(#mask0_4712_13117)">
<path d="M63.3506 14.4532L27.6885 38.3062L62.8108 90.8169L98.473 66.9639L63.3506 14.4532Z" fill="#F5F5F5"/>
<path d="M80.0499 64.4749L79.6499 66.9749L61.9219 64.4209L62.3219 61.9209L80.0499 64.4749Z" fill="#E0E0E0"/>
<path d="M71.1218 55.54L73.6658 55.906L70.8458 73.361L68.3008 72.994L71.1218 55.54Z" fill="#E0E0E0"/>
<mask id="mask1_4712_13117" style="mask-type:luminance" maskUnits="userSpaceOnUse" x="20" y="-25" width="193" height="142">
<path d="M212.094 -24.4092H20.9053V116.409H212.094V-24.4092Z" fill="white"/>
</mask>
<g mask="url(#mask1_4712_13117)">
<path d="M54.7915 33.355C54.8165 33.393 51.2425 35.828 46.8105 38.793C42.3785 41.758 38.7615 44.132 38.7365 44.093C38.7115 44.054 42.2845 41.621 46.7185 38.655C51.1525 35.689 54.7665 33.316 54.7915 33.355Z" fill="#E0E0E0"/>
<path d="M67.9067 30.0619C67.9317 30.0999 61.9887 34.1199 54.6347 39.0389C47.2807 43.9579 41.2987 47.9169 41.2687 47.8759C41.2387 47.8349 47.1847 43.8199 54.5417 38.8979C61.8987 33.9759 67.8807 30.0209 67.9057 30.0589" fill="#E0E0E0"/>
<path d="M70.5355 33.9927C70.5605 34.0307 64.6175 38.0507 57.2635 42.9697C49.9095 47.8887 43.9235 51.8477 43.8975 51.8097C43.8715 51.7717 49.8135 47.7537 57.1705 42.8327C64.5275 37.9117 70.5095 33.9557 70.5345 33.9937" fill="#E0E0E0"/>
<path d="M73.1645 37.9226C73.1895 37.9606 67.2464 41.9806 59.8924 46.8996C52.5384 51.8186 46.5525 55.7776 46.5265 55.7396C46.5005 55.7016 52.4425 51.6826 59.7995 46.7616C67.1565 41.8406 73.1395 37.8846 73.1645 37.9226Z" fill="#E0E0E0"/>
<path d="M75.7934 41.8528C75.8184 41.8908 69.8754 45.9108 62.5214 50.8298C55.1674 55.7488 49.1814 59.7078 49.1554 59.6698C49.1294 59.6318 55.0714 55.6138 62.4284 50.6918C69.7854 45.7698 75.7684 41.8148 75.7934 41.8528Z" fill="#E0E0E0"/>
<path d="M182.598 49.6463L152.647 69.6787L182.145 113.779L212.095 93.7468L182.598 49.6463Z" fill="#F5F5F5"/>
<path d="M196.623 91.6557L196.283 93.7557L181.394 91.6107L181.734 89.5107L196.623 91.6557Z" fill="#E0E0E0"/>
<path d="M189.125 84.1509L191.261 84.4589L188.892 99.1179L186.756 98.8099L189.125 84.1509Z" fill="#E0E0E0"/>
<path d="M175.41 65.5195C175.435 65.5575 172.437 67.6075 168.71 70.0975C164.983 72.5875 161.947 74.5765 161.922 74.5385C161.897 74.5005 164.894 72.4515 168.622 69.9605C172.35 67.4695 175.384 65.4825 175.41 65.5205" fill="#E0E0E0"/>
<path d="M186.425 62.7547C186.45 62.7927 181.463 66.1737 175.286 70.3047C169.109 74.4357 164.079 77.7557 164.054 77.7177C164.029 77.6797 169.015 74.2997 175.194 70.1667C181.373 66.0337 186.4 62.7167 186.425 62.7547Z" fill="#E0E0E0"/>
<path d="M188.633 66.055C188.658 66.093 183.671 69.474 177.494 73.605C171.317 77.736 166.287 81.056 166.262 81.018C166.237 80.98 171.223 77.6 177.402 73.467C183.581 69.334 188.608 66.017 188.633 66.055Z" fill="#E0E0E0"/>
<path d="M190.841 69.3568C190.866 69.3948 185.879 72.7758 179.702 76.9068C173.525 81.0378 168.495 84.3578 168.47 84.3198C168.445 84.2818 173.431 80.9018 179.61 76.7688C185.789 72.6358 190.816 69.3188 190.841 69.3568Z" fill="#E0E0E0"/>
<path d="M193.045 72.6566C193.07 72.6946 188.083 76.0756 181.906 80.2066C175.729 84.3376 170.699 87.6576 170.674 87.6196C170.649 87.5816 175.635 84.2016 181.814 80.0686C187.993 75.9356 193.02 72.6176 193.045 72.6566Z" fill="#E0E0E0"/>
<path d="M102.537 -1.10029L76.8027 47.0186L109.482 64.4955L135.216 16.3766L102.537 -1.10029Z" fill="#F5F5F5"/>
<path d="M103.888 49.4436L101.815 50.1536L96.5518 35.6016L98.6248 34.8916L103.888 49.4436Z" fill="#E0E0E0"/>
<path d="M107.065 39.0068L107.82 41.0938L93.3722 46.0418L92.6172 43.9538L107.065 39.0068Z" fill="#E0E0E0"/>
<path d="M117.331 17.5399C117.305 17.5879 113.991 15.8649 109.931 13.6929C105.871 11.5209 102.595 9.71988 102.621 9.67188C102.647 9.62388 105.96 11.3469 110.021 13.5199C114.082 15.6929 117.356 17.4929 117.33 17.5409" fill="#E0E0E0"/>
<path d="M125.174 26.1971C125.148 26.2451 119.663 23.3611 112.924 19.7571C106.185 16.1531 100.739 13.1901 100.765 13.1431C100.791 13.0961 106.275 15.9781 113.017 19.5841C119.759 23.1901 125.2 26.1501 125.175 26.1981" fill="#E0E0E0"/>
<path d="M123.246 29.7987C123.22 29.8467 117.735 26.9627 110.996 23.3587C104.257 19.7547 98.811 16.7917 98.837 16.7447C98.863 16.6977 104.347 19.5797 111.089 23.1857C117.831 26.7917 123.272 29.7517 123.247 29.7997" fill="#E0E0E0"/>
<path d="M121.32 33.4008C121.294 33.4488 115.809 30.5648 109.07 26.9608C102.331 23.3568 96.8852 20.3938 96.9112 20.3468C96.9372 20.2998 102.421 23.1818 109.163 26.7878C115.905 30.3938 121.346 33.3538 121.321 33.4018" fill="#E0E0E0"/>
<path d="M119.394 37.0009C119.368 37.0489 113.883 34.1649 107.144 30.5609C100.405 26.9569 94.9594 23.9939 94.9854 23.9469C95.0114 23.8999 100.495 26.7819 107.237 30.3879C113.979 33.9939 119.42 36.9539 119.395 37.0019" fill="#E0E0E0"/>
</g>
<mask id="mask2_4712_13117" style="mask-type:luminance" maskUnits="userSpaceOnUse" x="20" y="-25" width="193" height="142">
<path d="M212.094 -24.4092H20.9053V116.409H212.094V-24.4092Z" fill="white"/>
</mask>
<g mask="url(#mask2_4712_13117)">
<path d="M100.014 6.48003H138.3C138.3 6.48003 134.765 -10.439 118.867 -10.439C104.726 -10.439 100.014 6.48003 100.014 6.48003Z" fill="#90B3BF"/>
</g>
<path d="M204.398 115.381C204.398 115.427 163.318 115.464 112.656 115.464C61.9763 115.463 20.9053 115.43 20.9053 115.381C20.9053 115.332 61.9763 115.298 112.656 115.298C163.319 115.298 204.398 115.335 204.398 115.381Z" fill="#263238"/>
<path d="M31.0599 95.4751C31.5975 95.5134 32.1219 95.6597 32.6017 95.9054C33.0814 96.1511 33.5066 96.4912 33.8519 96.9051C34.5379 97.7388 35.024 98.7185 35.2729 99.7691C35.7071 101.892 35.5809 104.092 34.9069 106.151C32.7309 105.373 31.3899 103.051 30.7829 101.833C29.8239 99.9051 29.2619 95.8381 31.0599 95.4751Z" fill="#42B0D5"/>
<path d="M38.0394 108.588C37.7128 108.081 37.526 107.497 37.4979 106.895C37.4698 106.293 37.6014 105.695 37.8794 105.16C38.1661 104.63 38.5555 104.163 39.0247 103.785C39.4939 103.407 40.0337 103.127 40.6124 102.96C40.87 102.855 41.1475 102.807 41.4254 102.821C41.7033 102.834 41.975 102.908 42.2214 103.037C42.4288 103.194 42.5904 103.404 42.6894 103.645C42.7884 103.886 42.8212 104.149 42.7844 104.407C42.7033 104.923 42.4873 105.408 42.1584 105.813C41.7157 106.547 41.1175 107.176 40.4059 107.655C39.6943 108.133 38.8866 108.451 38.0394 108.584" fill="#42B0D5"/>
<path d="M35.6962 110.86C35.0427 109.772 34.1396 108.854 33.0616 108.184C31.9835 107.514 30.7613 107.109 29.4962 107.005C28.8532 106.958 28.0792 107.066 27.7962 107.644C27.7061 107.954 27.7087 108.284 27.8038 108.593C27.8988 108.902 28.0822 109.176 28.3312 109.382C29.2637 110.357 30.4641 111.035 31.7811 111.328C33.0981 111.622 34.4725 111.519 35.7312 111.033" fill="#42B0D5"/>
<path d="M38.2748 115.304C38.2291 115.168 38.1957 115.028 38.1748 114.886L37.9508 113.741C37.6645 112.48 37.5842 111.181 37.7128 109.894C37.8638 108.601 38.3563 107.37 39.1398 106.329C39.3839 106.018 39.6642 105.737 39.9748 105.492C40.0577 105.426 40.1441 105.364 40.2338 105.306C40.2948 105.266 40.3278 105.247 40.3338 105.251C39.9292 105.593 39.5607 105.975 39.2338 106.391C38.4901 107.432 38.0216 108.643 37.8718 109.912C37.7476 111.185 37.813 112.468 38.0658 113.721C38.1438 114.207 38.2068 114.601 38.2428 114.875C38.2693 115.016 38.2823 115.159 38.2818 115.302" fill="#D0D4D6"/>
<path d="M31.7617 98.5352C31.7969 98.5868 31.8264 98.6422 31.8497 98.7002L32.0737 99.1852C32.2657 99.6062 32.5357 100.22 32.8637 100.985C33.5197 102.507 34.3957 104.623 35.3097 106.985C36.2237 109.347 37.0037 111.497 37.5457 113.063C37.8167 113.846 38.0307 114.481 38.1737 114.923L38.3347 115.432C38.3567 115.491 38.3721 115.551 38.3807 115.613C38.3497 115.559 38.3246 115.502 38.3057 115.442L38.1177 114.942L37.4447 113.099C36.8767 111.543 36.0827 109.399 35.1687 107.039C34.2547 104.679 33.3947 102.562 32.7687 101.03L32.0227 99.2152L31.8227 98.7152C31.7964 98.6585 31.7763 98.5992 31.7627 98.5382" fill="#D0D4D6"/>
<path d="M30.4699 108.727C30.6034 108.719 30.7373 108.724 30.8699 108.742C31.0275 108.751 31.1844 108.769 31.3399 108.796C31.5209 108.83 31.7319 108.849 31.9569 108.912C32.2046 108.966 32.4493 109.032 32.6899 109.112C32.9677 109.2 33.2405 109.304 33.5069 109.422C34.1175 109.697 34.6951 110.039 35.2289 110.443C35.7557 110.856 36.2332 111.329 36.6519 111.851C36.8321 112.08 36.9991 112.32 37.1519 112.568C37.2891 112.782 37.4137 113.004 37.5249 113.232C37.6204 113.419 37.7058 113.61 37.7809 113.805C37.8439 113.95 37.8974 114.099 37.9409 114.25C37.9868 114.376 38.0203 114.507 38.0409 114.639C38.0089 114.65 37.8539 114.095 37.4259 113.281C37.3097 113.059 37.1815 112.844 37.0419 112.636C36.888 112.394 36.7211 112.16 36.5419 111.936C36.1242 111.428 35.6524 110.966 35.1349 110.56C34.6101 110.163 34.0446 109.823 33.4479 109.546C33.1869 109.426 32.9199 109.32 32.6479 109.227C32.3959 109.127 32.1479 109.07 31.9289 109.009C31.0369 108.783 30.4619 108.753 30.4649 108.72" fill="#D0D4D6"/>
<path d="M174.743 9.11417C173.809 9.32917 173.353 10.4042 173.265 11.3592C173.302 12.3178 173.177 13.2759 172.897 14.1932C172.446 15.1732 171.368 15.8932 171.332 16.9752C171.31 17.6332 171.701 18.2512 171.682 18.9092C171.651 19.9902 170.55 20.8092 170.492 21.8852C170.45 22.6622 170.968 23.4082 170.844 24.1762C170.637 24.7438 170.383 25.2931 170.085 25.8182C169.959 26.41 170.028 27.0266 170.284 27.5753C170.539 28.124 170.965 28.5749 171.499 28.8602C172.07 29.2197 172.713 29.4499 173.383 29.5348C174.053 29.6197 174.734 29.5571 175.377 29.3516C176.02 29.146 176.611 28.8024 177.107 28.3448C177.604 27.8871 177.994 27.3265 178.252 26.7022C178.703 25.2811 178.812 23.7735 178.571 22.3022C178.188 17.6922 177.903 13.0752 177.717 8.45117" fill="#2A2143"/>
<path d="M172.03 25.383C172.221 25.2607 172.37 25.0836 172.457 24.875C172.55 24.6275 172.587 24.3625 172.566 24.099C172.532 23.7478 172.454 23.4022 172.334 23.07C172.182 22.6547 172.125 22.2103 172.168 21.77C172.305 21.2789 172.566 20.8312 172.925 20.47C173.097 20.273 173.241 20.0537 173.354 19.818C173.466 19.5792 173.483 19.3073 173.404 19.056C173.24 18.537 172.731 18.156 172.498 17.556C172.391 17.2586 172.374 16.9364 172.447 16.629C172.517 16.3405 172.62 16.0613 172.754 15.797C173.022 15.3228 173.234 14.8195 173.386 14.297C173.609 13.289 173.505 12.326 173.656 11.536C173.74 10.9017 174.02 10.3095 174.456 9.842C174.581 9.72244 174.723 9.62141 174.876 9.542C174.93 9.51436 174.986 9.49321 175.044 9.479C174.846 9.5905 174.664 9.72768 174.501 9.887C174.095 10.3566 173.84 10.9374 173.767 11.554C173.712 11.9798 173.683 12.4086 173.679 12.838C173.678 13.339 173.628 13.8386 173.53 14.33C173.38 14.8629 173.167 15.3764 172.897 15.86C172.748 16.1011 172.649 16.37 172.606 16.6506C172.564 16.9312 172.579 17.2174 172.65 17.492C172.85 18.033 173.364 18.417 173.556 19.002C173.646 19.2905 173.625 19.6022 173.497 19.876C173.377 20.1244 173.224 20.3552 173.041 20.562C172.682 20.8503 172.428 21.2497 172.319 21.6977C172.211 22.1457 172.254 22.617 172.441 23.038C172.557 23.3799 172.628 23.7351 172.653 24.095C172.668 24.371 172.619 24.6466 172.511 24.901C172.441 25.0614 172.328 25.1997 172.185 25.301C172.137 25.3369 172.083 25.3643 172.025 25.382" fill="#455A64"/>
<path d="M169.529 32.916L166.66 41.187L154.696 41.828L152.696 46.267L165.187 47.531C165.778 47.775 166.411 47.8966 167.05 47.8884C167.689 47.8802 168.319 47.7425 168.903 47.4835C169.487 47.2245 170.012 46.8497 170.447 46.3817C170.882 45.9137 171.217 45.3624 171.432 44.761L174.766 35.461L169.529 32.916Z" fill="#CBA394"/>
<path d="M194.274 110.89C194.274 110.89 185.506 83.0427 185.321 82.1387C185.153 81.3217 188.503 61.2817 188.921 56.0947L177.074 56.5357C177.074 56.5357 177.074 56.5677 177.074 56.6217L172.038 56.9007L176.548 113.854H182L181.459 94.9537C183.854 101.172 186.584 107.255 189.638 113.177L194.274 110.89Z" fill="#CBA394"/>
<path d="M181.684 101.732C181.684 101.559 181.618 95.4011 181.618 95.4011C180.773 93.5664 180.09 91.6611 179.577 89.707C179.602 89.527 181.684 101.732 181.684 101.732Z" fill="#BB8F7E"/>
<path d="M179.347 87.001C179.319 87.1138 179.308 87.2299 179.312 87.346C179.298 87.6606 179.3 87.9756 179.319 88.29C179.327 88.49 179.347 88.707 179.373 88.941C179.399 89.175 179.435 89.424 179.489 89.683C179.6 90.2454 179.749 90.7997 179.935 91.342C180.335 92.494 180.768 93.501 181.078 94.233L181.457 95.094C181.497 95.2032 181.551 95.3065 181.619 95.401C181.6 95.286 181.567 95.174 181.519 95.068C181.446 94.858 181.335 94.556 181.193 94.185C180.913 93.442 180.493 92.426 180.103 91.285C179.919 90.7494 179.768 90.2035 179.649 89.65C179.591 89.396 179.555 89.15 179.519 88.922C179.483 88.694 179.459 88.478 179.444 88.281C179.406 87.888 179.389 87.567 179.379 87.346C179.382 87.2299 179.37 87.1138 179.343 87.001" fill="#BB8F7E"/>
<path d="M176.449 114.136V113.624L182.033 113.381L182.048 115.493L181.703 115.516C180.17 115.606 173.903 115.864 172.877 115.557C171.733 115.214 176.45 114.137 176.45 114.137" fill="#6363A3"/>
<path d="M182.124 115.365C182.091 115.372 182.057 115.376 182.023 115.376L181.75 115.393L180.74 115.44C179.887 115.474 178.708 115.505 177.406 115.511C176.104 115.517 174.924 115.496 174.071 115.469L173.061 115.431L172.786 115.416C172.753 115.416 172.719 115.413 172.687 115.406C172.72 115.403 172.753 115.403 172.786 115.406H173.062L174.072 115.423C174.925 115.437 176.104 115.45 177.405 115.445C178.706 115.44 179.885 115.415 180.737 115.394L181.747 115.368H182.022C182.055 115.365 182.088 115.365 182.122 115.368" fill="#263238"/>
<path d="M174.64 115.544C174.57 115.2 174.38 114.893 174.104 114.677C174.27 114.75 174.41 114.872 174.506 115.027C174.602 115.182 174.648 115.362 174.64 115.544Z" fill="#263238"/>
<path d="M176.275 114.707C176.259 114.717 176.181 114.622 176.099 114.494C176.017 114.366 175.964 114.255 175.979 114.245C175.994 114.235 176.073 114.33 176.155 114.457C176.237 114.584 176.29 114.696 176.274 114.706" fill="#263238"/>
<path d="M176.725 114.467C176.713 114.481 176.625 114.423 176.525 114.337C176.425 114.251 176.361 114.171 176.374 114.157C176.387 114.143 176.474 114.201 176.574 114.287C176.674 114.373 176.737 114.453 176.725 114.467Z" fill="#263238"/>
<path d="M177.007 113.942C177.324 114.011 177.603 114.199 177.787 114.467C177.97 114.735 178.044 115.064 177.993 115.385C177.942 115.706 177.771 115.995 177.514 116.194C177.256 116.392 176.933 116.485 176.61 116.452C176.286 116.42 175.988 116.266 175.775 116.02C175.562 115.775 175.45 115.457 175.464 115.133C175.478 114.808 175.615 114.501 175.848 114.274C176.08 114.047 176.391 113.918 176.716 113.913C176.814 113.9 176.913 113.91 177.007 113.942Z" fill="#263238"/>
<path d="M177.104 113.571C177.004 113.625 176.894 113.657 176.781 113.666C176.668 113.675 176.554 113.66 176.447 113.623C176.667 113.609 176.886 113.591 177.104 113.571Z" fill="#263238"/>
<path d="M176.082 114.222C175.964 114.243 175.844 114.243 175.725 114.222C175.597 114.206 175.469 114.179 175.345 114.14C175.27 114.118 175.197 114.089 175.127 114.051C175.085 114.027 175.053 113.987 175.038 113.94C175.033 113.913 175.035 113.886 175.044 113.86C175.054 113.835 175.071 113.813 175.092 113.797C175.228 113.73 175.384 113.712 175.531 113.746C175.679 113.781 175.81 113.865 175.902 113.986C175.958 114.056 175.998 114.137 176.019 114.224C176.031 114.256 176.035 114.29 176.029 114.324C175.992 114.215 175.937 114.114 175.865 114.024C175.785 113.929 175.679 113.86 175.56 113.824C175.491 113.801 175.417 113.791 175.344 113.797C175.271 113.802 175.2 113.822 175.134 113.855C175.077 113.897 175.1 113.964 175.163 114.001C175.227 114.036 175.294 114.064 175.363 114.086C175.484 114.127 175.607 114.158 175.731 114.18C175.945 114.217 176.081 114.217 176.081 114.228" fill="#263238"/>
<path d="M175.993 114.24C175.949 114.165 175.934 114.077 175.951 113.992C175.963 113.898 175.997 113.808 176.051 113.731C176.081 113.677 176.125 113.632 176.177 113.6C176.23 113.568 176.29 113.55 176.351 113.548C176.387 113.555 176.419 113.577 176.44 113.607C176.461 113.638 176.469 113.675 176.462 113.712C176.454 113.769 176.434 113.823 176.402 113.872C176.355 113.951 176.299 114.023 176.234 114.088C176.18 114.152 176.112 114.202 176.034 114.233C176.028 114.224 176.105 114.169 176.203 114.055C176.26 113.989 176.31 113.917 176.352 113.84C176.401 113.764 176.434 113.629 176.344 113.613C176.254 113.597 176.164 113.694 176.109 113.765C176.059 113.834 176.025 113.914 176.009 113.998C176 114.078 175.998 114.159 176.004 114.239" fill="#263238"/>
<path d="M182.005 113.844C182.005 113.857 181.846 113.829 181.595 113.86C181.268 113.897 180.958 114.026 180.701 114.232C180.444 114.439 180.251 114.713 180.144 115.025C180.06 115.264 180.052 115.425 180.044 115.425C180.037 115.388 180.037 115.35 180.044 115.313C180.053 115.211 180.073 115.111 180.103 115.013C180.201 114.686 180.396 114.396 180.662 114.181C180.928 113.967 181.253 113.839 181.594 113.813C181.696 113.805 181.799 113.807 181.9 113.82C181.938 113.822 181.974 113.83 182.009 113.845" fill="#263238"/>
<path d="M179.33 114.922C178.794 115.022 178.244 115.025 177.707 114.931C177.707 114.911 178.072 114.931 178.519 114.931C178.966 114.931 179.328 114.902 179.331 114.921" fill="#263238"/>
<path d="M180.419 114.91C180.433 114.924 180.389 114.987 180.353 115.071C180.317 115.155 180.296 115.228 180.277 115.227C180.258 115.226 180.248 115.139 180.291 115.043C180.334 114.947 180.407 114.897 180.419 114.91Z" fill="#263238"/>
<path d="M180.827 114.398C180.84 114.411 180.805 114.469 180.748 114.527C180.691 114.585 180.633 114.627 180.62 114.609C180.607 114.591 180.642 114.538 180.699 114.48C180.756 114.422 180.813 114.38 180.827 114.398Z" fill="#263238"/>
<path d="M181.414 114.163C181.414 114.182 181.336 114.181 181.255 114.21C181.174 114.239 181.115 114.283 181.1 114.27C181.085 114.257 181.132 114.18 181.233 114.146C181.334 114.112 181.42 114.146 181.414 114.162" fill="#263238"/>
<path d="M181.831 114.051C181.838 114.068 181.806 114.097 181.76 114.115C181.714 114.133 181.671 114.134 181.66 114.115C181.649 114.096 181.685 114.069 181.731 114.051C181.777 114.033 181.82 114.033 181.831 114.051Z" fill="#263238"/>
<path d="M189.532 113.644L189.32 113.178L194.315 110.67L195.194 112.59L194.894 112.752C193.532 113.462 187.921 116.265 186.859 116.404C185.675 116.559 189.537 113.645 189.537 113.645" fill="#6363A3"/>
<path d="M195.213 112.44C195.187 112.459 195.159 112.475 195.13 112.489L194.887 112.617L193.987 113.073C193.223 113.453 192.16 113.964 190.975 114.503C189.79 115.042 188.705 115.503 187.916 115.831L186.979 116.21L186.722 116.31C186.693 116.323 186.662 116.333 186.631 116.34C186.658 116.323 186.687 116.309 186.717 116.297L186.969 116.187L187.897 115.787C188.681 115.45 189.761 114.98 190.947 114.442C192.133 113.904 193.197 113.399 193.966 113.031L194.877 112.594L195.126 112.477C195.154 112.462 195.184 112.45 195.215 112.44" fill="#263238"/>
<path d="M188.459 115.669C188.255 115.384 187.956 115.181 187.615 115.098C187.797 115.096 187.975 115.15 188.126 115.252C188.277 115.354 188.393 115.499 188.459 115.669Z" fill="#263238"/>
<path d="M189.608 114.235C189.598 114.251 189.487 114.196 189.36 114.113C189.233 114.03 189.139 113.95 189.149 113.935C189.159 113.92 189.27 113.974 189.397 114.057C189.524 114.14 189.618 114.22 189.608 114.235Z" fill="#263238"/>
<path d="M189.92 113.832C189.914 113.85 189.81 113.832 189.688 113.794C189.566 113.756 189.47 113.709 189.476 113.694C189.482 113.679 189.586 113.694 189.708 113.732C189.83 113.77 189.926 113.817 189.92 113.832Z" fill="#263238"/>
<path d="M189.962 113.237C189.97 113.254 189.862 113.322 189.713 113.39C189.629 113.441 189.534 113.473 189.436 113.483C189.428 113.466 189.536 113.398 189.685 113.329C189.769 113.278 189.864 113.246 189.962 113.237Z" fill="#263238"/>
<path d="M189.898 112.861C189.91 112.873 189.808 112.99 189.642 113.08C189.548 113.145 189.435 113.18 189.32 113.18C189.412 113.119 189.509 113.067 189.61 113.024C189.702 112.962 189.798 112.908 189.899 112.864" fill="#263238"/>
<path d="M189.237 113.872C189.138 113.939 189.028 113.989 188.911 114.018C188.787 114.056 188.659 114.083 188.53 114.098C188.452 114.11 188.374 114.112 188.295 114.106C188.247 114.101 188.202 114.078 188.169 114.041C188.153 114.019 188.144 113.994 188.142 113.967C188.14 113.94 188.146 113.913 188.159 113.889C188.256 113.772 188.39 113.692 188.539 113.663C188.688 113.633 188.843 113.657 188.976 113.729C189.054 113.771 189.122 113.828 189.176 113.898C189.214 113.948 189.228 113.98 189.224 113.982C189.146 113.897 189.053 113.826 188.95 113.772C188.838 113.719 188.713 113.7 188.59 113.717C188.518 113.724 188.447 113.745 188.383 113.78C188.318 113.814 188.261 113.861 188.215 113.917C188.181 113.979 188.228 114.03 188.301 114.038C188.374 114.046 188.447 114.046 188.519 114.038C188.645 114.026 188.77 114.005 188.893 113.973C189.103 113.919 189.228 113.863 189.232 113.873" fill="#263238"/>
<path d="M189.16 113.925C189.089 113.875 189.039 113.801 189.02 113.716C188.991 113.626 188.985 113.531 189.001 113.438C189.007 113.377 189.028 113.318 189.063 113.268C189.098 113.217 189.146 113.177 189.201 113.15C189.281 113.125 189.467 113.286 189.48 113.35C189.493 113.414 189.386 113.379 189.38 113.429C189.37 113.52 189.348 113.609 189.316 113.695C189.292 113.777 189.249 113.851 189.189 113.911C189.18 113.906 189.228 113.824 189.27 113.68C189.295 113.596 189.311 113.51 189.318 113.423C189.332 113.334 189.306 113.197 189.218 113.223C189.13 113.249 189.087 113.37 189.066 113.458C189.048 113.541 189.048 113.628 189.066 113.711C189.09 113.787 189.122 113.861 189.16 113.932" fill="#263238"/>
<path d="M192.483 113.18C192.034 113.491 191.534 113.719 191.005 113.853C190.999 113.834 191.339 113.707 191.746 113.521C192.153 113.335 192.473 113.163 192.483 113.18Z" fill="#263238"/>
<path d="M188.156 46.6693L187.226 35.3233L192.002 35.4082C192.095 33.6137 191.933 31.8151 191.52 30.0663C191.321 29.0885 190.889 28.1732 190.26 27.3984C189.632 26.6236 188.825 26.0122 187.909 25.6163V25.5863L187.763 25.5482C186.379 24.9271 184.9 24.5411 183.388 24.4062L177.525 24.4743C177.525 24.4743 173.046 23.9152 170.567 27.1082C169.612 28.3382 166.657 36.7563 166.657 36.7563L173.694 40.1452L173.024 35.4772C173.061 36.9782 173.25 38.4715 173.589 39.9342C173.83 40.5343 174.526 42.3862 174.526 42.3862L174.435 47.9863L188.156 46.6693Z" fill="#90B3BF"/>
<path d="M184.921 33.676L184.051 37.384H192.261L191.721 31.168L184.921 33.676Z" fill="#90B3BF"/>
<path d="M192.261 37.384C191.903 37.316 191.539 37.2802 191.174 37.277C190.501 37.237 189.574 37.204 188.541 37.209C187.508 37.214 186.581 37.259 185.908 37.309C185.543 37.32 185.181 37.3648 184.824 37.443C185.188 37.4682 185.552 37.4662 185.915 37.437C186.587 37.416 187.515 37.392 188.542 37.387C189.569 37.382 190.497 37.395 191.17 37.402C191.534 37.4241 191.899 37.4174 192.261 37.382" fill="#263238"/>
<path d="M184.568 31.1367C184.528 31.4494 184.519 31.7652 184.541 32.0797C184.547 32.6617 184.568 33.4647 184.603 34.3517C184.638 35.2387 184.679 36.0417 184.718 36.6217C184.721 36.9369 184.754 37.251 184.818 37.5597C184.857 37.247 184.866 36.9312 184.845 36.6167C184.839 36.0347 184.818 35.2317 184.783 34.3447C184.748 33.4577 184.707 32.6557 184.668 32.0757C184.665 31.7605 184.631 31.4454 184.568 31.1367Z" fill="#263238"/>
<g opacity="0.3">
<mask id="mask3_4712_13117" style="mask-type:luminance" maskUnits="userSpaceOnUse" x="177" y="34" width="11" height="14">
<path d="M187.104 34.3486H177.097V47.5266H187.104V34.3486Z" fill="white"/>
</mask>
<g mask="url(#mask3_4712_13117)">
<path d="M177.097 34.3486C177.097 34.3486 178.922 47.8776 184.051 47.5196C184.051 47.5196 186.36 47.4926 187.103 45.9576V45.3576L177.097 34.3486Z" fill="black"/>
</g>
</g>
<g opacity="0.3">
<mask id="mask4_4712_13117" style="mask-type:luminance" maskUnits="userSpaceOnUse" x="183" y="31" width="3" height="9">
<path d="M185.268 31.9351H183.586V39.7311H185.268V31.9351Z" fill="white"/>
</mask>
<g mask="url(#mask4_4712_13117)">
<path d="M184.568 31.9351L183.586 38.5671L184.222 39.7311L185.269 37.4551L184.826 37.4451L184.568 31.9351Z" fill="black"/>
</g>
</g>
<path d="M174.528 42.385C174.469 42.2855 174.422 42.179 174.389 42.068C174.309 41.861 174.203 41.558 174.081 41.18C173.762 40.1958 173.5 39.1942 173.296 38.18C173.093 37.1639 172.963 36.1346 172.907 35.1C172.888 34.7 172.882 34.381 172.888 34.159C172.881 34.0435 172.889 33.9275 172.911 33.814C172.937 33.814 172.955 34.304 173.023 35.091C173.113 36.1167 173.258 37.1369 173.458 38.147C173.694 39.33 173.977 40.386 174.193 41.147L174.451 42.047C174.491 42.1557 174.517 42.2699 174.528 42.385Z" fill="#263238"/>
<path d="M176.602 46.2743C176.558 46.2873 176.431 45.9953 176.318 45.6223C176.224 45.4016 176.181 45.1621 176.193 44.9223C176.236 44.9093 176.364 45.2003 176.476 45.5743C176.571 45.795 176.614 46.0344 176.602 46.2743Z" fill="#263238"/>
<path d="M177.311 46.2218C177.071 45.5842 177.061 44.883 177.282 44.2388C177.281 44.8999 177.291 45.561 177.311 46.2218Z" fill="#263238"/>
<path d="M173.838 40.2997C173.818 40.3407 172.18 39.5637 170.18 38.5647C168.18 37.5657 166.58 36.7227 166.596 36.6817C166.612 36.6407 168.254 37.4177 170.254 38.4167C172.254 39.4157 173.854 40.2587 173.837 40.2997" fill="#263238"/>
<path d="M176.721 25.5707C176.758 23.9627 176.767 22.2707 176.767 22.2707C176.087 22.0724 175.488 21.6651 175.053 21.1067C174.618 20.5482 174.37 19.867 174.345 19.1597C174.002 16.5717 174.961 10.4997 174.961 10.4997C176.4 9.97078 177.969 9.91175 179.444 10.3311C180.919 10.7505 182.222 11.6267 183.168 12.8337L182.656 25.8887C182.63 26.2597 182.532 26.6219 182.365 26.9542C182.198 27.2866 181.967 27.5824 181.685 27.8244C181.402 28.0665 181.075 28.2499 180.721 28.3639C180.367 28.478 179.994 28.5204 179.624 28.4887C178.857 28.4733 178.127 28.1612 177.586 27.6181C177.045 27.0749 176.736 26.3432 176.724 25.5767" fill="#CBA394"/>
<path d="M174.808 15.3507C174.805 15.441 174.837 15.5288 174.898 15.5957C174.958 15.6625 175.043 15.7031 175.133 15.7087C175.176 15.7134 175.221 15.7094 175.263 15.6968C175.305 15.6841 175.344 15.6633 175.378 15.6353C175.412 15.6074 175.44 15.573 175.461 15.5341C175.481 15.4952 175.494 15.4526 175.498 15.4087C175.501 15.3183 175.469 15.2302 175.408 15.1632C175.347 15.0961 175.263 15.0554 175.173 15.0497C175.129 15.045 175.085 15.0491 175.042 15.0617C175 15.0743 174.961 15.0952 174.927 15.1231C174.893 15.151 174.865 15.1854 174.844 15.2243C174.823 15.2633 174.811 15.3059 174.807 15.3497" fill="#263238"/>
<path d="M174.678 14.8962C174.72 14.9422 174.988 14.7552 175.36 14.7652C175.732 14.7752 176.001 14.9652 176.043 14.9252C176.063 14.9052 176.022 14.8252 175.905 14.7332C175.747 14.6172 175.556 14.5529 175.36 14.5492C175.166 14.5439 174.976 14.6003 174.816 14.7102C174.699 14.7952 174.658 14.8762 174.679 14.8972" fill="#263238"/>
<path d="M178.592 15.5869C178.589 15.6773 178.621 15.7654 178.682 15.8325C178.742 15.8996 178.827 15.9403 178.917 15.9459C178.961 15.9505 179.005 15.9463 179.047 15.9337C179.089 15.921 179.128 15.9001 179.162 15.8722C179.196 15.8443 179.224 15.8099 179.245 15.7711C179.265 15.7322 179.278 15.6897 179.282 15.6459C179.285 15.5555 179.253 15.4674 179.193 15.4004C179.132 15.3333 179.047 15.2926 178.957 15.2869C178.913 15.2824 178.869 15.2866 178.827 15.2992C178.785 15.3119 178.746 15.3328 178.712 15.3607C178.678 15.3886 178.65 15.423 178.629 15.4618C178.609 15.5006 178.596 15.5432 178.592 15.5869Z" fill="#263238"/>
<path d="M178.566 15.132C178.608 15.178 178.876 14.991 179.248 15.001C179.62 15.011 179.889 15.201 179.931 15.161C179.951 15.141 179.91 15.061 179.793 14.969C179.634 14.853 179.444 14.7888 179.248 14.785C179.054 14.7796 178.863 14.836 178.703 14.946C178.586 15.031 178.545 15.111 178.566 15.132Z" fill="#263238"/>
<path d="M177.141 17.8618C176.947 17.7954 176.746 17.7534 176.541 17.7368C176.441 17.7248 176.356 17.7028 176.341 17.6368C176.336 17.5381 176.361 17.4401 176.412 17.3558L176.712 16.6378C176.989 16.0301 177.217 15.401 177.393 14.7568C177.068 15.3406 176.79 15.9496 176.562 16.5778L176.273 17.2998C176.21 17.413 176.189 17.5448 176.214 17.6718C176.227 17.7057 176.248 17.7362 176.274 17.761C176.301 17.7858 176.333 17.8042 176.367 17.8148C176.42 17.8305 176.474 17.8395 176.528 17.8418C176.731 17.8735 176.938 17.8792 177.142 17.8588" fill="#263238"/>
<path d="M176.77 22.269C178.041 22.3211 179.303 22.0193 180.414 21.397C180.037 21.9898 179.488 22.4527 178.839 22.7229C178.191 22.9932 177.476 23.0578 176.79 22.908L176.77 22.269Z" fill="#BB8F7E"/>
<path d="M179.76 14.0548C179.683 14.1718 179.4 14.1198 179.082 14.0628C178.764 14.0058 178.482 13.9428 178.454 13.8058C178.426 13.6688 178.754 13.4938 179.175 13.5748C179.596 13.6558 179.837 13.9448 179.76 14.0548Z" fill="#263238"/>
<path d="M176.052 13.5077C176.023 13.6437 175.72 13.6927 175.369 13.7077C175.018 13.7227 174.711 13.7007 174.669 13.5677C174.627 13.4347 174.923 13.2297 175.345 13.2117C175.767 13.1937 176.08 13.3727 176.051 13.5047" fill="#263238"/>
<path d="M177.15 18.7552C177.11 18.7463 177.068 18.7507 177.031 18.7676C176.994 18.7846 176.963 18.8132 176.943 18.8492C176.919 18.892 176.911 18.9418 176.919 18.9901C176.928 19.0384 176.953 19.0823 176.99 19.1142C177.027 19.1462 177.075 19.1642 177.124 19.1652C177.173 19.1662 177.221 19.1501 177.259 19.1198C177.298 19.0894 177.325 19.0466 177.335 18.9987C177.346 18.9508 177.339 18.9006 177.317 18.8569C177.295 18.8132 177.258 18.7786 177.213 18.7589C177.168 18.7393 177.117 18.7359 177.07 18.7492" fill="#A36957"/>
<path d="M177.234 18.7918C177.251 18.7768 177.174 18.6858 177.011 18.7208C176.963 18.7337 176.92 18.759 176.885 18.7941C176.85 18.8292 176.824 18.8729 176.811 18.9208C176.794 18.9819 176.796 19.0467 176.816 19.1069C176.836 19.167 176.873 19.2199 176.923 19.2589C176.976 19.2953 177.038 19.3149 177.102 19.3149C177.166 19.3149 177.229 19.2953 177.281 19.2589C177.324 19.2303 177.357 19.1901 177.378 19.1432C177.398 19.0962 177.405 19.0444 177.396 18.9938C177.363 18.8268 177.239 18.7998 177.236 18.8228C177.233 18.8458 177.279 18.9018 177.268 19.0008C177.267 19.0253 177.259 19.0489 177.246 19.0694C177.233 19.0899 177.214 19.1066 177.192 19.1178C177.167 19.1309 177.139 19.1372 177.111 19.1359C177.083 19.1347 177.055 19.1261 177.031 19.1108C177.01 19.0922 176.993 19.0682 176.983 19.0413C176.973 19.0143 176.97 18.9853 176.974 18.9568C176.978 18.9318 176.988 18.908 177.003 18.8875C177.018 18.867 177.038 18.8503 177.06 18.8388C177.148 18.7888 177.227 18.8128 177.238 18.7898" fill="#263238"/>
<path d="M181.923 16.0217C181.601 16.7667 180.817 17.3407 180.923 18.1447C180.993 18.6637 181.323 19.1446 181.261 19.6676C181.18 20.3206 180.501 20.7727 180.405 21.4237C180.287 22.2237 181.064 22.8427 181.374 23.5877C181.826 24.6727 181.248 25.8876 181.234 27.0676C181.253 27.9691 181.598 28.8333 182.204 29.5004C182.811 30.1675 183.639 30.5925 184.534 30.6967C184.895 30.7521 185.264 30.7085 185.602 30.5706C185.94 30.4327 186.234 30.2057 186.453 29.9136C186.663 29.352 186.808 28.7687 186.887 28.1747C187.164 27.3237 187.975 26.7017 188.146 25.8237C188.457 24.2237 186.523 22.8977 186.646 21.2717C186.807 20.5949 187.029 19.9344 187.311 19.2987C187.427 18.8557 187.436 18.3915 187.338 17.9443C187.239 17.4971 187.036 17.0798 186.744 16.7267C186.266 16.1587 185.574 15.7856 185.167 15.1646C184.803 14.4053 184.582 13.5852 184.516 12.7456C184.303 11.7374 183.838 10.7995 183.164 10.0199C182.49 9.24026 181.63 8.64427 180.663 8.28765C179.696 7.93103 178.654 7.82543 177.636 7.98073C176.617 8.13602 175.654 8.54715 174.837 9.17565C174.769 9.44837 174.76 9.73247 174.81 10.009C174.86 10.2856 174.969 10.5483 175.129 10.7796C175.288 11.011 175.496 11.2056 175.736 11.3506C175.977 11.4956 176.246 11.5877 176.525 11.6206C178.675 11.9706 179.672 11.5666 179.914 12.4286C179.859 12.7842 179.888 13.148 180 13.49C180.112 13.8321 180.303 14.1428 180.558 14.3966C181.447 15.3586 182.283 15.1577 181.91 16.0197" fill="#2A2143"/>
<path d="M185.353 30.5493C185.285 30.5507 185.218 30.544 185.153 30.5293C184.966 30.4985 184.783 30.4492 184.606 30.3823C183.949 30.131 183.374 29.7049 182.942 29.1503C182.638 28.7729 182.399 28.3474 182.235 27.8913C182.049 27.3669 181.951 26.8155 181.946 26.2593C181.938 25.6466 182.015 25.0358 182.175 24.4443C182.256 24.1318 182.356 23.8245 182.475 23.5243C182.607 23.2264 182.724 22.9216 182.824 22.6113C182.909 22.3066 182.909 21.984 182.824 21.6793C182.73 21.3784 182.609 21.0868 182.462 20.8083C182.315 20.5317 182.192 20.2438 182.092 19.9473C181.994 19.6533 181.971 19.3395 182.025 19.0343C182.193 18.5064 182.428 18.0023 182.725 17.5343C182.931 17.1135 183.03 16.6485 183.013 16.1803C182.983 15.4955 182.735 14.8382 182.304 14.3053C182.136 14.118 181.955 13.9423 181.764 13.7793C181.987 13.905 182.186 14.0688 182.353 14.2633C182.817 14.7968 183.09 15.4694 183.13 16.1753C183.155 16.664 183.059 17.1514 182.849 17.5933C182.563 18.0522 182.335 18.5446 182.17 19.0593C182.125 19.6498 182.277 20.2385 182.603 20.7333C182.756 21.0208 182.881 21.3221 182.978 21.6333C183.071 21.9662 183.071 22.3184 182.978 22.6513C182.876 22.9679 182.757 23.2787 182.622 23.5823C182.504 23.8759 182.403 24.1765 182.322 24.4823C182.163 25.0592 182.085 25.6551 182.088 26.2533C182.078 27.2711 182.407 28.2632 183.024 29.0733C183.439 29.6209 183.991 30.0499 184.624 30.3173C185.074 30.4993 185.347 30.5263 185.344 30.5453" fill="#455A64"/>
<path d="M185.037 14.5107C184.882 14.5512 184.723 14.575 184.563 14.5817C184.127 14.6288 183.687 14.6173 183.254 14.5477C182.926 14.4994 182.611 14.386 182.327 14.2143C182.044 14.0426 181.797 13.816 181.603 13.5477C181.42 13.2087 181.275 12.8509 181.169 12.4807C181.034 12.1105 180.779 11.796 180.445 11.5877C179.755 11.2282 178.993 11.0292 178.216 11.0057C177.559 10.9739 176.921 10.7753 176.363 10.4287C175.989 10.1799 175.719 9.80232 175.605 9.36774C175.577 9.25016 175.569 9.12897 175.58 9.00874C175.591 8.92674 175.6 8.88574 175.606 8.88674C175.61 9.04341 175.631 9.19922 175.667 9.35174C175.799 9.75769 176.069 10.1047 176.43 10.3327C176.978 10.6517 177.596 10.8306 178.23 10.8537C179.032 10.8708 179.82 11.0745 180.53 11.4487C180.893 11.6764 181.169 12.0194 181.315 12.4227C181.416 12.7836 181.553 13.1331 181.726 13.4657C182.093 13.98 182.649 14.3286 183.272 14.4357C183.695 14.5136 184.125 14.5421 184.555 14.5207C184.713 14.5072 184.873 14.5052 185.032 14.5147" fill="#455A64"/>
<path d="M184.248 11.9237C184.129 11.966 184.003 11.9847 183.876 11.9787C183.282 11.9823 182.71 11.7537 182.282 11.3417C182.088 11.146 181.923 10.9246 181.789 10.6837C181.56 10.1265 181.153 9.66038 180.632 9.35774C180.059 9.16484 179.449 9.11136 178.851 9.20174C178.346 9.26822 177.835 9.26384 177.331 9.18874C176.986 9.13783 176.661 8.9921 176.393 8.76774C176.322 8.70629 176.259 8.63568 176.206 8.55774C176.17 8.50474 176.154 8.47474 176.159 8.47174C176.164 8.46874 176.248 8.57174 176.434 8.71774C176.704 8.91203 177.02 9.03422 177.35 9.07274C177.845 9.1294 178.345 9.12133 178.837 9.04874C179.461 8.94646 180.1 9.0004 180.698 9.20574C181.004 9.34249 181.266 9.56037 181.457 9.83574C181.625 10.0841 181.779 10.3411 181.92 10.6057C182.044 10.8377 182.198 11.0522 182.378 11.2437C182.538 11.4045 182.722 11.5395 182.924 11.6437C183.219 11.7987 183.544 11.8893 183.877 11.9097C184.113 11.9227 184.246 11.9097 184.248 11.9197" fill="#455A64"/>
<path d="M186.302 29.8637C186.286 29.8567 186.387 29.6517 186.502 29.2637C186.661 28.7117 186.733 28.138 186.714 27.5637C186.689 26.7116 186.456 25.8784 186.036 25.1367C185.804 24.7207 185.451 24.3497 185.163 23.8927C185.009 23.6591 184.901 23.399 184.843 23.1257C184.794 22.8384 184.818 22.5433 184.913 22.2677C185.142 21.7788 185.331 21.2722 185.479 20.7527C185.508 20.259 185.362 19.7707 185.066 19.3747C184.941 19.1706 184.827 18.9596 184.726 18.7427C184.632 18.5318 184.572 18.3079 184.546 18.0787C184.516 17.6746 184.528 17.2684 184.582 16.8667C184.684 16.3004 184.632 15.717 184.431 15.1777C184.341 14.9871 184.214 14.817 184.056 14.6777C184.056 14.6777 184.07 14.6777 184.094 14.6957C184.129 14.7164 184.163 14.7405 184.194 14.7677C184.317 14.8724 184.417 15.0015 184.488 15.1467C184.718 15.6914 184.791 16.2899 184.697 16.8737C184.652 17.2672 184.646 17.6641 184.68 18.0587C184.757 18.5034 184.933 18.9251 185.195 19.2927C185.33 19.5069 185.446 19.7328 185.541 19.9677C185.642 20.2215 185.676 20.4969 185.641 20.7677C185.496 21.2975 185.306 21.8138 185.072 22.3107C184.984 22.5604 184.962 22.828 185.006 23.0887C185.061 23.3425 185.163 23.5839 185.306 23.8007C185.579 24.2397 185.934 24.6177 186.174 25.0547C186.6 25.8197 186.828 26.6791 186.837 27.5547C186.847 28.1411 186.756 28.7248 186.57 29.2807C186.518 29.4308 186.457 29.5774 186.387 29.7197C186.366 29.7715 186.339 29.8202 186.306 29.8647" fill="#455A64"/>
<path d="M173.358 89.0829C173.358 89.0829 171.217 68.7919 171.094 61.2939C170.971 53.7959 174.465 46.3939 174.465 46.3939L188.158 45.8149C188.158 45.8149 190.865 53.4229 190.913 56.6149C191.007 62.8249 189.263 68.9569 189.464 73.8839L189.922 89.0759" fill="#48595F"/>
<path d="M190.378 64.137C190.308 64.1991 190.234 64.2556 190.155 64.306L190.03 64.394C189.987 64.43 189.945 64.476 189.897 64.522C189.783 64.6239 189.681 64.7383 189.592 64.863C189.062 65.6903 188.699 66.6128 188.521 67.579C188.363 68.2462 188.13 68.8936 187.828 69.509C187.741 69.6772 187.641 69.8381 187.528 69.99C187.469 70.066 187.415 70.148 187.349 70.221L187.138 70.432C186.837 70.7123 186.488 70.9359 186.108 71.092C185.341 71.428 184.476 71.592 183.686 71.984C182.88 72.4187 182.256 73.1284 181.928 73.984C181.542 74.845 181.308 75.749 180.987 76.593C180.722 77.4349 180.227 78.1859 179.558 78.761C178.9 79.2176 178.118 79.4618 177.317 79.461C176.58 79.504 175.897 79.483 175.285 79.575C174.733 79.6318 174.204 79.8309 173.752 80.153C173.422 80.4094 173.174 80.7571 173.04 81.153C172.954 81.4034 172.936 81.6722 172.987 81.932C173.022 82.11 173.072 82.196 173.061 82.2C173.01 82.12 172.974 82.0316 172.954 81.939C172.887 81.6733 172.895 81.3942 172.978 81.133C173.106 80.7174 173.355 80.3496 173.694 80.077C174.155 79.7356 174.697 79.5211 175.267 79.455C175.891 79.355 176.581 79.368 177.307 79.319C178.079 79.3147 178.832 79.075 179.465 78.632C180.107 78.0724 180.582 77.3453 180.835 76.532C181.151 75.698 181.384 74.792 181.777 73.912C182.119 73.021 182.771 72.2829 183.612 71.832C184.434 71.424 185.3 71.269 186.047 70.945C186.412 70.7975 186.748 70.5851 187.038 70.318L187.238 70.118C187.301 70.048 187.353 69.97 187.411 69.897C187.523 69.7518 187.624 69.5976 187.711 69.436C188.014 68.8303 188.248 68.1932 188.411 67.536C188.601 66.5609 188.987 65.6344 189.544 64.812C189.638 64.6871 189.747 64.5737 189.867 64.474C189.918 64.429 189.962 64.385 190.007 64.35L190.139 64.267C190.216 64.2131 190.297 64.1656 190.381 64.125" fill="#FAFAFA"/>
<path d="M190.465 54.7492C190.478 54.8392 190.484 54.9302 190.483 55.0212C190.479 55.2829 190.446 55.5433 190.383 55.7972C190.109 56.7272 189.571 57.558 188.836 58.1892C188.346 58.6362 187.81 59.0288 187.236 59.3602C186.623 59.7242 185.946 60.0712 185.252 60.4602C184.521 60.8531 183.839 61.3322 183.223 61.8872C182.591 62.515 182.071 63.2458 181.686 64.0482C181.295 64.8601 180.85 65.6446 180.353 66.3962C180.101 66.749 179.809 67.0715 179.484 67.3572C179.166 67.625 178.819 67.8559 178.45 68.0452C177.766 68.3801 177.054 68.6532 176.322 68.8612C175.642 69.0712 175.009 69.2612 174.455 69.4892C173.953 69.6899 173.476 69.9459 173.031 70.2522C172.696 70.4845 172.395 70.7618 172.137 71.0762C171.922 71.3507 171.742 71.6502 171.601 71.9682C171.623 71.8799 171.652 71.7937 171.689 71.7102C171.794 71.4702 171.928 71.2441 172.089 71.0372C172.343 70.7095 172.643 70.4199 172.98 70.1772C173.425 69.8568 173.906 69.5884 174.413 69.3772C174.972 69.1352 175.613 68.9412 176.284 68.7252C177.006 68.5139 177.709 68.2395 178.384 67.9052C178.741 67.7192 179.077 67.4934 179.384 67.2322C179.699 66.9536 179.981 66.6395 180.224 66.2962C180.715 65.549 181.155 64.77 181.543 63.9642C181.937 63.1466 182.469 62.4025 183.115 61.7642C183.742 61.2017 184.436 60.7175 185.181 60.3222C185.881 59.9322 186.558 59.5902 187.17 59.2342C187.74 58.9124 188.274 58.5306 188.764 58.0952C189.493 57.4837 190.035 56.6789 190.328 55.7732C190.411 55.4351 190.458 55.0892 190.468 54.7412" fill="#FAFAFA"/>
<path d="M171.161 62.3701C171.148 62.3512 171.139 62.3302 171.133 62.3081C171.108 62.2466 171.088 62.1834 171.071 62.1191C171.017 61.8665 171.028 61.6042 171.103 61.3571C171.275 60.9149 171.546 60.5178 171.895 60.1962C172.244 59.8745 172.662 59.6368 173.116 59.5011C173.68 59.3071 174.316 59.1901 174.985 59.0161C175.54 58.9263 176.065 58.7042 176.516 58.3686C176.967 58.033 177.33 57.5938 177.575 57.0881C177.757 56.7179 177.916 56.3365 178.049 55.9461C178.298 55.1003 178.636 54.2834 179.057 53.5091C179.541 52.7477 180.274 52.1779 181.131 51.8971C181.91 51.6461 182.705 51.4457 183.51 51.2971C184.229 51.1611 184.925 50.9255 185.579 50.5971C186.133 50.2845 186.611 49.854 186.979 49.3361C187.522 48.5837 187.831 47.6881 187.868 46.7611C187.869 46.4213 187.847 46.0818 187.801 45.7451C187.897 46.0754 187.942 46.4184 187.933 46.7621C187.92 47.7088 187.621 48.6293 187.075 49.4031C186.702 49.941 186.214 50.3894 185.647 50.7161C184.985 51.058 184.278 51.3048 183.547 51.4491C182.75 51.6017 181.963 51.8041 181.191 52.0551C180.369 52.3252 179.665 52.8724 179.201 53.6031C178.785 54.3661 178.45 55.1705 178.201 56.0031C178.064 56.3998 177.901 56.7873 177.714 57.1631C177.526 57.5246 177.287 57.8567 177.003 58.1491C176.445 58.6568 175.759 59.0025 175.018 59.1491C174.342 59.3191 173.706 59.4291 173.151 59.6121C172.709 59.739 172.301 59.9633 171.957 60.2686C171.613 60.5738 171.342 60.9523 171.163 61.3761C171.084 61.613 171.063 61.8654 171.102 62.1121C171.138 62.2791 171.166 62.3671 171.159 62.3691" fill="#FAFAFA"/>
<path d="M189.285 79.5269C189.3 79.5925 189.307 79.6596 189.307 79.7268C189.314 79.92 189.294 80.1131 189.248 80.3008C189.047 80.9895 188.626 81.593 188.048 82.0179C187.664 82.3238 187.24 82.5755 186.788 82.7658C186.303 82.9738 185.766 83.1378 185.206 83.3128C184.619 83.4814 184.044 83.6909 183.487 83.9398C182.896 84.2139 182.364 84.6016 181.923 85.0808C181.459 85.5668 181.059 86.0969 180.615 86.5659C180.189 87.0219 179.695 87.4085 179.15 87.7119C178.222 88.2181 177.184 88.4881 176.127 88.4979C175.418 88.5067 174.714 88.3895 174.047 88.1519C173.865 88.0899 173.689 88.0144 173.519 87.9258C173.457 87.8994 173.398 87.8659 173.344 87.8258C173.409 87.8413 173.472 87.8637 173.533 87.8929C173.707 87.9695 173.886 88.0363 174.068 88.0929C174.733 88.3035 175.428 88.4015 176.126 88.3828C177.159 88.3574 178.171 88.083 179.076 87.5829C179.605 87.2838 180.084 86.9047 180.497 86.4589C180.932 85.9979 181.33 85.4669 181.803 84.9709C182.258 84.4771 182.807 84.0784 183.418 83.7979C183.983 83.5473 184.565 83.3377 185.161 83.1708C185.723 82.9998 186.261 82.8409 186.735 82.6429C187.179 82.4619 187.596 82.2217 187.976 81.9289C188.544 81.5246 188.969 80.9494 189.188 80.2869C189.247 80.0386 189.28 79.7849 189.288 79.5298" fill="#FAFAFA"/>
<path d="M187.721 37.3973L185.073 37.4603C184.969 37.9935 184.765 38.5024 184.473 38.9603C182.547 35.4788 181.084 31.7607 180.121 27.9003C180.183 27.6933 180.256 27.4653 180.348 27.2093C180.414 26.8229 180.402 26.4271 180.313 26.0453C180.239 25.5843 180.113 24.9643 180.071 24.6773C179.953 23.8033 179.812 23.6653 179.507 23.7643C179.092 23.8983 179.677 26.2203 179.337 26.2703C179.154 26.2973 178.931 25.5023 178.866 24.8493C178.8 23.8966 178.606 22.9571 178.29 22.0563C177.974 21.8563 177.698 22.1703 177.778 22.8203C177.858 23.4703 177.961 25.4393 177.616 25.4653C177.271 25.4913 176.991 22.1653 176.991 22.1653C176.991 22.1653 177.045 21.4413 176.646 21.4583C175.926 21.4893 176.488 24.9973 176.546 25.3303C176.589 25.5613 176.215 25.6033 176.182 25.3533C176.149 25.1033 175.974 22.0253 175.241 22.0533C174.678 22.0723 175.677 24.9443 175.361 25.6103C175.045 26.2763 174.825 23.3493 174.288 23.3893C174.088 23.4043 173.94 23.4433 174.308 25.1003C174.665 26.4168 175.094 27.7128 175.593 28.9823C176.444 33.5753 180.182 48.2673 186.04 45.5823C189.318 44.0823 190.649 37.4073 190.649 37.4073L187.721 37.3973Z" fill="#CBA394"/>
<path d="M176.427 25.5548C176.453 25.557 176.478 25.5536 176.503 25.5448C176.541 25.5333 176.575 25.5085 176.597 25.4748C176.618 25.4411 176.628 25.4007 176.623 25.3608C176.615 25.1608 176.585 24.8758 176.539 24.5048C176.465 24.0566 176.416 23.6045 176.393 23.1508C176.393 22.8848 176.393 22.5988 176.411 22.2958C176.414 22.1422 176.43 21.9891 176.457 21.8378C176.482 21.6938 176.578 21.5288 176.689 21.5488H176.701H176.707C176.82 21.5438 176.907 21.6318 176.945 21.7658C176.983 21.9044 176.997 22.0485 176.987 22.1918V22.2028C177.054 23.0928 177.167 23.9787 177.327 24.8568C177.353 24.9758 177.379 25.0948 177.416 25.2158C177.434 25.2777 177.457 25.3384 177.482 25.3978C177.497 25.4308 177.515 25.4623 177.536 25.4918C177.55 25.5152 177.569 25.5348 177.592 25.5493C177.615 25.5637 177.642 25.5724 177.669 25.5748C177.715 25.5696 177.758 25.551 177.794 25.5213C177.829 25.4916 177.855 25.4522 177.869 25.4078C177.896 25.3435 177.915 25.2765 177.928 25.2078C177.953 25.0798 177.97 24.9501 177.979 24.8198C178.008 24.29 178.001 23.7587 177.958 23.2298C177.918 22.9652 177.906 22.6969 177.925 22.4298C177.93 22.372 177.946 22.3157 177.973 22.2642C178 22.2128 178.036 22.1671 178.081 22.1298C178.101 22.1177 178.124 22.1099 178.148 22.107C178.171 22.1041 178.195 22.1061 178.218 22.1128C178.244 22.1204 178.27 22.1315 178.294 22.1458C178.31 22.1576 178.322 22.174 178.329 22.1928C178.43 22.4511 178.504 22.7192 178.55 22.9928C178.606 23.2738 178.65 23.5608 178.7 23.8508C178.75 24.1408 178.786 24.4348 178.82 24.7298C178.846 25.033 178.895 25.3338 178.966 25.6298C179.002 25.7829 179.05 25.933 179.109 26.0788C179.14 26.1604 179.184 26.2363 179.24 26.3038C179.262 26.3321 179.291 26.3537 179.325 26.3659C179.358 26.3781 179.395 26.3805 179.43 26.3728C179.462 26.3619 179.49 26.3431 179.513 26.3181C179.536 26.2931 179.552 26.2627 179.56 26.2298C179.598 26.0677 179.609 25.9006 179.594 25.7348C179.587 25.5768 179.574 25.4208 179.561 25.2658C179.538 24.9978 179.513 24.7328 179.504 24.4718C179.498 24.3444 179.501 24.2168 179.514 24.0898C179.519 24.033 179.531 23.9771 179.552 23.9238C179.559 23.9062 179.569 23.8903 179.583 23.8768C179.588 23.8718 179.591 23.8768 179.595 23.8688L179.636 23.8578C179.847 23.7708 179.917 24.0638 179.973 24.2998C180.029 24.5358 180.053 24.7998 180.102 25.0518C180.186 25.5518 180.293 26.0518 180.348 26.5278C180.385 26.7554 180.375 26.9881 180.32 27.2118L180.097 27.8938L180.09 27.9138V27.9358C180.463 29.4986 180.938 31.0352 181.512 32.5358C182.012 33.8918 182.518 35.0638 182.962 36.0228C183.406 36.9818 183.802 37.7228 184.076 38.2228L184.407 38.7908C184.442 38.8578 184.484 38.9217 184.53 38.9818C184.502 38.9108 184.469 38.8422 184.43 38.7768L184.124 38.1958C183.866 37.6838 183.484 36.9398 183.056 35.9758C182.628 35.0118 182.137 33.8398 181.645 32.4828C181.085 30.9871 180.62 29.4574 180.254 27.9028V27.9448L180.477 27.2718C180.543 27.0236 180.556 26.7645 180.516 26.5108C180.459 26.0108 180.355 25.5308 180.272 25.0278C180.223 24.7788 180.193 24.5278 180.141 24.2638C180.116 24.1275 180.073 23.9952 180.012 23.8708C179.975 23.7938 179.913 23.7315 179.836 23.6938C179.756 23.6631 179.668 23.6595 179.586 23.6838L179.533 23.6988C179.507 23.709 179.483 23.7228 179.461 23.7398C179.426 23.771 179.399 23.8096 179.381 23.8528C179.353 23.9222 179.335 23.9953 179.328 24.0698C179.314 24.2061 179.31 24.3431 179.317 24.4798C179.326 24.7498 179.352 25.0158 179.374 25.2798C179.387 25.4348 179.4 25.5898 179.407 25.7418C179.42 25.8845 179.412 26.0284 179.384 26.1688C179.376 26.2018 179.36 26.1958 179.379 26.2118V26.2238C179.378 26.2202 179.378 26.2155 179.379 26.2118C179.379 26.2118 179.388 26.1988 179.379 26.1978C179.371 26.1937 179.365 26.1879 179.36 26.1808C179.318 26.1287 179.285 26.0707 179.26 26.0088C179.204 25.8718 179.159 25.7307 179.125 25.5868C179.055 25.2972 179.007 25.0027 178.982 24.7058C178.946 24.4058 178.905 24.1118 178.859 23.8208C178.813 23.5298 178.759 23.2408 178.705 22.9558C178.656 22.6647 178.575 22.3799 178.463 22.1068C178.44 22.0612 178.406 22.0226 178.363 21.9948C178.326 21.973 178.286 21.9562 178.245 21.9448C178.2 21.9327 178.153 21.9298 178.106 21.9363C178.06 21.9429 178.016 21.9587 177.976 21.9828C177.911 22.032 177.856 22.0941 177.816 22.1651C177.775 22.2361 177.75 22.3146 177.741 22.3958C177.718 22.5402 177.716 22.687 177.736 22.8318C177.752 22.9678 177.765 23.1008 177.775 23.2318C177.82 23.7526 177.83 24.2758 177.804 24.7978C177.796 24.921 177.781 25.0436 177.758 25.1648C177.747 25.2213 177.731 25.2766 177.71 25.3298C177.701 25.3512 177.689 25.3711 177.675 25.3888C177.663 25.4148 177.653 25.3828 177.654 25.4258C177.67 25.3928 177.654 25.4108 177.642 25.3838C177.627 25.363 177.614 25.3409 177.604 25.3178C177.581 25.2646 177.561 25.2102 177.544 25.1548C177.508 25.0418 177.482 24.9248 177.456 24.8098C177.292 23.9387 177.172 23.06 177.097 22.1768V22.2028C177.107 22.0437 177.09 21.8839 177.045 21.7308C177.022 21.6506 176.98 21.5776 176.921 21.5188C176.857 21.4601 176.772 21.4292 176.685 21.4328H176.702C176.648 21.4253 176.594 21.4338 176.545 21.4571C176.496 21.4804 176.456 21.5175 176.428 21.5638C176.379 21.6389 176.345 21.7228 176.328 21.8108C176.301 21.9688 176.287 22.1286 176.285 22.2888C176.274 22.5938 176.271 22.8818 176.285 23.1508C176.316 23.6076 176.374 24.0621 176.46 24.5118C176.515 24.8808 176.56 25.1678 176.574 25.3608C176.58 25.3951 176.574 25.4305 176.557 25.4609C176.54 25.4914 176.513 25.515 176.481 25.5278C176.437 25.5468 176.41 25.5498 176.411 25.5538" fill="#BB8F7E"/>
<path d="M155.727 41.7722C155.107 41.7585 154.487 41.8295 153.886 41.9832C152.245 42.4152 149.411 44.1321 149.294 46.2531H151.352C151.352 46.2531 150.2 48.7062 150.538 48.4792C151.466 47.7498 152.344 46.959 153.166 46.1122L155.727 41.7722Z" fill="#CBA394"/>
<path d="M183.8 4.84694C183.755 4.84694 183.568 3.14694 183.383 1.04694C183.198 -1.05306 183.083 -2.76406 183.131 -2.76806C183.179 -2.77206 183.363 -1.06806 183.548 1.03194C183.733 3.13194 183.848 4.84194 183.8 4.84694Z" fill="#263238"/>
<path d="M192.828 -2.66674C192.865 -2.64074 191.475 -0.621734 189.723 1.84027C187.971 4.30227 186.523 6.27827 186.482 6.25127C186.441 6.22427 187.835 4.20726 189.587 1.74427C191.339 -0.718735 192.788 -2.69274 192.828 -2.66674Z" fill="#263238"/>
<path d="M196.58 6.48007C196.589 6.52507 194.966 6.89607 192.956 7.30907C190.946 7.72207 189.308 8.02107 189.298 7.97607C189.288 7.93107 190.911 7.56007 192.922 7.14707C194.933 6.73407 196.57 6.43507 196.579 6.48007" fill="#263238"/>
<path d="M88.4834 50.1359L77.2444 107.917L75.7734 115.481L150.801 115.111C154.168 115.094 157.152 112.105 158.235 107.662L171.535 53.1109C172.357 49.7389 170.553 46.2319 167.997 46.2339L92.0604 46.3139C90.3834 46.3139 88.9174 47.8799 88.4794 50.1349" fill="#90B3BF"/>
<g opacity="0.5">
<mask id="mask5_4712_13117" style="mask-type:luminance" maskUnits="userSpaceOnUse" x="75" y="46" width="97" height="70">
<path d="M171.74 46.2339H75.7734V115.48H171.74V46.2339Z" fill="white"/>
</mask>
<g mask="url(#mask5_4712_13117)">
<path d="M88.4834 50.1349L77.2444 107.916L75.7734 115.48L150.801 115.11C154.168 115.093 157.152 112.104 158.235 107.661L171.535 53.1099C172.357 49.7379 170.553 46.2309 167.997 46.2329L92.0604 46.3129C90.3834 46.3129 88.9174 47.8789 88.4794 50.1339" fill="black"/>
</g>
</g>
<path d="M143.604 104.002L135.66 39.989C135.546 38.7618 134.987 37.6189 134.087 36.7766C133.187 35.9342 132.01 35.4509 130.778 35.418L113.359 35.475C112.712 35.4813 112.073 35.6199 111.481 35.8823C110.889 36.1448 110.357 36.5254 109.918 37.001L101.647 45.794L53.2021 46.047C52.4778 46.0816 51.769 46.2686 51.122 46.5959C50.475 46.9231 49.9044 47.3833 49.4474 47.9462C48.9904 48.5091 48.6573 49.1621 48.4699 49.8625C48.2826 50.563 48.2451 51.2951 48.3601 52.011L55.7351 111.176C55.8496 112.401 56.4087 113.542 57.3068 114.384C58.2048 115.226 59.3798 115.709 60.6101 115.744L145.04 115.577C154.44 115.772 155.34 112.995 155.34 112.995C144.563 115.383 143.604 104.011 143.603 104.004" fill="#90B3BF"/>
<g opacity="0.5">
<mask id="mask6_4712_13117" style="mask-type:luminance" maskUnits="userSpaceOnUse" x="82" y="70" width="26" height="25">
<path d="M107.199 70.7832H82.4199V94.9272H107.199V70.7832Z" fill="white"/>
</mask>
<g mask="url(#mask6_4712_13117)">
<path d="M107.198 91.1904L104.351 94.2484L82.4199 74.5204L85.2679 71.4614L107.198 91.1904Z" fill="white"/>
<path d="M103.154 70.7832L106.301 73.6142L86.4566 94.9262L83.3096 92.0952L103.154 70.7832Z" fill="white"/>
</g>
</g>
<path d="M155.66 8.57723C155.558 8.53311 155.469 8.46091 155.406 8.36892C155.342 8.27694 155.306 8.1689 155.301 8.05723L155.174 5.10623C155.171 5.01489 155.188 4.92397 155.226 4.84057C155.263 4.75716 155.319 4.68354 155.39 4.62545C155.461 4.56736 155.544 4.52638 155.633 4.5057C155.722 4.48501 155.814 4.48519 155.903 4.50622C156.149 4.55939 156.403 4.56163 156.65 4.51278C156.897 4.46394 157.131 4.36505 157.338 4.22223C157.53 4.10119 157.694 3.94233 157.822 3.7554C157.949 3.56847 158.037 3.35743 158.08 3.13523C158.109 2.90947 158.093 2.6802 158.031 2.46101C157.97 2.24182 157.865 2.03719 157.723 1.85923C157.575 1.65678 157.388 1.48586 157.173 1.35642C156.957 1.22698 156.719 1.14159 156.47 1.10523C155.969 1.07768 155.473 1.22087 155.063 1.51143C154.653 1.802 154.354 2.22281 154.214 2.70523C154.17 2.85296 154.069 2.97744 153.934 3.05221C153.799 3.12699 153.64 3.14616 153.491 3.10567C153.342 3.06518 153.215 2.96821 153.136 2.83536C153.058 2.70251 153.034 2.54426 153.07 2.39422C153.286 1.63887 153.756 0.981 154.4 0.531316C155.044 0.0816311 155.824 -0.132403 156.607 -0.0747712C157.015 -0.0208789 157.408 0.114764 157.762 0.324048C158.117 0.533332 158.425 0.811949 158.669 1.14322C158.908 1.4492 159.082 1.80014 159.182 2.17505C159.282 2.54995 159.305 2.94114 159.25 3.32522C159.181 3.70798 159.034 4.07248 158.818 4.39618C158.603 4.71988 158.323 4.99592 157.996 5.20723C157.519 5.52791 156.963 5.70967 156.388 5.73223L156.488 8.00622C156.492 8.10636 156.471 8.20592 156.426 8.29562C156.382 8.38532 156.315 8.46225 156.233 8.51924C156.15 8.57623 156.055 8.61143 155.955 8.62157C155.855 8.63171 155.755 8.61646 155.662 8.57723" fill="#FE5555"/>
<path d="M156.53 9.78221C156.537 9.87791 156.515 9.97338 156.467 10.0566C156.419 10.1397 156.348 10.2069 156.262 10.2495C156.176 10.2922 156.08 10.3084 155.984 10.2961C155.889 10.2838 155.8 10.2436 155.728 10.1806C155.655 10.1175 155.603 10.0344 155.578 9.94187C155.553 9.84929 155.556 9.75136 155.587 9.66045C155.617 9.56954 155.674 9.48974 155.75 9.43114C155.826 9.37254 155.918 9.33776 156.013 9.33121C156.077 9.32686 156.141 9.33507 156.201 9.35539C156.262 9.3757 156.317 9.40771 156.365 9.4496C156.413 9.49148 156.453 9.54241 156.481 9.59948C156.509 9.65655 156.526 9.71865 156.53 9.78221Z" fill="#FE5555"/>
<path d="M145.448 4.41608C145.462 4.35226 145.472 4.2874 145.477 4.22208C145.492 4.08408 145.513 3.89607 145.539 3.65407C145.569 3.34655 145.62 3.04148 145.693 2.74107C145.735 2.56307 145.757 2.36507 145.822 2.16507L146.022 1.52307C146.387 0.437109 146.92 -0.584702 147.603 -1.50493C148.734 -3.00273 150.241 -4.17513 151.971 -4.90351C153.701 -5.6319 155.593 -5.89042 157.455 -5.65293C157.699 -5.62993 157.939 -5.56493 158.184 -5.52193C158.431 -5.48178 158.676 -5.42295 158.915 -5.34593C159.923 -5.06635 160.882 -4.63184 161.758 -4.05793C163.693 -2.8015 165.167 -0.949686 165.958 1.21807C166.38 2.37995 166.591 3.60793 166.581 4.84407C166.594 6.11872 166.369 7.38465 165.916 8.57607L165.773 8.93907L165.754 8.98707L165.773 9.03207L168.109 14.4141L168.243 14.2621L163.483 12.4331L163.424 12.4101L163.378 12.4551C162.116 13.6778 160.572 14.5693 158.883 15.0501C157.44 15.4482 155.928 15.5353 154.449 15.3057C152.97 15.0761 151.556 14.5349 150.302 13.7181C149.274 13.042 148.367 12.1967 147.622 11.2181C147.02 10.3997 146.528 9.50657 146.157 8.56107C145.896 7.84218 145.706 7.0997 145.589 6.34407L145.489 5.51707C145.483 5.27907 145.477 5.07674 145.473 4.91007C145.468 4.75407 145.464 4.63107 145.461 4.53807C145.461 4.49551 145.458 4.45299 145.451 4.41107C145.444 4.45274 145.442 4.49492 145.443 4.53707C145.443 4.63007 145.443 4.75307 145.443 4.91007C145.443 5.06707 145.443 5.28207 145.443 5.52107C145.467 5.76374 145.495 6.04174 145.527 6.35507C145.632 7.11966 145.814 7.87175 146.07 8.60007C146.435 9.56013 146.925 10.4679 147.527 11.3001C148.275 12.297 149.188 13.159 150.227 13.8491C151.496 14.6869 152.93 15.2444 154.433 15.4843C155.935 15.7241 157.471 15.6409 158.939 15.2401C160.661 14.7556 162.237 13.8512 163.524 12.6081L163.424 12.6301L168.181 14.4661L168.421 14.5581L168.315 14.3141L165.967 8.93607V9.02907L166.113 8.65807C166.576 7.44012 166.806 6.14603 166.792 4.84307C166.801 3.57979 166.584 2.32503 166.152 1.13808C165.343 -1.07256 163.835 -2.95922 161.858 -4.23593C160.964 -4.81705 159.986 -5.25563 158.958 -5.53593C158.714 -5.6133 158.466 -5.67246 158.214 -5.71293C157.965 -5.75593 157.72 -5.82093 157.472 -5.84393C155.186 -6.15318 152.862 -5.699 150.862 -4.55193C149.544 -3.81055 148.398 -2.79791 147.501 -1.58093C146.819 -0.645002 146.29 0.393711 145.936 1.49607C145.869 1.7254 145.806 1.94207 145.747 2.14607C145.685 2.34607 145.666 2.54607 145.627 2.72907C145.559 3.0327 145.515 3.34086 145.493 3.65107C145.476 3.89407 145.462 4.08407 145.452 4.22307C145.444 4.28779 145.442 4.35299 145.445 4.41807" fill="#FE5555"/>
</g>
</svg>
