<svg width="18" height="19" viewBox="0 0 18 19" fill="none" xmlns="http://www.w3.org/2000/svg">
<path d="M17.3571 3.07143H14.1429V1.14286C14.1429 0.972361 14.0751 0.808848 13.9546 0.688288C13.834 0.567729 13.6705 0.5 13.5 0.5H4.5C4.3295 0.5 4.16599 0.567729 4.04543 0.688288C3.92487 0.808848 3.85714 0.972361 3.85714 1.14286V3.07143H0.642857C0.472361 3.07143 0.308848 3.13916 0.188288 3.25972C0.0677294 3.38028 0 3.54379 0 3.71429V14C0 14.1705 0.0677294 14.334 0.188288 14.4546C0.308848 14.5751 0.472361 14.6429 0.642857 14.6429H3.85714V17.8571C3.85714 18.0276 3.92487 18.1912 4.04543 18.3117C4.16599 18.4323 4.3295 18.5 4.5 18.5H13.5C13.6705 18.5 13.834 18.4323 13.9546 18.3117C14.0751 18.1912 14.1429 18.0276 14.1429 17.8571V14.6429H17.3571C17.5276 14.6429 17.6912 14.5751 17.8117 14.4546C17.9323 14.334 18 14.1705 18 14V3.71429C18 3.54379 17.9323 3.38028 17.8117 3.25972C17.6912 3.13916 17.5276 3.07143 17.3571 3.07143ZM5.14286 1.78571H12.8571V3.07143H5.14286V1.78571ZM12.8571 17.2143H5.14286V10.7857H12.8571V17.2143ZM16.7143 13.3571H14.1429V10.7857H14.7857C14.9562 10.7857 15.1197 10.718 15.2403 10.5974C15.3608 10.4769 15.4286 10.3134 15.4286 10.1429C15.4286 9.97236 15.3608 9.80885 15.2403 9.68829C15.1197 9.56773 14.9562 9.5 14.7857 9.5H3.21429C3.04379 9.5 2.88028 9.56773 2.75972 9.68829C2.63916 9.80885 2.57143 9.97236 2.57143 10.1429C2.57143 10.3134 2.63916 10.4769 2.75972 10.5974C2.88028 10.718 3.04379 10.7857 3.21429 10.7857H3.85714V13.3571H1.28571V4.35714H16.7143V13.3571Z" fill="#42B0D5"/>
<path d="M12.8572 6.28544C12.8572 6.45593 12.9249 6.61944 13.0455 6.74C13.166 6.86056 13.3295 6.92829 13.5 6.92829H14.7857C14.9562 6.92829 15.1198 6.86056 15.2403 6.74C15.3609 6.61944 15.4286 6.45593 15.4286 6.28544C15.4286 6.11494 15.3609 5.95143 15.2403 5.83087C15.1198 5.71031 14.9562 5.64258 14.7857 5.64258H13.5C13.3295 5.64258 13.166 5.71031 13.0455 5.83087C12.9249 5.95143 12.8572 6.11494 12.8572 6.28544Z" fill="#42B0D5"/>
<path d="M10.9286 12.0713H7.07145C6.90095 12.0713 6.73744 12.139 6.61688 12.2596C6.49632 12.3801 6.42859 12.5436 6.42859 12.7141C6.42859 12.8846 6.49632 13.0482 6.61688 13.1687C6.73744 13.2893 6.90095 13.357 7.07145 13.357H10.9286C11.0991 13.357 11.2626 13.2893 11.3832 13.1687C11.5037 13.0482 11.5714 12.8846 11.5714 12.7141C11.5714 12.5436 11.5037 12.3801 11.3832 12.2596C11.2626 12.139 11.0991 12.0713 10.9286 12.0713Z" fill="#42B0D5"/>
<path d="M10.9286 14.6426H7.07145C6.90095 14.6426 6.73744 14.7103 6.61688 14.8309C6.49632 14.9514 6.42859 15.1149 6.42859 15.2854C6.42859 15.4559 6.49632 15.6194 6.61688 15.74C6.73744 15.8606 6.90095 15.9283 7.07145 15.9283H10.9286C11.0991 15.9283 11.2626 15.8606 11.3832 15.74C11.5037 15.6194 11.5714 15.4559 11.5714 15.2854C11.5714 15.1149 11.5037 14.9514 11.3832 14.8309C11.2626 14.7103 11.0991 14.6426 10.9286 14.6426Z" fill="#42B0D5"/>
</svg>
