<svg width="22" height="22" viewBox="0 0 22 22" fill="none" xmlns="http://www.w3.org/2000/svg">
<path d="M20.7412 10.6162C20.3217 10.6162 19.9823 10.956 19.9823 11.3751C19.9823 16.3966 15.8969 20.4821 10.8746 20.4821C9.08285 20.4821 7.33445 19.9449 5.85162 18.9643H6.32079C6.7403 18.9643 7.07976 18.6245 7.07976 18.2054C7.07976 17.7863 6.7403 17.4464 6.32079 17.4464H4.04388C3.62437 17.4464 3.28491 17.7863 3.28491 18.2054V20.4821C3.28491 20.9012 3.62437 21.241 4.04388 21.241C4.46339 21.241 4.80285 20.9012 4.80285 20.4821V20.0938C6.57622 21.3277 8.70026 21.9999 10.8746 21.9999C16.7337 21.9999 21.5002 17.2337 21.5002 11.3751C21.5002 10.956 21.1607 10.6162 20.7412 10.6162Z" fill="#42B0D5"/>
<path d="M10.8756 2.26783C12.6921 2.26783 14.4175 2.79176 15.9089 3.78566H15.4294C15.0099 3.78566 14.6704 4.12547 14.6704 4.54458C14.6704 4.96368 15.0099 5.30349 15.4294 5.30349H17.7063C18.1258 5.30349 18.4653 4.96368 18.4653 4.54458V2.26783C18.4653 1.84872 18.1258 1.50892 17.7063 1.50892C17.2868 1.50892 16.9473 1.84872 16.9473 2.26783V2.66447C15.162 1.41507 13.0772 0.75 10.8756 0.75C5.01654 0.75 0.25 5.5162 0.25 11.3748C0.25 11.7939 0.589461 12.1337 1.00897 12.1337C1.42848 12.1337 1.76794 11.7939 1.76794 11.3748C1.76794 6.3533 5.85333 2.26783 10.8756 2.26783Z" fill="#42B0D5"/>
<path d="M11.1425 4.59328C10.9705 4.5288 10.7808 4.5288 10.6088 4.59328L4.53707 6.87003C4.24134 6.9812 4.04492 7.26431 4.04492 7.58077V15.1699C4.04492 15.4864 4.24134 15.7695 4.53707 15.8807L10.6088 18.1574C10.6948 18.1897 10.7852 18.2056 10.8757 18.2056C10.9661 18.2056 11.0565 18.1897 11.1425 18.1574L17.2142 15.8807C17.51 15.7695 17.7064 15.4864 17.7064 15.1699V7.58077C17.7064 7.26431 17.51 6.9812 17.2142 6.87003L11.1425 4.59328ZM10.8757 6.11445L14.7861 7.58077L10.8757 9.04709L6.96518 7.58077L10.8757 6.11445ZM5.56286 8.67616L10.1167 10.3837V16.3517L5.56286 14.6441V8.67616ZM11.6346 16.3517V10.3837L16.1884 8.67616V14.6441L11.6346 16.3517Z" fill="#42B0D5"/>
</svg>
