<svg width="20" height="20" viewBox="0 0 20 20" fill="none" xmlns="http://www.w3.org/2000/svg">
<path d="M1.66669 3.3335V16.6668" stroke="black" stroke-width="1.2" stroke-linecap="round" stroke-linejoin="round"/>
<path d="M4.16669 3.3335V16.6668" stroke="black" stroke-width="1.2" stroke-linecap="round" stroke-linejoin="round"/>
<path d="M12.5 3.3335V16.6668" stroke="black" stroke-width="1.2" stroke-linecap="round" stroke-linejoin="round"/>
<path d="M6.66669 15.0002V5.00016C6.66669 4.21449 6.66669 3.82165 6.91076 3.57757C7.15484 3.3335 7.54768 3.3335 8.33335 3.3335C9.11902 3.3335 9.51185 3.3335 9.75594 3.57757C10 3.82165 10 4.21449 10 5.00016V15.0002C10 15.7858 10 16.1787 9.75594 16.4227C9.51185 16.6668 9.11902 16.6668 8.33335 16.6668C7.54768 16.6668 7.15484 16.6668 6.91076 16.4227C6.66669 16.1787 6.66669 15.7858 6.66669 15.0002Z" stroke="black" stroke-width="1.2" stroke-linecap="round" stroke-linejoin="round"/>
<path d="M15 15.0002V5.00016C15 4.21449 15 3.82165 15.2441 3.57757C15.4882 3.3335 15.881 3.3335 16.6667 3.3335C17.4523 3.3335 17.8452 3.3335 18.0892 3.57757C18.3333 3.82165 18.3333 4.21449 18.3333 5.00016V15.0002C18.3333 15.7858 18.3333 16.1787 18.0892 16.4227C17.8452 16.6668 17.4523 16.6668 16.6667 16.6668C15.881 16.6668 15.4882 16.6668 15.2441 16.4227C15 16.1787 15 15.7858 15 15.0002Z" stroke="black" stroke-width="1.2" stroke-linecap="round" stroke-linejoin="round"/>
</svg>
