<svg width="15" height="14" viewBox="0 0 15 14" fill="none" xmlns="http://www.w3.org/2000/svg">
<mask id="path-1-outside-1_2955_3546" maskUnits="userSpaceOnUse" x="5.10718" y="-0.398926" width="10" height="9" fill="black">
<rect fill="white" x="5.10718" y="-0.398926" width="10" height="9"/>
<path d="M14.5938 4.69245C14.6276 4.59434 14.6452 4.47635 14.6423 4.37825C14.6438 4.28147 14.6261 4.16348 14.5909 4.06538C14.5571 3.96462 14.5072 3.8705 14.4455 3.783C14.3839 3.6955 14.3075 3.61596 14.2194 3.54702C14.1754 3.51255 14.1284 3.47941 14.077 3.45157C14.052 3.43698 14.0256 3.4224 13.9992 3.41047L13.9581 3.39191L13.9287 3.37998H13.9258C13.917 3.37467 13.9067 3.37202 13.8964 3.36804L13.8788 3.36274H13.8759C13.867 3.35876 13.8568 3.35611 13.848 3.35346L12.8745 3.13604L12.6308 3.08169L12.5089 3.05385C12.4736 3.04457 12.4502 3.04059 12.4208 3.02998C12.3092 2.99551 12.2079 2.93586 12.1227 2.86162C12.0405 2.78605 11.973 2.69457 11.9333 2.59382C11.9216 2.5673 11.9172 2.54609 11.9054 2.51427L11.8746 2.40424L11.8129 2.18417L11.5677 1.30654C11.5648 1.29725 11.5618 1.28797 11.5589 1.27869L11.5486 1.25218V1.24953C11.5413 1.23495 11.5339 1.22036 11.5251 1.20578L11.4532 1.09442C11.4209 1.04934 11.3856 1.00692 11.346 0.968474C11.2682 0.890256 11.1801 0.82397 11.0847 0.769615C10.8952 0.662231 10.6647 0.59727 10.4342 0.601247C10.3285 0.601247 10.2037 0.614504 10.095 0.644996C9.98491 0.674162 9.88066 0.717911 9.78522 0.772266C9.68978 0.826621 9.60169 0.892907 9.52534 0.971126C9.48716 1.00957 9.45045 1.052 9.41815 1.09574C9.402 1.11828 9.38585 1.14082 9.37263 1.16468L9.33593 1.22699C9.33593 1.22699 9.33005 1.23892 9.32712 1.24555L9.32418 1.25483L9.31684 1.27339C9.3139 1.28135 9.31097 1.2893 9.30803 1.29725V1.30256L9.04668 2.17356L8.9806 2.39098L8.9483 2.49969C8.93949 2.52621 8.93215 2.55007 8.9204 2.57393C8.87929 2.67071 8.81175 2.75556 8.72953 2.82582C8.64584 2.89476 8.54746 2.94779 8.44028 2.97828C8.41238 2.98756 8.39036 2.99021 8.35512 2.99817L8.23325 3.02203L7.98951 3.07108L7.01311 3.26199C7.01311 3.26199 7.00283 3.26464 6.99696 3.26596L6.9764 3.27127L6.96172 3.27524C6.96172 3.27524 6.9485 3.27922 6.94263 3.28187L6.92207 3.28983L6.89124 3.30176L6.84719 3.32032C6.81636 3.33358 6.78699 3.34816 6.75909 3.36407C6.70183 3.39456 6.64897 3.42903 6.59905 3.46615C6.49921 3.54039 6.41405 3.62656 6.34357 3.72069C6.27309 3.81482 6.21436 3.91822 6.17325 4.02958C6.15269 4.08526 6.13654 4.1436 6.1248 4.20325C6.11892 4.23375 6.11599 4.26424 6.11158 4.2934L6.10718 4.37692V4.46045C6.10865 4.49094 6.11011 4.52143 6.11452 4.55192C6.12333 4.6129 6.13508 4.67124 6.15269 4.72824C6.18793 4.84226 6.23932 4.95097 6.3054 5.0504C6.37147 5.15115 6.45369 5.24263 6.55207 5.32615C6.60052 5.36724 6.65338 5.40569 6.71064 5.44149C6.73854 5.45872 6.7679 5.47596 6.80021 5.49186L6.87803 5.53031L6.8839 5.53296L6.92061 5.54622L6.94116 5.55417L6.9485 5.55682L6.98815 5.56743L7.62538 5.73977L7.944 5.82727C8.04531 5.85511 8.17305 5.88826 8.22444 5.90947C8.34631 5.95587 8.46817 6.02746 8.57389 6.11363C8.67961 6.20113 8.77064 6.29791 8.85433 6.39336C8.87636 6.41987 8.89398 6.43578 8.9204 6.46893C8.94683 6.5034 8.97326 6.53654 9.00116 6.56703C9.05695 6.62801 9.32418 7.25773 9.38585 7.29486C9.51065 7.3691 9.74886 7.67534 9.90597 7.61833C10.0352 7.57193 10.258 7.16228 10.2874 7.03899C10.3021 6.97801 9.86419 6.34431 9.85978 6.26874C9.85831 6.23162 9.83955 6.20776 9.83368 6.16799C9.82487 6.12291 9.81018 6.06458 9.7911 6.01288C9.71621 5.79811 9.56351 5.57273 9.35795 5.39376C9.15533 5.21213 8.90425 5.07956 8.66786 4.99471C8.59298 4.9682 8.5181 4.94566 8.44028 4.9271L8.26555 4.88601L7.92491 4.80646L7.29355 4.66063C7.29355 4.66063 7.28327 4.65533 7.2774 4.65135C7.26565 4.64472 7.25391 4.63677 7.24216 4.62749C7.21867 4.60893 7.19517 4.58374 7.17462 4.5559C7.15553 4.52806 7.13938 4.49757 7.13057 4.46973C7.12616 4.45514 7.12323 4.44189 7.12029 4.42995C7.12029 4.42333 7.12029 4.41802 7.11882 4.41272V4.38488V4.35704C7.11882 4.35174 7.11882 4.34511 7.12029 4.3398C7.12323 4.32787 7.12616 4.31329 7.13057 4.30003C7.13938 4.27219 7.15553 4.2417 7.17462 4.21386C7.19371 4.18602 7.2172 4.16216 7.24216 4.14227C7.25391 4.13299 7.26565 4.12371 7.2774 4.11841C7.28327 4.11443 7.28768 4.11178 7.29355 4.10913L8.20976 3.90364L8.45202 3.84928L8.57242 3.82144C8.61941 3.80951 8.68842 3.79493 8.74421 3.77504C8.97914 3.70213 9.1935 3.57884 9.3697 3.4224C9.54589 3.26464 9.68391 3.07373 9.76907 2.86427C9.79109 2.81256 9.80871 2.75688 9.8234 2.70651L9.85423 2.5978L9.91443 2.37905L10.1479 1.54384C10.2066 1.45237 10.3285 1.38873 10.4386 1.39271C10.5017 1.39006 10.559 1.40729 10.6207 1.44043C10.65 1.45634 10.675 1.47623 10.6941 1.49479C10.7029 1.50407 10.7117 1.51467 10.719 1.52395L10.7337 1.54782L10.8629 2.01978L10.9657 2.39496L11.0171 2.58189L11.0421 2.67601L11.0553 2.72374L11.0773 2.79268C11.1977 3.15858 11.4752 3.47941 11.8423 3.67031C11.9348 3.71671 12.0288 3.76046 12.1301 3.79095C12.1785 3.80819 12.2314 3.82012 12.2798 3.83338L12.3841 3.85724L12.7981 3.95269L13.5749 4.13299C13.5749 4.13299 13.5837 4.13829 13.5895 4.14094C13.5998 4.14625 13.6101 4.1542 13.6204 4.16348C13.6424 4.18072 13.663 4.20325 13.6806 4.22844C13.6982 4.25363 13.7114 4.28147 13.7187 4.30666C13.7232 4.31992 13.7246 4.33185 13.7276 4.34246C13.7276 4.34776 13.7276 4.35306 13.729 4.35836V4.38355V4.40874C13.729 4.41405 13.729 4.41935 13.7276 4.42465C13.7246 4.43526 13.7217 4.44719 13.7187 4.46045C13.7099 4.48563 13.6967 4.51215 13.6776 4.53601C13.66 4.55988 13.638 4.58241 13.6174 4.59832C13.6072 4.60628 13.5969 4.61423 13.5866 4.61821C13.5837 4.61953 13.5807 4.62086 13.5778 4.62218L12.6572 4.82767L12.4149 4.88203L12.293 4.90854L12.2123 4.92843C12.1815 4.93638 12.1521 4.94434 12.1227 4.95362C11.8863 5.02653 11.669 5.15115 11.4884 5.30759C11.3093 5.46535 11.1683 5.66023 11.0817 5.87235C11.0582 5.92538 11.0421 5.97973 11.0245 6.03409L10.9936 6.1428L10.9319 6.36154L10.6956 7.19675V7.1994L10.6823 7.21664C10.6735 7.22857 10.6618 7.24183 10.6486 7.25376C10.6236 7.27762 10.5942 7.29751 10.5708 7.30944C10.5546 7.31739 10.515 7.33065 10.4841 7.33463C10.4533 7.33993 10.4254 7.33728 10.4181 7.33463C10.4078 7.33198 10.4283 7.33463 10.4313 7.33463C10.4327 7.33198 10.4225 7.31872 10.4078 7.29618L10.3916 7.26834L10.3755 7.22724C10.349 7.16096 10.3197 7.09732 10.2874 7.03899C10.1596 6.80434 9.97903 6.65055 9.68244 6.72744C9.36089 6.81096 9.32124 7.03236 9.38585 7.29486C9.402 7.35982 9.42402 7.42875 9.45045 7.49769L9.47101 7.5494L9.48129 7.57591L9.48716 7.58917L9.50038 7.61833C9.52974 7.67269 9.55617 7.71246 9.58847 7.75488C9.65161 7.83708 9.72796 7.9153 9.82046 7.98158C9.91003 8.04787 10.026 8.10355 10.1317 8.13404C10.2859 8.17912 10.4357 8.18575 10.5766 8.17249C10.719 8.15791 10.8497 8.12476 10.9833 8.06643C11.114 8.0081 11.2271 7.92988 11.3225 7.83973C11.371 7.79466 11.415 7.7456 11.4547 7.6939C11.4752 7.66739 11.4928 7.64087 11.5119 7.6117C11.5295 7.58386 11.5472 7.5494 11.556 7.53349C11.5604 7.52553 11.5648 7.51625 11.5692 7.50697V7.50299L11.5839 7.46985C11.5868 7.4619 11.5897 7.45262 11.5927 7.44334V7.44069L11.8408 6.56703L11.9025 6.34828L11.9333 6.23957C11.9421 6.21439 11.948 6.1892 11.9597 6.16533C11.9994 6.06856 12.064 5.97973 12.1447 5.90682C12.227 5.83523 12.3253 5.7769 12.434 5.74375C12.4634 5.73315 12.4825 5.72917 12.5221 5.71989L12.6425 5.69205L12.8848 5.63637L13.8524 5.41365H13.8553C13.8656 5.41099 13.8759 5.40834 13.8847 5.40437L13.9023 5.39906H13.9067C13.9155 5.39509 13.9243 5.39111 13.9346 5.38713L13.9639 5.37387L14.0051 5.35531C14.033 5.34338 14.0579 5.3288 14.0843 5.31422C14.1357 5.28505 14.1827 5.25191 14.2268 5.21611C14.3149 5.14585 14.3898 5.06498 14.4514 4.97748C14.5131 4.88998 14.5615 4.79453 14.5953 4.69377L14.5938 4.69245ZM10.3887 7.25376L10.3916 7.25774V7.25376H10.3887Z"/>
</mask>
<path d="M14.5938 4.69245C14.6276 4.59434 14.6452 4.47635 14.6423 4.37825C14.6438 4.28147 14.6261 4.16348 14.5909 4.06538C14.5571 3.96462 14.5072 3.8705 14.4455 3.783C14.3839 3.6955 14.3075 3.61596 14.2194 3.54702C14.1754 3.51255 14.1284 3.47941 14.077 3.45157C14.052 3.43698 14.0256 3.4224 13.9992 3.41047L13.9581 3.39191L13.9287 3.37998H13.9258C13.917 3.37467 13.9067 3.37202 13.8964 3.36804L13.8788 3.36274H13.8759C13.867 3.35876 13.8568 3.35611 13.848 3.35346L12.8745 3.13604L12.6308 3.08169L12.5089 3.05385C12.4736 3.04457 12.4502 3.04059 12.4208 3.02998C12.3092 2.99551 12.2079 2.93586 12.1227 2.86162C12.0405 2.78605 11.973 2.69457 11.9333 2.59382C11.9216 2.5673 11.9172 2.54609 11.9054 2.51427L11.8746 2.40424L11.8129 2.18417L11.5677 1.30654C11.5648 1.29725 11.5618 1.28797 11.5589 1.27869L11.5486 1.25218V1.24953C11.5413 1.23495 11.5339 1.22036 11.5251 1.20578L11.4532 1.09442C11.4209 1.04934 11.3856 1.00692 11.346 0.968474C11.2682 0.890256 11.1801 0.82397 11.0847 0.769615C10.8952 0.662231 10.6647 0.59727 10.4342 0.601247C10.3285 0.601247 10.2037 0.614504 10.095 0.644996C9.98491 0.674162 9.88066 0.717911 9.78522 0.772266C9.68978 0.826621 9.60169 0.892907 9.52534 0.971126C9.48716 1.00957 9.45045 1.052 9.41815 1.09574C9.402 1.11828 9.38585 1.14082 9.37263 1.16468L9.33593 1.22699C9.33593 1.22699 9.33005 1.23892 9.32712 1.24555L9.32418 1.25483L9.31684 1.27339C9.3139 1.28135 9.31097 1.2893 9.30803 1.29725V1.30256L9.04668 2.17356L8.9806 2.39098L8.9483 2.49969C8.93949 2.52621 8.93215 2.55007 8.9204 2.57393C8.87929 2.67071 8.81175 2.75556 8.72953 2.82582C8.64584 2.89476 8.54746 2.94779 8.44028 2.97828C8.41238 2.98756 8.39036 2.99021 8.35512 2.99817L8.23325 3.02203L7.98951 3.07108L7.01311 3.26199C7.01311 3.26199 7.00283 3.26464 6.99696 3.26596L6.9764 3.27127L6.96172 3.27524C6.96172 3.27524 6.9485 3.27922 6.94263 3.28187L6.92207 3.28983L6.89124 3.30176L6.84719 3.32032C6.81636 3.33358 6.78699 3.34816 6.75909 3.36407C6.70183 3.39456 6.64897 3.42903 6.59905 3.46615C6.49921 3.54039 6.41405 3.62656 6.34357 3.72069C6.27309 3.81482 6.21436 3.91822 6.17325 4.02958C6.15269 4.08526 6.13654 4.1436 6.1248 4.20325C6.11892 4.23375 6.11599 4.26424 6.11158 4.2934L6.10718 4.37692V4.46045C6.10865 4.49094 6.11011 4.52143 6.11452 4.55192C6.12333 4.6129 6.13508 4.67124 6.15269 4.72824C6.18793 4.84226 6.23932 4.95097 6.3054 5.0504C6.37147 5.15115 6.45369 5.24263 6.55207 5.32615C6.60052 5.36724 6.65338 5.40569 6.71064 5.44149C6.73854 5.45872 6.7679 5.47596 6.80021 5.49186L6.87803 5.53031L6.8839 5.53296L6.92061 5.54622L6.94116 5.55417L6.9485 5.55682L6.98815 5.56743L7.62538 5.73977L7.944 5.82727C8.04531 5.85511 8.17305 5.88826 8.22444 5.90947C8.34631 5.95587 8.46817 6.02746 8.57389 6.11363C8.67961 6.20113 8.77064 6.29791 8.85433 6.39336C8.87636 6.41987 8.89398 6.43578 8.9204 6.46893C8.94683 6.5034 8.97326 6.53654 9.00116 6.56703C9.05695 6.62801 9.32418 7.25773 9.38585 7.29486C9.51065 7.3691 9.74886 7.67534 9.90597 7.61833C10.0352 7.57193 10.258 7.16228 10.2874 7.03899C10.3021 6.97801 9.86419 6.34431 9.85978 6.26874C9.85831 6.23162 9.83955 6.20776 9.83368 6.16799C9.82487 6.12291 9.81018 6.06458 9.7911 6.01288C9.71621 5.79811 9.56351 5.57273 9.35795 5.39376C9.15533 5.21213 8.90425 5.07956 8.66786 4.99471C8.59298 4.9682 8.5181 4.94566 8.44028 4.9271L8.26555 4.88601L7.92491 4.80646L7.29355 4.66063C7.29355 4.66063 7.28327 4.65533 7.2774 4.65135C7.26565 4.64472 7.25391 4.63677 7.24216 4.62749C7.21867 4.60893 7.19517 4.58374 7.17462 4.5559C7.15553 4.52806 7.13938 4.49757 7.13057 4.46973C7.12616 4.45514 7.12323 4.44189 7.12029 4.42995C7.12029 4.42333 7.12029 4.41802 7.11882 4.41272V4.38488V4.35704C7.11882 4.35174 7.11882 4.34511 7.12029 4.3398C7.12323 4.32787 7.12616 4.31329 7.13057 4.30003C7.13938 4.27219 7.15553 4.2417 7.17462 4.21386C7.19371 4.18602 7.2172 4.16216 7.24216 4.14227C7.25391 4.13299 7.26565 4.12371 7.2774 4.11841C7.28327 4.11443 7.28768 4.11178 7.29355 4.10913L8.20976 3.90364L8.45202 3.84928L8.57242 3.82144C8.61941 3.80951 8.68842 3.79493 8.74421 3.77504C8.97914 3.70213 9.1935 3.57884 9.3697 3.4224C9.54589 3.26464 9.68391 3.07373 9.76907 2.86427C9.79109 2.81256 9.80871 2.75688 9.8234 2.70651L9.85423 2.5978L9.91443 2.37905L10.1479 1.54384C10.2066 1.45237 10.3285 1.38873 10.4386 1.39271C10.5017 1.39006 10.559 1.40729 10.6207 1.44043C10.65 1.45634 10.675 1.47623 10.6941 1.49479C10.7029 1.50407 10.7117 1.51467 10.719 1.52395L10.7337 1.54782L10.8629 2.01978L10.9657 2.39496L11.0171 2.58189L11.0421 2.67601L11.0553 2.72374L11.0773 2.79268C11.1977 3.15858 11.4752 3.47941 11.8423 3.67031C11.9348 3.71671 12.0288 3.76046 12.1301 3.79095C12.1785 3.80819 12.2314 3.82012 12.2798 3.83338L12.3841 3.85724L12.7981 3.95269L13.5749 4.13299C13.5749 4.13299 13.5837 4.13829 13.5895 4.14094C13.5998 4.14625 13.6101 4.1542 13.6204 4.16348C13.6424 4.18072 13.663 4.20325 13.6806 4.22844C13.6982 4.25363 13.7114 4.28147 13.7187 4.30666C13.7232 4.31992 13.7246 4.33185 13.7276 4.34246C13.7276 4.34776 13.7276 4.35306 13.729 4.35836V4.38355V4.40874C13.729 4.41405 13.729 4.41935 13.7276 4.42465C13.7246 4.43526 13.7217 4.44719 13.7187 4.46045C13.7099 4.48563 13.6967 4.51215 13.6776 4.53601C13.66 4.55988 13.638 4.58241 13.6174 4.59832C13.6072 4.60628 13.5969 4.61423 13.5866 4.61821C13.5837 4.61953 13.5807 4.62086 13.5778 4.62218L12.6572 4.82767L12.4149 4.88203L12.293 4.90854L12.2123 4.92843C12.1815 4.93638 12.1521 4.94434 12.1227 4.95362C11.8863 5.02653 11.669 5.15115 11.4884 5.30759C11.3093 5.46535 11.1683 5.66023 11.0817 5.87235C11.0582 5.92538 11.0421 5.97973 11.0245 6.03409L10.9936 6.1428L10.9319 6.36154L10.6956 7.19675V7.1994L10.6823 7.21664C10.6735 7.22857 10.6618 7.24183 10.6486 7.25376C10.6236 7.27762 10.5942 7.29751 10.5708 7.30944C10.5546 7.31739 10.515 7.33065 10.4841 7.33463C10.4533 7.33993 10.4254 7.33728 10.4181 7.33463C10.4078 7.33198 10.4283 7.33463 10.4313 7.33463C10.4327 7.33198 10.4225 7.31872 10.4078 7.29618L10.3916 7.26834L10.3755 7.22724C10.349 7.16096 10.3197 7.09732 10.2874 7.03899C10.1596 6.80434 9.97903 6.65055 9.68244 6.72744C9.36089 6.81096 9.32124 7.03236 9.38585 7.29486C9.402 7.35982 9.42402 7.42875 9.45045 7.49769L9.47101 7.5494L9.48129 7.57591L9.48716 7.58917L9.50038 7.61833C9.52974 7.67269 9.55617 7.71246 9.58847 7.75488C9.65161 7.83708 9.72796 7.9153 9.82046 7.98158C9.91003 8.04787 10.026 8.10355 10.1317 8.13404C10.2859 8.17912 10.4357 8.18575 10.5766 8.17249C10.719 8.15791 10.8497 8.12476 10.9833 8.06643C11.114 8.0081 11.2271 7.92988 11.3225 7.83973C11.371 7.79466 11.415 7.7456 11.4547 7.6939C11.4752 7.66739 11.4928 7.64087 11.5119 7.6117C11.5295 7.58386 11.5472 7.5494 11.556 7.53349C11.5604 7.52553 11.5648 7.51625 11.5692 7.50697V7.50299L11.5839 7.46985C11.5868 7.4619 11.5897 7.45262 11.5927 7.44334V7.44069L11.8408 6.56703L11.9025 6.34828L11.9333 6.23957C11.9421 6.21439 11.948 6.1892 11.9597 6.16533C11.9994 6.06856 12.064 5.97973 12.1447 5.90682C12.227 5.83523 12.3253 5.7769 12.434 5.74375C12.4634 5.73315 12.4825 5.72917 12.5221 5.71989L12.6425 5.69205L12.8848 5.63637L13.8524 5.41365H13.8553C13.8656 5.41099 13.8759 5.40834 13.8847 5.40437L13.9023 5.39906H13.9067C13.9155 5.39509 13.9243 5.39111 13.9346 5.38713L13.9639 5.37387L14.0051 5.35531C14.033 5.34338 14.0579 5.3288 14.0843 5.31422C14.1357 5.28505 14.1827 5.25191 14.2268 5.21611C14.3149 5.14585 14.3898 5.06498 14.4514 4.97748C14.5131 4.88998 14.5615 4.79453 14.5953 4.69377L14.5938 4.69245ZM10.3887 7.25376L10.3916 7.25774V7.25376H10.3887Z" fill="#666666"/>
<path d="M14.5938 4.69245L14.452 4.64363L14.4197 4.73738L14.4933 4.80381L14.5938 4.69245ZM14.6423 4.37825L14.4922 4.37597L14.4924 4.38274L14.6423 4.37825ZM14.5909 4.06538L14.4486 4.11306L14.4497 4.11609L14.5909 4.06538ZM14.077 3.45157L14.0013 3.58115L14.0056 3.58345L14.077 3.45157ZM13.9992 3.41047L14.0609 3.27375L13.9992 3.41047ZM13.9581 3.39191L14.0198 3.25509L14.0145 3.25294L13.9581 3.39191ZM13.9287 3.37998L13.9852 3.24101L13.958 3.22998H13.9287V3.37998ZM13.9258 3.37998L13.8484 3.50849L13.8841 3.52998H13.9258V3.37998ZM13.8964 3.36804L13.9507 3.22774L13.9396 3.22441L13.8964 3.36804ZM13.8788 3.36274L13.922 3.21911L13.9009 3.21274H13.8788V3.36274ZM13.8759 3.36274L13.8141 3.49946L13.8436 3.51274H13.8759V3.36274ZM13.848 3.35346L13.8913 3.20945L13.8807 3.20707L13.848 3.35346ZM12.8745 3.13604L12.9072 2.98965L12.9071 2.98964L12.8745 3.13604ZM12.6308 3.08169L12.5973 3.22792L12.5981 3.22809L12.6308 3.08169ZM12.5089 3.05385L12.4707 3.19898L12.4755 3.20008L12.5089 3.05385ZM12.4208 3.02998L12.4718 2.88875L12.4651 2.88666L12.4208 3.02998ZM12.1227 2.86162L12.0212 2.9721L12.0242 2.97468L12.1227 2.86162ZM11.9333 2.59382L12.073 2.53885L12.0705 2.53306L11.9333 2.59382ZM11.9054 2.51427L11.7605 2.55488L11.7647 2.56622L11.9054 2.51427ZM11.8746 2.40424L12.019 2.36377L12.019 2.36377L11.8746 2.40424ZM11.8129 2.18417L11.6685 2.22453L11.6685 2.22464L11.8129 2.18417ZM11.5677 1.30654L11.7123 1.26615L11.7107 1.26128L11.5677 1.30654ZM11.5589 1.27869L11.7022 1.23335L11.6988 1.22448L11.5589 1.27869ZM11.5486 1.25218H11.3986V1.28024L11.4088 1.30639L11.5486 1.25218ZM11.5486 1.24953H11.6986V1.2139L11.6826 1.18208L11.5486 1.24953ZM11.5251 1.20578L11.6536 1.12818L11.6511 1.12438L11.5251 1.20578ZM11.4532 1.09442L11.5793 1.01293L11.5751 1.00704L11.4532 1.09442ZM11.346 0.968474L11.2397 1.07429L11.2416 1.07615L11.346 0.968474ZM11.0847 0.769615L11.1589 0.639271L11.1586 0.639127L11.0847 0.769615ZM10.4342 0.601247V0.751269L10.4368 0.751225L10.4342 0.601247ZM10.095 0.644996L10.1334 0.790012L10.1356 0.789417L10.095 0.644996ZM9.52534 0.971126L9.63178 1.07682L9.63268 1.0759L9.52534 0.971126ZM9.41815 1.09574L9.29747 1.00664L9.29623 1.00837L9.41815 1.09574ZM9.37263 1.16468L9.50192 1.24085L9.50386 1.23735L9.37263 1.16468ZM9.33593 1.22699L9.20632 1.15064L9.20135 1.16075L9.33593 1.22699ZM9.32712 1.24555L9.18997 1.18479L9.18661 1.19238L9.18411 1.2003L9.32712 1.24555ZM9.32418 1.25483L9.46401 1.31014L9.46719 1.30009L9.32418 1.25483ZM9.31684 1.27339L9.17732 1.2182L9.17612 1.22144L9.31684 1.27339ZM9.30803 1.29725L9.16731 1.24531L9.15803 1.27045V1.29725H9.30803ZM9.30803 1.30256L9.4517 1.34567L9.45803 1.32458V1.30256H9.30803ZM9.04668 2.17356L9.1902 2.21718L9.19035 2.21667L9.04668 2.17356ZM8.9806 2.39098L8.83708 2.34737L8.83682 2.34826L8.9806 2.39098ZM8.9483 2.49969L9.09072 2.54701L9.09209 2.54242L8.9483 2.49969ZM8.9204 2.57393L8.78562 2.50759L8.78234 2.51528L8.9204 2.57393ZM8.72953 2.82582L8.82491 2.94162L8.82698 2.93986L8.72953 2.82582ZM8.44028 2.97828L8.39919 2.83386L8.39293 2.83595L8.44028 2.97828ZM8.35512 2.99817L8.38395 3.14543L8.38814 3.14448L8.35512 2.99817ZM8.23325 3.02203L8.20442 2.87482L8.20365 2.87498L8.23325 3.02203ZM7.98951 3.07108L8.0183 3.2183L8.01911 3.21813L7.98951 3.07108ZM7.01311 3.26199L6.98427 3.11451L6.97563 3.11674L7.01311 3.26199ZM6.99696 3.26596L6.96391 3.11958L6.95949 3.12072L6.99696 3.26596ZM6.9764 3.27127L6.93893 3.12601L6.93718 3.12648L6.9764 3.27127ZM6.96172 3.27524L6.92249 3.1304L6.91849 3.13161L6.96172 3.27524ZM6.94263 3.28187L6.99684 3.42197L7.00435 3.41859L6.94263 3.28187ZM6.92207 3.28983L6.97621 3.42972H6.97621L6.92207 3.28983ZM6.89124 3.30176L6.83708 3.16181L6.833 3.16353L6.89124 3.30176ZM6.84719 3.32032L6.78895 3.18208L6.78794 3.18252L6.84719 3.32032ZM6.75909 3.36407L6.82962 3.49652L6.8334 3.49437L6.75909 3.36407ZM6.1248 4.20325L5.97762 4.17428L5.9775 4.17488L6.1248 4.20325ZM6.11158 4.2934L5.96326 4.271L5.96217 4.27822L5.96179 4.2855L6.11158 4.2934ZM6.10718 4.37692L5.95718 4.36901V4.37692H6.10718ZM6.10718 4.46045H5.957L5.95735 4.46766L6.10718 4.46045ZM6.3054 5.0504L6.43083 4.96814L6.43033 4.96738L6.3054 5.0504ZM6.55207 5.32615L6.45499 5.44049L6.45504 5.44054L6.55207 5.32615ZM6.71064 5.44149L6.63113 5.56868L6.6318 5.5691L6.71064 5.44149ZM6.80021 5.49186L6.86665 5.35738L6.86648 5.3573L6.80021 5.49186ZM6.87803 5.53031L6.81154 5.66487L6.81632 5.66703L6.87803 5.53031ZM6.8839 5.53296L6.822 5.67009L6.83294 5.67404L6.8839 5.53296ZM6.92061 5.54622L6.97475 5.40629L6.97156 5.40514L6.92061 5.54622ZM6.94116 5.55417L6.88702 5.6941L6.89021 5.69525L6.94116 5.55417ZM6.9485 5.55682L6.89737 5.69842L6.90974 5.70173L6.9485 5.55682ZM6.98815 5.56743L7.02731 5.42263L7.02691 5.42253L6.98815 5.56743ZM7.62538 5.73977L7.6651 5.59513L7.66454 5.59498L7.62538 5.73977ZM7.944 5.82727L7.98374 5.68263L7.98372 5.68263L7.944 5.82727ZM8.22444 5.90947L8.16719 6.04817L8.17106 6.04965L8.22444 5.90947ZM8.57389 6.11363L8.66953 5.99807L8.66866 5.99736L8.57389 6.11363ZM8.85433 6.39336L8.96976 6.29748L8.96712 6.29447L8.85433 6.39336ZM8.9204 6.46893L9.03946 6.37764L9.03768 6.37541L8.9204 6.46893ZM9.00116 6.56703L8.89049 6.66828L9.00116 6.56703ZM9.90597 7.61833L9.85527 7.47716L9.8548 7.47733L9.90597 7.61833ZM9.85978 6.26874L9.70987 6.27467L9.71004 6.27747L9.85978 6.26874ZM9.83368 6.16799L9.98223 6.14605L9.98089 6.13921L9.83368 6.16799ZM9.7911 6.01288L9.64943 6.06227L9.65038 6.06482L9.7911 6.01288ZM9.35795 5.39376L9.25782 5.50547L9.25945 5.50689L9.35795 5.39376ZM8.66786 4.99471L8.71853 4.85353L8.71793 4.85332L8.66786 4.99471ZM8.44028 4.9271L8.47508 4.78119L8.47462 4.78109L8.44028 4.9271ZM8.26555 4.88601L8.2999 4.73999L8.29966 4.73993L8.26555 4.88601ZM7.92491 4.80646L7.95902 4.66039L7.95867 4.66031L7.92491 4.80646ZM7.29355 4.66063L7.22477 4.79393L7.24147 4.80255L7.25979 4.80678L7.29355 4.66063ZM7.2774 4.65135L7.36179 4.52674L7.35112 4.52072L7.2774 4.65135ZM7.24216 4.62749L7.33515 4.50979L7.24216 4.62749ZM7.17462 4.5559L7.05083 4.64077L7.05395 4.645L7.17462 4.5559ZM7.13057 4.46973L6.98696 4.5131L6.98756 4.51498L7.13057 4.46973ZM7.12029 4.42995H6.97029V4.44814L6.97464 4.4658L7.12029 4.42995ZM7.11882 4.41272H6.96882V4.4331L6.97426 4.45275L7.11882 4.41272ZM7.12029 4.3398L7.26491 4.37985L7.26594 4.37565L7.12029 4.3398ZM7.13057 4.30003L7.27293 4.34733L7.27358 4.34529L7.13057 4.30003ZM7.24216 4.14227L7.14917 4.02457L7.14869 4.02495L7.24216 4.14227ZM7.2774 4.11841L7.33912 4.25512L7.35085 4.24983L7.36151 4.24261L7.2774 4.11841ZM7.29355 4.10913L7.26072 3.96276L7.24578 3.96611L7.23183 3.97241L7.29355 4.10913ZM8.20976 3.90364L8.24258 4.05L8.24259 4.05L8.20976 3.90364ZM8.45202 3.84928L8.48486 3.99565L8.48582 3.99543L8.45202 3.84928ZM8.57242 3.82144L8.60622 3.96762L8.60934 3.96683L8.57242 3.82144ZM8.74421 3.77504L8.69971 3.63166L8.69385 3.63375L8.74421 3.77504ZM9.3697 3.4224L9.46929 3.53457L9.46976 3.53415L9.3697 3.4224ZM9.76907 2.86427L9.63105 2.80547L9.63012 2.80777L9.76907 2.86427ZM9.8234 2.70651L9.96741 2.74848L9.96771 2.74744L9.8234 2.70651ZM9.85423 2.5978L9.99854 2.63873L9.99885 2.6376L9.85423 2.5978ZM9.91443 2.37905L9.76997 2.33867L9.76981 2.33925L9.91443 2.37905ZM10.1479 1.54384L10.0217 1.4628L10.0095 1.48176L10.0034 1.50346L10.1479 1.54384ZM10.4386 1.39271L10.4332 1.54307L10.4449 1.54258L10.4386 1.39271ZM10.6207 1.44043L10.6921 1.30854L10.6917 1.30831L10.6207 1.44043ZM10.6941 1.49479L10.803 1.39143L10.7987 1.38725L10.6941 1.49479ZM10.719 1.52395L10.8468 1.44535L10.8422 1.43782L10.8367 1.43089L10.719 1.52395ZM10.7337 1.54782L10.8784 1.50821L10.8727 1.4875L10.8615 1.46921L10.7337 1.54782ZM10.8629 2.01978L10.7183 2.05939L10.7183 2.05941L10.8629 2.01978ZM10.9657 2.39496L10.8211 2.43459L10.8211 2.43472L10.9657 2.39496ZM11.0171 2.58189L11.1621 2.54344L11.1617 2.54212L11.0171 2.58189ZM11.0421 2.67601L10.8971 2.71446L10.8975 2.71604L11.0421 2.67601ZM11.0553 2.72374L10.9106 2.7638L10.9124 2.76939L11.0553 2.72374ZM11.0773 2.79268L10.9344 2.83833L10.9348 2.83956L11.0773 2.79268ZM11.8423 3.67031L11.7731 3.8034L11.775 3.80439L11.8423 3.67031ZM12.1301 3.79095L12.1804 3.64945L12.1733 3.64732L12.1301 3.79095ZM12.2798 3.83338L12.2402 3.97819L12.2464 3.97959L12.2798 3.83338ZM12.3841 3.85724L12.4178 3.71107L12.4175 3.71102L12.3841 3.85724ZM12.7981 3.95269L12.8321 3.80658L12.8318 3.80652L12.7981 3.95269ZM13.5749 4.13299L13.6522 4.00447L13.6319 3.99224L13.6088 3.98688L13.5749 4.13299ZM13.5895 4.14094L13.6584 4.00746L13.6513 4.00423L13.5895 4.14094ZM13.6204 4.16348L13.5196 4.27509L13.5279 4.28161L13.6204 4.16348ZM13.7187 4.30666L13.5746 4.34866L13.5764 4.35396L13.7187 4.30666ZM13.7276 4.34246H13.8776V4.32207L13.8721 4.30243L13.7276 4.34246ZM13.729 4.35836H13.879V4.33798L13.8736 4.31834L13.729 4.35836ZM13.7276 4.42465L13.583 4.38462L13.7276 4.42465ZM13.7187 4.46045L13.8603 4.50997L13.8633 4.50157L13.8652 4.49288L13.7187 4.46045ZM13.6776 4.53601L13.5604 4.44225L13.557 4.44691L13.6776 4.53601ZM13.6174 4.59832L13.7092 4.71695L13.6174 4.59832ZM13.5866 4.61821L13.5324 4.47811L13.5249 4.48149L13.5866 4.61821ZM13.5778 4.62218L13.6105 4.76858L13.6255 4.76523L13.6395 4.7589L13.5778 4.62218ZM12.6572 4.82767L12.6245 4.68127L12.6243 4.68131L12.6572 4.82767ZM12.4149 4.88203L12.4468 5.0286L12.4478 5.02839L12.4149 4.88203ZM12.293 4.90854L12.2611 4.76192L12.2572 4.76289L12.293 4.90854ZM12.2123 4.92843L12.1764 4.78277L12.1748 4.78318L12.2123 4.92843ZM12.1227 4.95362L12.1669 5.09696L12.1679 5.09664L12.1227 4.95362ZM11.4884 5.30759L11.3902 5.1942L11.3893 5.19502L11.4884 5.30759ZM11.0817 5.87235L11.2189 5.93313L11.2206 5.92906L11.0817 5.87235ZM11.0245 6.03409L10.8817 5.9878L10.8801 5.99316L11.0245 6.03409ZM10.9936 6.1428L10.8493 6.10187L10.8492 6.1021L10.9936 6.1428ZM10.9319 6.36154L11.0763 6.40239L11.0763 6.40224L10.9319 6.36154ZM10.6956 7.19675L10.5512 7.1559L10.5456 7.17593V7.19675H10.6956ZM10.6956 7.1994L10.8146 7.29067L10.8456 7.25029V7.1994H10.6956ZM10.6823 7.21664L10.5633 7.12535L10.5617 7.12754L10.6823 7.21664ZM10.6486 7.25376L10.548 7.14238L10.5449 7.14534L10.6486 7.25376ZM10.5708 7.30944L10.637 7.44401L10.6387 7.44318L10.5708 7.30944ZM10.4841 7.33463L10.4649 7.18573L10.4587 7.1868L10.4841 7.33463ZM10.4181 7.33463L10.4692 7.19292L10.4555 7.18938L10.4181 7.33463ZM10.4313 7.33463V7.48463H10.5197L10.5625 7.40729L10.4313 7.33463ZM10.4078 7.29618L10.2779 7.37155L10.2821 7.37806L10.4078 7.29618ZM10.3916 7.26834L10.252 7.32321L10.2562 7.33378L10.2619 7.34361L10.3916 7.26834ZM10.3755 7.22724L10.5151 7.17238L10.5148 7.17169L10.3755 7.22724ZM9.68244 6.72744L9.6448 6.58224L9.64473 6.58226L9.68244 6.72744ZM9.45045 7.49769L9.31038 7.55139L9.31107 7.55311L9.45045 7.49769ZM9.47101 7.5494L9.61088 7.49518L9.6104 7.49398L9.47101 7.5494ZM9.48129 7.57591L9.34127 7.63018L9.34414 7.63667L9.48129 7.57591ZM9.48716 7.58917L9.35001 7.64993L9.35053 7.65107L9.48716 7.58917ZM9.50038 7.61833L9.36341 7.68039L9.3684 7.68963L9.50038 7.61833ZM9.58847 7.75488L9.46913 7.84576L9.46951 7.84626L9.58847 7.75488ZM9.82046 7.98158L9.9097 7.861L9.90783 7.85966L9.82046 7.98158ZM10.1317 8.13404L10.1738 7.99007L10.1733 7.98992L10.1317 8.13404ZM10.5766 8.17249L10.5907 8.32183L10.5919 8.32171L10.5766 8.17249ZM10.9833 8.06643L11.0434 8.20391L11.0445 8.2034L10.9833 8.06643ZM11.3225 7.83973L11.2203 7.7299L11.2195 7.73069L11.3225 7.83973ZM11.4547 7.6939L11.3361 7.60199L11.3356 7.60263L11.4547 7.6939ZM11.5119 7.6117L11.6374 7.69385L11.6387 7.69192L11.5119 7.6117ZM11.5692 7.50697L11.7047 7.57129L11.7192 7.54076V7.50697H11.5692ZM11.5692 7.50299L11.432 7.44224L11.4192 7.47126V7.50299H11.5692ZM11.5839 7.46985L11.7213 7.53073L11.7246 7.5218L11.5839 7.46985ZM11.5927 7.44334L11.7357 7.48859L11.7427 7.4665V7.44334H11.5927ZM11.5927 7.44069L11.4484 7.3997L11.4427 7.4198V7.44069H11.5927ZM11.8408 6.56703L11.9851 6.60801L11.9852 6.60773L11.8408 6.56703ZM11.9025 6.34828L11.7582 6.30735L11.7581 6.30758L11.9025 6.34828ZM11.9333 6.23957L11.7915 6.18996L11.789 6.19864L11.9333 6.23957ZM11.9597 6.16533L12.0946 6.23173L12.0986 6.22219L11.9597 6.16533ZM12.1447 5.90682L12.0462 5.79367L12.0442 5.79548L12.1447 5.90682ZM12.434 5.74375L12.4778 5.88741L12.485 5.88483L12.434 5.74375ZM12.5221 5.71989L12.4883 5.57374L12.4879 5.57384L12.5221 5.71989ZM12.6425 5.69205L12.6089 5.54586L12.6087 5.5459L12.6425 5.69205ZM12.8848 5.63637L12.9184 5.78256L12.9184 5.78255L12.8848 5.63637ZM13.8524 5.41365V5.26365H13.8353L13.8187 5.26747L13.8524 5.41365ZM13.8553 5.41365V5.56365H13.8743L13.8928 5.55889L13.8553 5.41365ZM13.8847 5.40437L13.8414 5.26073L13.832 5.26358L13.8229 5.26765L13.8847 5.40437ZM13.9023 5.39906V5.24906H13.8802L13.8591 5.25543L13.9023 5.39906ZM13.9067 5.39906V5.54906H13.939L13.9684 5.53578L13.9067 5.39906ZM13.9346 5.38713L13.9888 5.52723L13.9963 5.52384L13.9346 5.38713ZM13.9639 5.37387L13.9022 5.23716L13.9022 5.23716L13.9639 5.37387ZM14.0051 5.35531L13.9461 5.21737L13.9433 5.2186L14.0051 5.35531ZM14.0843 5.31422L14.1568 5.44556L14.1584 5.44467L14.0843 5.31422ZM14.2268 5.21611L14.1332 5.09884L14.1322 5.0997L14.2268 5.21611ZM14.5953 4.69377L14.7375 4.74144L14.7688 4.64826L14.6958 4.58241L14.5953 4.69377ZM10.3887 7.25376V7.10376H10.0915L10.268 7.34286L10.3887 7.25376ZM10.3916 7.25774L10.271 7.34684L10.5416 7.7134V7.25774H10.3916ZM10.3916 7.25376H10.5416V7.10376H10.3916V7.25376ZM14.5938 4.69245L14.7357 4.74127C14.7753 4.62621 14.7957 4.49016 14.7922 4.37376L14.6423 4.37825L14.4924 4.38274C14.4948 4.46255 14.4799 4.56248 14.452 4.64363L14.5938 4.69245ZM14.6423 4.37825L14.7923 4.38053C14.794 4.26694 14.7738 4.13089 14.7321 4.01467L14.5909 4.06538L14.4497 4.11609C14.4785 4.19607 14.4935 4.296 14.4923 4.37598L14.6423 4.37825ZM14.5909 4.06538L14.7331 4.01771C14.6941 3.90134 14.637 3.7943 14.5682 3.69658L14.4455 3.783L14.3229 3.86941C14.3774 3.94669 14.4201 4.02791 14.4487 4.11305L14.5909 4.06538ZM14.4455 3.783L14.5682 3.69658C14.4976 3.59646 14.4109 3.50637 14.3119 3.42889L14.2194 3.54702L14.127 3.66515C14.2042 3.72554 14.2702 3.79454 14.3229 3.86941L14.4455 3.783ZM14.2194 3.54702L14.3119 3.42889C14.264 3.39145 14.2098 3.35291 14.1485 3.31968L14.077 3.45157L14.0056 3.58345C14.047 3.6059 14.0867 3.63365 14.127 3.66515L14.2194 3.54702ZM14.077 3.45157L14.1527 3.32205C14.126 3.30645 14.0943 3.28885 14.0609 3.27375L13.9992 3.41047L13.9375 3.54718C13.9569 3.55595 13.9781 3.56752 14.0013 3.58108L14.077 3.45157ZM13.9992 3.41047L14.0609 3.27375L14.0198 3.25519L13.9581 3.39191L13.8964 3.52862L13.9375 3.54718L13.9992 3.41047ZM13.9581 3.39191L14.0145 3.25294L13.9852 3.24101L13.9287 3.37998L13.8722 3.51894L13.9016 3.53087L13.9581 3.39191ZM13.9287 3.37998V3.22998H13.9258V3.37998V3.52998H13.9287V3.37998ZM13.9258 3.37998L14.0031 3.25146C13.9867 3.24154 13.9715 3.23571 13.9634 3.23274C13.9595 3.23128 13.9553 3.22983 13.9536 3.22925C13.9525 3.22887 13.9518 3.22862 13.9513 3.22842C13.9507 3.22823 13.9505 3.22815 13.9505 3.22815L13.8964 3.36804L13.8423 3.50794C13.8473 3.50987 13.8518 3.51146 13.8546 3.51243C13.858 3.51363 13.8588 3.51392 13.8599 3.51429C13.8617 3.51496 13.8561 3.51311 13.8484 3.50849L13.9258 3.37998ZM13.8964 3.36804L13.9396 3.22441L13.922 3.21911L13.8788 3.36274L13.8356 3.50638L13.8532 3.51168L13.8964 3.36804ZM13.8788 3.36274V3.21274H13.8759V3.36274V3.51274H13.8788V3.36274ZM13.8759 3.36274L13.9376 3.22603C13.9169 3.21669 13.8913 3.20985 13.8912 3.20983L13.848 3.35346L13.8047 3.4971C13.8077 3.49799 13.811 3.49894 13.8127 3.49945C13.8149 3.50009 13.8162 3.50047 13.8172 3.50077C13.8195 3.50149 13.8177 3.50107 13.8141 3.49946L13.8759 3.36274ZM13.848 3.35346L13.8807 3.20707L12.9072 2.98965L12.8745 3.13604L12.8418 3.28244L13.8153 3.49985L13.848 3.35346ZM12.8745 3.13604L12.9071 2.98964L12.6634 2.93528L12.6308 3.08169L12.5981 3.22809L12.8418 3.28245L12.8745 3.13604ZM12.6308 3.08169L12.6642 2.93545L12.5423 2.90761L12.5089 3.05385L12.4755 3.20008L12.5973 3.22792L12.6308 3.08169ZM12.5089 3.05385L12.5471 2.90879C12.4978 2.89582 12.4931 2.89661 12.4717 2.8889L12.4208 3.02998L12.3698 3.17106C12.4072 3.18457 12.4495 3.19331 12.4707 3.1989L12.5089 3.05385ZM12.4208 3.02998L12.4651 2.88666C12.3755 2.859 12.2923 2.81047 12.2213 2.74855L12.1227 2.86162L12.0242 2.97468C12.1234 3.06124 12.2429 3.13203 12.3765 3.1733L12.4208 3.02998ZM12.1227 2.86162L12.2242 2.75117C12.1556 2.68815 12.1028 2.61491 12.0729 2.5389L11.9333 2.59382L11.7937 2.64874C11.8431 2.77424 11.9254 2.88395 12.0212 2.97206L12.1227 2.86162ZM11.9333 2.59382L12.0705 2.53306C12.0679 2.52724 12.0658 2.52138 12.0622 2.51024C12.0588 2.49975 12.0535 2.48217 12.0461 2.46233L11.9054 2.51427L11.7647 2.56622C11.7691 2.5782 11.7718 2.58713 11.7765 2.60183C11.781 2.61588 11.787 2.63388 11.7962 2.65458L11.9333 2.59382ZM11.9054 2.51427L12.0499 2.4738L12.019 2.36377L11.8746 2.40424L11.7301 2.44471L11.761 2.55475L11.9054 2.51427ZM11.8746 2.40424L12.019 2.36377L11.9574 2.14369L11.8129 2.18417L11.6685 2.22464L11.7302 2.44471L11.8746 2.40424ZM11.8129 2.18417L11.9574 2.14381L11.7122 1.26617L11.5677 1.30654L11.4232 1.3469L11.6685 2.22453L11.8129 2.18417ZM11.5677 1.30654L11.7107 1.26128C11.7093 1.25664 11.7078 1.25201 11.7063 1.24736C11.7049 1.24273 11.7034 1.23808 11.7019 1.23344L11.5589 1.27869L11.4159 1.32395C11.4174 1.32859 11.4188 1.33322 11.4203 1.33786C11.4218 1.3425 11.4232 1.34715 11.4247 1.35179L11.5677 1.30654ZM11.5589 1.27869L11.6988 1.22448L11.6885 1.19797L11.5486 1.25218L11.4088 1.30639L11.419 1.33291L11.5589 1.27869ZM11.5486 1.25218H11.6986V1.24953H11.5486H11.3986V1.25218H11.5486ZM11.5486 1.24953L11.6826 1.18208C11.6756 1.16819 11.6658 1.14852 11.6535 1.12822L11.5251 1.20578L11.3967 1.28334C11.4021 1.29221 11.407 1.3017 11.4146 1.31698L11.5486 1.24953ZM11.5251 1.20578L11.6511 1.12438L11.5792 1.01302L11.4532 1.09442L11.3272 1.17582L11.3991 1.28718L11.5251 1.20578ZM11.4532 1.09442L11.5751 1.00704C11.5387 0.956261 11.4978 0.906687 11.4504 0.860794L11.346 0.968474L11.2416 1.07615C11.2735 1.10715 11.3031 1.14243 11.3313 1.18179L11.4532 1.09442ZM11.346 0.968474L11.4523 0.86268C11.3645 0.774338 11.2654 0.699943 11.1589 0.639272L11.0847 0.769615L11.0104 0.899958C11.0948 0.947996 11.1719 1.00617 11.2397 1.07427L11.346 0.968474ZM11.0847 0.769615L11.1586 0.639127C10.9477 0.519525 10.6909 0.446796 10.4316 0.451269L10.4342 0.601247L10.4368 0.751225C10.6385 0.747744 10.8428 0.804936 11.0107 0.900102L11.0847 0.769615ZM10.4342 0.601247V0.451247C10.3179 0.451247 10.179 0.46563 10.0545 0.500575L10.095 0.644996L10.1356 0.789417C10.2283 0.763379 10.3391 0.751247 10.4342 0.751247V0.601247ZM10.095 0.644996L10.0566 0.499996C9.93333 0.532652 9.81709 0.581497 9.71099 0.641923L9.78522 0.772266L9.85946 0.902609C9.94423 0.854325 10.0365 0.815673 10.1334 0.789996L10.095 0.644996ZM9.78522 0.772266L9.71099 0.641923C9.60454 0.702548 9.50503 0.777188 9.418 0.866349L9.52534 0.971126L9.63268 1.0759C9.69834 1.00863 9.77503 0.950694 9.85946 0.902609L9.78522 0.772266ZM9.52534 0.971126L9.4189 0.865435C9.37589 0.908749 9.33437 0.956686 9.29748 1.00665L9.41815 1.09574L9.53882 1.18484C9.56654 1.1473 9.59843 1.11039 9.63178 1.07682L9.52534 0.971126ZM9.41815 1.09574L9.29623 1.00837C9.28099 1.02963 9.25957 1.05923 9.24141 1.09202L9.37263 1.16468L9.50386 1.23735C9.51213 1.22241 9.52301 1.20694 9.54008 1.18312L9.41815 1.09574ZM9.37263 1.16468L9.24339 1.08855L9.20669 1.15085L9.33593 1.22699L9.46517 1.30313L9.50188 1.24082L9.37263 1.16468ZM9.33593 1.22699C9.20135 1.16075 9.20135 1.16075 9.20134 1.16075C9.20134 1.16075 9.20134 1.16076 9.20134 1.16076C9.20134 1.16076 9.20134 1.16076 9.20134 1.16076C9.20134 1.16077 9.20133 1.16078 9.20133 1.16078C9.20132 1.1608 9.20132 1.16081 9.20131 1.16083C9.20129 1.16087 9.20126 1.16092 9.20123 1.16098C9.20117 1.16111 9.20109 1.16127 9.20099 1.16148C9.20079 1.16189 9.2005 1.16247 9.20016 1.16317C9.19948 1.16457 9.19853 1.16651 9.19748 1.16871C9.19561 1.17258 9.1925 1.1791 9.18997 1.18479L9.32712 1.24555L9.46426 1.30631C9.46426 1.30631 9.46429 1.30624 9.46436 1.30609C9.46443 1.30595 9.46451 1.30575 9.46463 1.3055C9.46486 1.305 9.46515 1.30438 9.4655 1.30364C9.46619 1.30215 9.46699 1.30049 9.46777 1.29886C9.46855 1.29725 9.46926 1.2958 9.46977 1.29475C9.47002 1.29423 9.47022 1.29382 9.47035 1.29355C9.47042 1.29342 9.47046 1.29333 9.47049 1.29327C9.4705 1.29324 9.47051 1.29323 9.47052 1.29322C9.47052 1.29322 9.47052 1.29322 9.47052 1.29322C9.47052 1.29322 9.47051 1.29322 9.47051 1.29322C9.47051 1.29322 9.47051 1.29323 9.47051 1.29323C9.47051 1.29323 9.47051 1.29323 9.47051 1.29323C9.47051 1.29323 9.47051 1.29323 9.33593 1.22699ZM9.32712 1.24555L9.18411 1.2003L9.18117 1.20958L9.32418 1.25483L9.46719 1.30009L9.47013 1.29081L9.32712 1.24555ZM9.32418 1.25483L9.1847 1.19966L9.17736 1.21822L9.31684 1.27339L9.45633 1.32856L9.46367 1.31L9.32418 1.25483ZM9.31684 1.27339L9.17612 1.22144C9.17466 1.22542 9.17319 1.22939 9.17172 1.23337C9.17025 1.23735 9.16878 1.24133 9.16731 1.24531L9.30803 1.29725L9.44875 1.3492C9.45022 1.34523 9.45168 1.34125 9.45315 1.33727C9.45462 1.3333 9.45609 1.32932 9.45756 1.32534L9.31684 1.27339ZM9.30803 1.29725H9.15803V1.30256H9.30803H9.45803V1.29725H9.30803ZM9.30803 1.30256L9.16436 1.25945L8.903 2.13045L9.04668 2.17356L9.19035 2.21667L9.4517 1.34567L9.30803 1.30256ZM9.04668 2.17356L8.90316 2.12995L8.83708 2.34737L8.9806 2.39098L9.12412 2.4346L9.1902 2.21718L9.04668 2.17356ZM8.9806 2.39098L8.83682 2.34826L8.80451 2.45697L8.9483 2.49969L9.09209 2.54242L9.12439 2.43371L8.9806 2.39098ZM8.9483 2.49969L8.80595 2.4524C8.7956 2.48356 8.7919 2.49534 8.78582 2.50769L8.9204 2.57393L9.05498 2.64018C9.0724 2.6048 9.08339 2.56885 9.09065 2.54699L8.9483 2.49969ZM8.9204 2.57393L8.78234 2.51528C8.75198 2.58677 8.70024 2.65354 8.63208 2.71179L8.72953 2.82582L8.82698 2.93986C8.92326 2.85757 9.00661 2.75466 9.05846 2.63258L8.9204 2.57393ZM8.72953 2.82582L8.63416 2.71004C8.56573 2.76641 8.48569 2.80941 8.39923 2.834L8.44028 2.97828L8.48132 3.12256C8.60923 3.08617 8.72595 3.02311 8.8249 2.9416L8.72953 2.82582ZM8.44028 2.97828L8.39293 2.83595C8.37403 2.84224 8.37319 2.84031 8.32209 2.85185L8.35512 2.99817L8.38814 3.14448C8.40752 3.14011 8.45073 3.13288 8.48762 3.12061L8.44028 2.97828ZM8.35512 2.99817L8.32629 2.85096L8.20442 2.87482L8.23325 3.02203L8.26207 3.16923L8.38394 3.14537L8.35512 2.99817ZM8.23325 3.02203L8.20365 2.87498L7.95992 2.92403L7.98951 3.07108L8.01911 3.21813L8.26284 3.16908L8.23325 3.02203ZM7.98951 3.07108L7.96073 2.92387L6.98432 3.11477L7.01311 3.26199L7.04189 3.4092L8.0183 3.21829L7.98951 3.07108ZM7.01311 3.26199C6.97563 3.11674 6.97564 3.11674 6.97564 3.11674C6.97564 3.11674 6.97564 3.11674 6.97564 3.11674C6.97564 3.11674 6.97564 3.11674 6.97564 3.11674C6.97564 3.11674 6.97565 3.11674 6.97565 3.11674C6.97565 3.11674 6.97565 3.11674 6.97564 3.11674C6.97564 3.11674 6.97562 3.11674 6.9756 3.11675C6.97555 3.11676 6.97547 3.11678 6.97535 3.11681C6.97512 3.11687 6.97477 3.11696 6.97432 3.11708C6.97341 3.11731 6.97215 3.11763 6.97074 3.11798C6.96752 3.11879 6.96498 3.11941 6.96393 3.11964L6.99696 3.26596L7.02998 3.41228C7.0348 3.41119 7.04034 3.40982 7.04373 3.40897C7.04562 3.40849 7.0473 3.40807 7.0485 3.40776C7.0491 3.40761 7.0496 3.40748 7.04995 3.40739C7.05013 3.40735 7.05028 3.40731 7.05038 3.40728C7.05043 3.40727 7.05048 3.40726 7.05051 3.40725C7.05053 3.40724 7.05054 3.40724 7.05055 3.40724C7.05056 3.40724 7.05056 3.40723 7.05057 3.40723C7.05057 3.40723 7.05057 3.40723 7.05057 3.40723C7.05058 3.40723 7.05058 3.40723 7.05058 3.40723C7.05058 3.40723 7.05058 3.40723 7.01311 3.26199ZM6.99696 3.26596L6.95949 3.12072L6.93893 3.12602L6.9764 3.27127L7.01387 3.41651L7.03443 3.41121L6.99696 3.26596ZM6.9764 3.27127L6.93718 3.12648L6.9225 3.13046L6.96172 3.27524L7.00093 3.42003L7.01562 3.41605L6.9764 3.27127ZM6.96172 3.27524C6.91849 3.13161 6.91848 3.13161 6.91848 3.13161C6.91848 3.13161 6.91847 3.13161 6.91847 3.13161C6.91846 3.13162 6.91846 3.13162 6.91845 3.13162C6.91844 3.13162 6.91842 3.13163 6.91841 3.13163C6.91838 3.13164 6.91834 3.13165 6.91831 3.13166C6.91823 3.13168 6.91815 3.13171 6.91805 3.13174C6.91785 3.1318 6.9176 3.13188 6.9173 3.13197C6.9167 3.13215 6.91591 3.13239 6.91497 3.13269C6.91311 3.13327 6.91052 3.13409 6.90758 3.13505C6.90408 3.1362 6.89212 3.1401 6.88091 3.14516L6.94263 3.28187L7.00435 3.41859C6.99901 3.42099 6.9966 3.42158 7.00117 3.42008C7.00227 3.41972 7.00335 3.41938 7.00415 3.41912C7.00454 3.419 7.00483 3.41892 7.00498 3.41887C7.00505 3.41885 7.00509 3.41884 7.00509 3.41884C7.00509 3.41884 7.00507 3.41884 7.00505 3.41885C7.00504 3.41885 7.00503 3.41886 7.00501 3.41886C7.005 3.41886 7.00499 3.41887 7.00498 3.41887C7.00498 3.41887 7.00497 3.41887 7.00497 3.41887C7.00496 3.41887 7.00496 3.41888 7.00496 3.41888C7.00495 3.41888 7.00495 3.41888 6.96172 3.27524ZM6.94263 3.28187L6.8885 3.14198L6.86794 3.14994L6.92207 3.28983L6.97621 3.42972L6.99676 3.42176L6.94263 3.28187ZM6.92207 3.28983L6.86794 3.14994L6.83711 3.16187L6.89124 3.30176L6.94537 3.44165L6.97621 3.42972L6.92207 3.28983ZM6.89124 3.30176L6.833 3.16353L6.78895 3.18209L6.84719 3.32032L6.90544 3.45855L6.94948 3.43999L6.89124 3.30176ZM6.84719 3.32032L6.78794 3.18252C6.75218 3.19789 6.71777 3.21495 6.68479 3.23377L6.75909 3.36407L6.8334 3.49437C6.85621 3.48136 6.88053 3.46926 6.90644 3.45812L6.84719 3.32032ZM6.75909 3.36407L6.68859 3.23167C6.62369 3.26623 6.5645 3.30492 6.50955 3.34578L6.59905 3.46615L6.68856 3.58652C6.73345 3.55314 6.77997 3.52289 6.8296 3.49647L6.75909 3.36407ZM6.59905 3.46615L6.50955 3.34578C6.39781 3.42886 6.30243 3.52537 6.2235 3.63078L6.34357 3.72069L6.46364 3.81059C6.52567 3.72775 6.6006 3.65192 6.68856 3.58652L6.59905 3.46615ZM6.34357 3.72069L6.2235 3.63078C6.14546 3.73501 6.07926 3.85105 6.03253 3.97763L6.17325 4.02958L6.31397 4.08153C6.34946 3.98539 6.40073 3.89462 6.46364 3.81059L6.34357 3.72069ZM6.17325 4.02958L6.03253 3.97763C6.00905 4.04124 5.99081 4.10729 5.97762 4.17428L6.1248 4.20325L6.27197 4.23223C6.28227 4.1799 6.29634 4.12929 6.31397 4.08153L6.17325 4.02958ZM6.1248 4.20325L5.9775 4.17488C5.97113 4.20797 5.96585 4.25386 5.96326 4.271L6.11158 4.2934L6.2599 4.3158C6.26612 4.27461 6.26672 4.25952 6.27209 4.23162L6.1248 4.20325ZM6.11158 4.2934L5.96179 4.2855L5.95739 4.36902L6.10718 4.37692L6.25697 4.38482L6.26137 4.3013L6.11158 4.2934ZM6.10718 4.37692H5.95718V4.46045H6.10718H6.25718V4.37692H6.10718ZM6.10718 4.46045L5.95735 4.46766C5.95876 4.497 5.96046 4.53463 5.96606 4.57337L6.11452 4.55192L6.26298 4.53047C6.25976 4.50823 6.25853 4.48487 6.257 4.45323L6.10718 4.46045ZM6.11452 4.55192L5.96606 4.57337C5.97562 4.63953 5.9888 4.70594 6.00938 4.77254L6.15269 4.72824L6.29601 4.68395C6.28135 4.63654 6.27104 4.58628 6.26298 4.53047L6.11452 4.55192ZM6.15269 4.72824L6.00938 4.77254C6.04882 4.90012 6.10636 5.02189 6.18046 5.13341L6.3054 5.0504L6.43033 4.96738C6.37229 4.88004 6.32705 4.78439 6.29601 4.68395L6.15269 4.72824ZM6.3054 5.0504L6.17996 5.13265C6.25463 5.24652 6.34674 5.34859 6.45499 5.44049L6.55207 5.32615L6.64915 5.2118C6.56065 5.13666 6.48831 5.05578 6.43083 4.96814L6.3054 5.0504ZM6.55207 5.32615L6.45504 5.44054C6.50935 5.4866 6.56811 5.52929 6.63113 5.56868L6.71064 5.44149L6.79015 5.31429C6.73865 5.2821 6.69169 5.24788 6.64909 5.21175L6.55207 5.32615ZM6.71064 5.44149L6.6318 5.5691C6.6616 5.5875 6.69553 5.60751 6.73393 5.62643L6.80021 5.49186L6.86648 5.3573C6.84028 5.3444 6.81548 5.32994 6.78948 5.31387L6.71064 5.44149ZM6.80021 5.49186L6.73377 5.62635L6.81158 5.66479L6.87803 5.53031L6.94447 5.39583L6.86665 5.35738L6.80021 5.49186ZM6.87803 5.53031L6.81632 5.66703L6.82219 5.66968L6.8839 5.53296L6.94561 5.39624L6.93973 5.39359L6.87803 5.53031ZM6.8839 5.53296L6.83294 5.67404L6.86965 5.6873L6.92061 5.54622L6.97156 5.40514L6.93485 5.39188L6.8839 5.53296ZM6.92061 5.54622L6.86647 5.68611L6.88703 5.69406L6.94116 5.55417L6.99529 5.41428L6.97474 5.40633L6.92061 5.54622ZM6.94116 5.55417L6.89021 5.69525L6.89755 5.69791L6.9485 5.55682L6.99945 5.41574L6.99211 5.41309L6.94116 5.55417ZM6.9485 5.55682L6.90974 5.70173L6.94938 5.71233L6.98815 5.56743L7.02691 5.42253L6.98727 5.41192L6.9485 5.55682ZM6.98815 5.56743L6.94898 5.71223L7.58622 5.88457L7.62538 5.73977L7.66454 5.59498L7.02731 5.42263L6.98815 5.56743ZM7.62538 5.73977L7.58566 5.88442L7.90427 5.97192L7.944 5.82727L7.98372 5.68263L7.6651 5.59513L7.62538 5.73977ZM7.944 5.82727L7.90425 5.97191C8.01477 6.00228 8.12715 6.03159 8.16721 6.04812L8.22444 5.90947L8.28167 5.77081C8.21895 5.74493 8.07585 5.70795 7.98374 5.68263L7.944 5.82727ZM8.22444 5.90947L8.17106 6.04965C8.27692 6.08995 8.38495 6.15314 8.47912 6.2299L8.57389 6.11363L8.66866 5.99736C8.5514 5.90177 8.4157 5.82178 8.27781 5.76929L8.22444 5.90947ZM8.57389 6.11363L8.47825 6.22918C8.575 6.30926 8.65998 6.39922 8.74155 6.49225L8.85433 6.39336L8.96712 6.29447C8.8813 6.19659 8.78421 6.09299 8.66953 5.99808L8.57389 6.11363ZM8.85433 6.39336L8.73895 6.4892C8.75283 6.50592 8.76575 6.51975 8.77505 6.52991C8.78458 6.54033 8.79299 6.54973 8.80313 6.56245L8.9204 6.46893L9.03768 6.37541C9.02139 6.35497 9.00778 6.33986 8.99639 6.3274C8.98476 6.3147 8.97786 6.30732 8.96972 6.29751L8.85433 6.39336ZM8.9204 6.46893L8.80137 6.5602C8.82866 6.59579 8.85819 6.63298 8.89049 6.66828L9.00116 6.56703L9.11183 6.46578C9.08833 6.4401 9.06501 6.411 9.03944 6.37766L8.9204 6.46893ZM9.00116 6.56703L8.89049 6.66828C8.88343 6.66057 8.88563 6.66101 8.89986 6.68678C8.91105 6.70705 8.92517 6.73451 8.94179 6.76797C8.97506 6.83498 9.01478 6.91882 9.05609 7.00482C9.09675 7.0895 9.13888 7.17614 9.17507 7.24435C9.19304 7.27822 9.21092 7.31018 9.22742 7.33606C9.2356 7.34889 9.24494 7.36262 9.25507 7.37521C9.26252 7.38448 9.28082 7.40671 9.30849 7.42337L9.38585 7.29486L9.46321 7.16634C9.48317 7.17836 9.49216 7.19132 9.48889 7.18726C9.4883 7.18652 9.48553 7.18285 9.48039 7.17479C9.47025 7.15889 9.4567 7.13509 9.44008 7.10375C9.40707 7.04154 9.36735 6.95997 9.32652 6.87496C9.28633 6.79127 9.24493 6.70392 9.21048 6.63455C9.19323 6.59981 9.17684 6.56778 9.1625 6.5418C9.15119 6.52132 9.13283 6.48873 9.11183 6.46578L9.00116 6.56703ZM9.38585 7.29486L9.30916 7.42377C9.32534 7.43339 9.3527 7.45589 9.3971 7.49603C9.43668 7.53179 9.48736 7.57918 9.53797 7.62121C9.5883 7.66301 9.64831 7.70794 9.71203 7.73797C9.77418 7.76726 9.86343 7.79334 9.95713 7.75934L9.90597 7.61833L9.8548 7.47733C9.86994 7.47184 9.87051 7.48101 9.83991 7.46659C9.81088 7.45291 9.77408 7.42733 9.72962 7.39041C9.68544 7.35372 9.64334 7.3142 9.59825 7.27345C9.55798 7.23706 9.50876 7.19344 9.46254 7.16594L9.38585 7.29486ZM9.90597 7.61833L9.95666 7.75951C10.0299 7.73322 10.0901 7.67025 10.1306 7.62228C10.1767 7.56761 10.222 7.50132 10.2621 7.4357C10.3025 7.3696 10.3396 7.30091 10.3688 7.23978C10.3967 7.18166 10.422 7.12095 10.4333 7.07374L10.2874 7.03899L10.1415 7.00424C10.138 7.01868 10.1245 7.05541 10.0983 7.11022C10.0735 7.16203 10.0413 7.22177 10.0061 7.27929C9.97067 7.3373 9.9342 7.38983 9.90128 7.42887C9.8627 7.47461 9.84668 7.48025 9.85527 7.47716L9.90597 7.61833ZM10.2874 7.03899L10.4332 7.0741C10.4444 7.02751 10.4313 6.98667 10.4287 6.97804C10.4236 6.9608 10.4165 6.94392 10.41 6.92951C10.3967 6.90011 10.3782 6.86551 10.358 6.82979C10.3173 6.75766 10.2622 6.66787 10.2084 6.58062C10.1538 6.49198 10.1003 6.40579 10.0601 6.33678C10.0398 6.30215 10.0243 6.27421 10.0141 6.25384C10.009 6.24354 10.0063 6.23736 10.0052 6.23453C10.0024 6.22758 10.0083 6.23948 10.0095 6.26001L9.85978 6.26874L9.71004 6.27747C9.71178 6.30746 9.72161 6.33315 9.72578 6.34382C9.73156 6.35861 9.73871 6.37385 9.74592 6.38823C9.76044 6.41721 9.77974 6.45165 9.80097 6.48802C9.84357 6.56099 9.89951 6.6512 9.95305 6.73805C10.0074 6.82629 10.0594 6.91108 10.0968 6.97729C10.1156 7.01073 10.129 7.03623 10.1368 7.05346C10.1408 7.06236 10.1417 7.06542 10.1414 7.0642C10.1412 7.06356 10.1398 7.05889 10.1388 7.05142C10.138 7.0456 10.1359 7.02736 10.1415 7.00388L10.2874 7.03899ZM9.85978 6.26874L10.0097 6.26281C10.008 6.21957 9.99571 6.18575 9.98951 6.16854C9.98254 6.14919 9.98238 6.14822 9.98207 6.14607L9.83368 6.16799L9.68528 6.1899C9.69084 6.22752 9.703 6.25837 9.70725 6.27017C9.71227 6.28413 9.71014 6.2808 9.7099 6.27467L9.85978 6.26874ZM9.83368 6.16799L9.98089 6.13921C9.971 6.08861 9.95441 6.02213 9.93181 5.96093L9.7911 6.01288L9.65038 6.06482C9.66596 6.10702 9.67873 6.15721 9.68646 6.19676L9.83368 6.16799ZM9.7911 6.01288L9.93273 5.96349C9.84849 5.72188 9.67985 5.47513 9.45645 5.28063L9.35795 5.39376L9.25945 5.50689C9.44718 5.67033 9.58394 5.87434 9.64946 6.06226L9.7911 6.01288ZM9.35795 5.39376L9.45807 5.28206C9.23767 5.0845 8.96837 4.94321 8.71853 4.85353L8.66786 4.99471L8.61719 5.1359C8.84013 5.21592 9.07299 5.33977 9.25783 5.50545L9.35795 5.39376ZM8.66786 4.99471L8.71793 4.85332C8.63851 4.8252 8.55853 4.8011 8.47508 4.78119L8.44028 4.9271L8.40548 5.07301C8.47766 5.09023 8.54744 5.1112 8.61779 5.13611L8.66786 4.99471ZM8.44028 4.9271L8.47462 4.78109L8.2999 4.73999L8.26555 4.88601L8.23121 5.03202L8.40593 5.07312L8.44028 4.9271ZM8.26555 4.88601L8.29966 4.73993L7.95902 4.66039L7.92491 4.80646L7.8908 4.95253L8.23144 5.03208L8.26555 4.88601ZM7.92491 4.80646L7.95867 4.66031L7.32731 4.51448L7.29355 4.66063L7.25979 4.80678L7.89115 4.95261L7.92491 4.80646ZM7.29355 4.66063C7.36233 4.52733 7.36233 4.52733 7.36234 4.52733C7.36234 4.52733 7.36234 4.52734 7.36235 4.52734C7.36235 4.52734 7.36236 4.52734 7.36236 4.52735C7.36238 4.52735 7.36239 4.52736 7.3624 4.52736C7.36242 4.52738 7.36244 4.52739 7.36245 4.52739C7.36249 4.52741 7.36251 4.52742 7.36253 4.52743C7.36256 4.52745 7.36256 4.52745 7.36254 4.52744C7.36249 4.52741 7.36233 4.52733 7.36209 4.5272C7.3616 4.52694 7.36089 4.52656 7.36014 4.52615C7.35743 4.52465 7.35844 4.52507 7.36151 4.52715L7.2774 4.65135L7.19329 4.77555C7.20223 4.7816 7.21131 4.78667 7.21521 4.78881C7.21776 4.79022 7.21999 4.79142 7.22161 4.79228C7.22243 4.79271 7.22312 4.79307 7.22365 4.79335C7.22392 4.79349 7.22415 4.79361 7.22434 4.79371C7.22443 4.79376 7.22451 4.7938 7.22458 4.79384C7.22462 4.79386 7.22465 4.79387 7.22468 4.79389C7.2247 4.7939 7.22471 4.7939 7.22473 4.79391C7.22474 4.79392 7.22474 4.79392 7.22475 4.79392C7.22475 4.79392 7.22476 4.79393 7.22476 4.79393C7.22476 4.79393 7.22477 4.79393 7.29355 4.66063ZM7.2774 4.65135L7.35112 4.52072C7.34681 4.51828 7.34147 4.51478 7.33515 4.50979L7.24216 4.62749L7.14917 4.74519C7.16634 4.75876 7.1845 4.77116 7.20368 4.78199L7.2774 4.65135ZM7.24216 4.62749L7.33515 4.50979C7.32425 4.50118 7.30973 4.48636 7.29529 4.4668L7.17462 4.5559L7.05395 4.645C7.08062 4.68112 7.11308 4.71668 7.14917 4.74519L7.24216 4.62749ZM7.17462 4.5559L7.29833 4.47108C7.2848 4.45134 7.27666 4.43422 7.27358 4.42447L7.13057 4.46973L6.98756 4.51498C7.0021 4.56092 7.02626 4.60477 7.0509 4.64072L7.17462 4.5559ZM7.13057 4.46973L7.27416 4.42635C7.27125 4.41672 7.26985 4.40999 7.26594 4.39411L7.12029 4.42995L6.97464 4.4658C6.9766 4.47378 6.98108 4.49357 6.98698 4.5131L7.13057 4.46973ZM7.12029 4.42995H7.27029C7.27029 4.42756 7.27126 4.40113 7.26338 4.37269L7.11882 4.41272L6.97426 4.45275C6.97149 4.44274 6.97069 4.43468 6.97043 4.43059C6.97036 4.42959 6.97033 4.42881 6.97031 4.4283C6.97029 4.4278 6.97029 4.4275 6.97029 4.42748C6.97029 4.42747 6.97029 4.42763 6.97029 4.42807C6.97029 4.42854 6.97029 4.42907 6.97029 4.42995H7.12029ZM7.11882 4.41272H7.26882V4.38488H7.11882H6.96882V4.41272H7.11882ZM7.11882 4.38488H7.26882V4.35704H7.11882H6.96882V4.38488H7.11882ZM7.11882 4.35704H7.26882C7.26882 4.35375 7.26887 4.35529 7.26872 4.35763C7.26863 4.35908 7.26843 4.3617 7.26794 4.36513C7.26747 4.3685 7.26658 4.3736 7.26485 4.37983L7.12029 4.3398L6.97573 4.29978C6.97105 4.31666 6.96978 4.33126 6.96929 4.33921C6.96878 4.34752 6.96882 4.35502 6.96882 4.35704H7.11882ZM7.12029 4.3398L7.26594 4.37565C7.26694 4.3716 7.26789 4.36754 7.26861 4.36443C7.2694 4.36103 7.27001 4.35841 7.27063 4.35585C7.27191 4.35061 7.27262 4.34823 7.27292 4.34733L7.13057 4.30003L6.98822 4.25274C6.98132 4.27352 6.9754 4.30086 6.97464 4.30396L7.12029 4.3398ZM7.13057 4.30003L7.27358 4.34529C7.27666 4.33554 7.2848 4.31841 7.29833 4.29868L7.17462 4.21386L7.0509 4.12904C7.02626 4.16499 7.00209 4.20884 6.98756 4.25478L7.13057 4.30003ZM7.17462 4.21386L7.29833 4.29868C7.30767 4.28506 7.3203 4.2718 7.33563 4.25959L7.24216 4.14227L7.14869 4.02495C7.11409 4.05251 7.07974 4.08698 7.0509 4.12904L7.17462 4.21386ZM7.24216 4.14227L7.33515 4.25997C7.33822 4.25754 7.34038 4.25584 7.3424 4.25429C7.34435 4.25279 7.34554 4.25192 7.34624 4.25142C7.34694 4.25093 7.34671 4.25112 7.34572 4.25172C7.34475 4.2523 7.34249 4.2536 7.33912 4.25512L7.2774 4.11841L7.21568 3.98169C7.18375 3.99611 7.15681 4.01853 7.14917 4.02457L7.24216 4.14227ZM7.2774 4.11841L7.36151 4.24261C7.36295 4.24163 7.36236 4.24208 7.36078 4.243C7.35887 4.24411 7.3569 4.24511 7.35527 4.24584L7.29355 4.10913L7.23183 3.97241C7.21545 3.97981 7.20329 3.98743 7.19329 3.99421L7.2774 4.11841ZM7.29355 4.10913L7.32638 4.25549L8.24258 4.05L8.20976 3.90364L8.17693 3.75728L7.26072 3.96276L7.29355 4.10913ZM8.20976 3.90364L8.24259 4.05L8.48486 3.99565L8.45202 3.84928L8.41919 3.70292L8.17692 3.75728L8.20976 3.90364ZM8.45202 3.84928L8.48582 3.99543L8.60622 3.96759L8.57242 3.82144L8.53863 3.6753L8.41823 3.70314L8.45202 3.84928ZM8.57242 3.82144L8.60934 3.96683C8.64699 3.95727 8.72994 3.93937 8.79457 3.91634L8.74421 3.77504L8.69385 3.63375C8.64689 3.65049 8.59183 3.66176 8.5355 3.67606L8.57242 3.82144ZM8.74421 3.77504L8.78867 3.9183C9.04438 3.83894 9.27746 3.70489 9.46929 3.53457L9.3697 3.4224L9.27011 3.31023C9.10955 3.45278 8.91389 3.56532 8.69975 3.63179L8.74421 3.77504ZM9.3697 3.4224L9.46976 3.53415C9.66155 3.36242 9.81359 3.15304 9.90803 2.92076L9.76907 2.86427L9.63012 2.80777C9.55423 2.99442 9.43024 3.16685 9.26964 3.31065L9.3697 3.4224ZM9.76907 2.86427L9.90707 2.92305C9.93263 2.86305 9.95222 2.80058 9.96741 2.74848L9.8234 2.70651L9.67939 2.66453C9.66521 2.71318 9.64956 2.76208 9.63107 2.80548L9.76907 2.86427ZM9.8234 2.70651L9.96771 2.74744L9.99854 2.63873L9.85423 2.5978L9.70992 2.55686L9.67909 2.66558L9.8234 2.70651ZM9.85423 2.5978L9.99885 2.6376L10.0591 2.41885L9.91443 2.37905L9.76981 2.33925L9.70961 2.558L9.85423 2.5978ZM9.91443 2.37905L10.0589 2.41943L10.2924 1.58422L10.1479 1.54384L10.0034 1.50346L9.76997 2.33867L9.91443 2.37905ZM10.1479 1.54384L10.2741 1.62488C10.304 1.57839 10.3756 1.54053 10.4332 1.54261L10.4386 1.39271L10.444 1.24281C10.2814 1.23693 10.1093 1.32634 10.0217 1.4628L10.1479 1.54384ZM10.4386 1.39271L10.4449 1.54258C10.4736 1.54137 10.504 1.54801 10.5497 1.57256L10.6207 1.44043L10.6917 1.30831C10.614 1.26657 10.5299 1.23874 10.4323 1.24284L10.4386 1.39271ZM10.6207 1.44043L10.5492 1.57232C10.5644 1.58052 10.5784 1.59152 10.5895 1.60233L10.6941 1.49479L10.7987 1.38725C10.7716 1.36094 10.7357 1.33216 10.6921 1.30854L10.6207 1.44043ZM10.6941 1.49479L10.5853 1.59806C10.5897 1.60274 10.5954 1.60945 10.6014 1.61702L10.719 1.52395L10.8367 1.43089C10.828 1.41989 10.8161 1.4054 10.8029 1.39152L10.6941 1.49479ZM10.719 1.52395L10.5913 1.60256L10.606 1.62642L10.7337 1.54782L10.8615 1.46921L10.8468 1.44535L10.719 1.52395ZM10.7337 1.54782L10.5891 1.58743L10.7183 2.05939L10.8629 2.01978L11.0076 1.98017L10.8784 1.50821L10.7337 1.54782ZM10.8629 2.01978L10.7183 2.05941L10.8211 2.43459L10.9657 2.39496L11.1104 2.35533L11.0076 1.98015L10.8629 2.01978ZM10.9657 2.39496L10.8211 2.43472L10.8725 2.62165L11.0171 2.58189L11.1617 2.54212L11.1104 2.3552L10.9657 2.39496ZM11.0171 2.58189L10.8721 2.62033L10.8971 2.71446L11.0421 2.67601L11.1871 2.63757L11.1621 2.54344L11.0171 2.58189ZM11.0421 2.67601L10.8975 2.71604L10.9107 2.76377L11.0553 2.72374L11.1998 2.68371L11.1866 2.63599L11.0421 2.67601ZM11.0553 2.72374L10.9124 2.76939L10.9344 2.83833L11.0773 2.79268L11.2202 2.74703L11.1982 2.67809L11.0553 2.72374ZM11.0773 2.79268L10.9348 2.83956C11.0682 3.24495 11.3735 3.59556 11.7731 3.80339L11.8423 3.67031L11.9115 3.53723C11.577 3.36325 11.3272 3.07221 11.2198 2.74579L11.0773 2.79268ZM11.8423 3.67031L11.775 3.80439C11.8694 3.85174 11.9727 3.90025 12.0868 3.93459L12.1301 3.79095L12.1733 3.64732C12.0848 3.62067 12.0002 3.58169 11.9095 3.53623L11.8423 3.67031ZM12.1301 3.79095L12.0798 3.93228C12.1352 3.95199 12.201 3.96732 12.2402 3.97806L12.2798 3.83338L12.3194 3.68869C12.2618 3.67292 12.2218 3.66438 12.1803 3.64963L12.1301 3.79095ZM12.2798 3.83338L12.2464 3.97959L12.3506 4.00346L12.3841 3.85724L12.4175 3.71102L12.3133 3.68716L12.2798 3.83338ZM12.3841 3.85724L12.3504 4.00341L12.7644 4.09886L12.7981 3.95269L12.8318 3.80652L12.4178 3.71107L12.3841 3.85724ZM12.7981 3.95269L12.7642 4.09881L13.5409 4.27911L13.5749 4.13299L13.6088 3.98688L12.8321 3.80658L12.7981 3.95269ZM13.5749 4.13299C13.4975 4.26151 13.4975 4.26151 13.4975 4.26151C13.4975 4.26151 13.4975 4.26152 13.4975 4.26152C13.4975 4.26152 13.4975 4.26153 13.4975 4.26153C13.4976 4.26154 13.4976 4.26155 13.4976 4.26156C13.4976 4.26157 13.4976 4.26159 13.4977 4.26161C13.4977 4.26165 13.4978 4.2617 13.4979 4.26175C13.4981 4.26186 13.4983 4.26198 13.4985 4.26213C13.499 4.26242 13.4997 4.26279 13.5004 4.26323C13.5019 4.26409 13.5039 4.26527 13.5063 4.26661C13.5099 4.26864 13.5184 4.27341 13.5278 4.27766L13.5895 4.14094L13.6513 4.00423C13.6548 4.00583 13.656 4.00663 13.6537 4.00534C13.6531 4.00502 13.6526 4.00471 13.6522 4.00449C13.6521 4.00439 13.652 4.00433 13.652 4.00432C13.6519 4.00432 13.652 4.00432 13.652 4.00435C13.652 4.00436 13.652 4.00438 13.6521 4.0044C13.6521 4.00441 13.6521 4.00442 13.6521 4.00443C13.6522 4.00444 13.6522 4.00445 13.6522 4.00445C13.6522 4.00446 13.6522 4.00446 13.6522 4.00446C13.6522 4.00447 13.6522 4.00447 13.6522 4.00447C13.6522 4.00447 13.6522 4.00447 13.5749 4.13299ZM13.5895 4.14094L13.5208 4.27425C13.5171 4.27234 13.5153 4.27096 13.5156 4.2712C13.5159 4.2714 13.5172 4.27244 13.5198 4.27482L13.6204 4.16348L13.7209 4.05215C13.7066 4.0392 13.6852 4.02152 13.6583 4.00764L13.5895 4.14094ZM13.6204 4.16348L13.5279 4.28161C13.5362 4.28812 13.5469 4.29911 13.5577 4.31442L13.6806 4.22844L13.8035 4.14247C13.779 4.1074 13.7485 4.07331 13.7128 4.04535L13.6204 4.16348ZM13.6806 4.22844L13.5577 4.31442C13.5664 4.3269 13.5722 4.33998 13.5747 4.34863L13.7187 4.30666L13.8628 4.26469C13.8506 4.22297 13.83 4.18036 13.8035 4.14247L13.6806 4.22844ZM13.7187 4.30666L13.5764 4.35396C13.576 4.35274 13.5761 4.35269 13.5771 4.35713C13.5773 4.35828 13.5775 4.35937 13.5779 4.36102C13.5782 4.36251 13.5786 4.36443 13.5791 4.36646C13.5799 4.37046 13.5812 4.37613 13.583 4.38248L13.7276 4.34246L13.8721 4.30243C13.8724 4.30348 13.8724 4.30368 13.8721 4.30204C13.8714 4.29907 13.8715 4.29935 13.8703 4.29398C13.8687 4.28648 13.8659 4.27384 13.8611 4.25936L13.7187 4.30666ZM13.7276 4.34246H13.5776C13.5776 4.34476 13.5767 4.37035 13.5845 4.39839L13.729 4.35836L13.8736 4.31834C13.8763 4.32809 13.8771 4.33592 13.8774 4.34005C13.8776 4.34343 13.8776 4.34596 13.8776 4.34246H13.7276ZM13.729 4.35836H13.579V4.38355H13.729H13.879V4.35836H13.729ZM13.729 4.38355H13.579V4.40874H13.729H13.879V4.38355H13.729ZM13.729 4.40874H13.579C13.579 4.41225 13.579 4.40972 13.5792 4.40634C13.5795 4.40221 13.5803 4.39437 13.583 4.38462L13.7276 4.42465L13.8721 4.46468C13.8799 4.43663 13.879 4.41105 13.879 4.40874H13.729ZM13.7276 4.42465L13.583 4.38462C13.5792 4.39824 13.5757 4.41277 13.5723 4.42801L13.7187 4.46045L13.8652 4.49288C13.8677 4.48161 13.87 4.47227 13.8721 4.46468L13.7276 4.42465ZM13.7187 4.46045L13.5772 4.41092C13.5728 4.42343 13.567 4.43418 13.5605 4.44232L13.6776 4.53601L13.7948 4.62971C13.8264 4.59012 13.8471 4.54784 13.8603 4.50997L13.7187 4.46045ZM13.6776 4.53601L13.557 4.44691C13.547 4.46037 13.5346 4.47278 13.5256 4.4797L13.6174 4.59832L13.7092 4.71695C13.7414 4.69204 13.773 4.65938 13.7983 4.62511L13.6776 4.53601ZM13.6174 4.59832L13.5256 4.4797C13.5229 4.48181 13.5212 4.48309 13.5197 4.48421C13.5183 4.48527 13.5178 4.48561 13.5179 4.48555C13.518 4.4855 13.5192 4.48466 13.5214 4.48346C13.5235 4.48226 13.5273 4.48031 13.5325 4.47832L13.5866 4.61821L13.6407 4.7581C13.6756 4.74462 13.7041 4.72092 13.7092 4.71695L13.6174 4.59832ZM13.5866 4.61821L13.5249 4.48149C13.5234 4.48216 13.5219 4.48282 13.5205 4.48348C13.519 4.48415 13.5175 4.48481 13.5161 4.48547L13.5778 4.62218L13.6395 4.7589C13.641 4.75824 13.6424 4.75757 13.6439 4.75691C13.6454 4.75625 13.6469 4.75558 13.6483 4.75492L13.5866 4.61821ZM13.5778 4.62218L13.5451 4.47579L12.6245 4.68128L12.6572 4.82767L12.6899 4.97407L13.6105 4.76858L13.5778 4.62218ZM12.6572 4.82767L12.6243 4.68131L12.3821 4.73567L12.4149 4.88203L12.4478 5.02839L12.69 4.97403L12.6572 4.82767ZM12.4149 4.88203L12.383 4.73546L12.2612 4.76197L12.293 4.90854L12.3249 5.05511L12.4468 5.0286L12.4149 4.88203ZM12.293 4.90854L12.2572 4.76289L12.1764 4.78278L12.2123 4.92843L12.2482 5.07408L12.3289 5.05419L12.293 4.90854ZM12.2123 4.92843L12.1748 4.78318C12.143 4.79138 12.1107 4.80011 12.0775 4.81059L12.1227 4.95362L12.1679 5.09664C12.1935 5.08856 12.2199 5.08139 12.2498 5.07367L12.2123 4.92843ZM12.1227 4.95362L12.0785 4.81028C11.8212 4.88965 11.5857 5.02489 11.3902 5.19421L11.4884 5.30759L11.5866 5.42097C11.7524 5.27741 11.9515 5.16341 12.1669 5.09695L12.1227 4.95362ZM11.4884 5.30759L11.3893 5.19502C11.1938 5.3672 11.0387 5.58088 10.9428 5.81563L11.0817 5.87235L11.2206 5.92906C11.298 5.73958 11.4248 5.5635 11.5876 5.42015L11.4884 5.30759ZM11.0817 5.87235L10.9446 5.81159C10.917 5.87375 10.8978 5.93836 10.8818 5.98783L11.0245 6.03409L11.1671 6.08034C11.1863 6.0211 11.1994 5.97701 11.2189 5.9331L11.0817 5.87235ZM11.0245 6.03409L10.8801 5.99316L10.8493 6.10187L10.9936 6.1428L11.1379 6.18373L11.1688 6.07502L11.0245 6.03409ZM10.9936 6.1428L10.8492 6.1021L10.7876 6.32084L10.9319 6.36154L11.0763 6.40224L11.138 6.1835L10.9936 6.1428ZM10.9319 6.36154L10.7876 6.32069L10.5512 7.1559L10.6956 7.19675L10.8399 7.2376L11.0763 6.40239L10.9319 6.36154ZM10.6956 7.19675H10.5456V7.1994H10.6956H10.8456V7.19675H10.6956ZM10.6956 7.1994L10.5765 7.10813L10.5633 7.12537L10.6823 7.21664L10.8014 7.30791L10.8146 7.29067L10.6956 7.1994ZM10.6823 7.21664L10.5617 7.12754C10.5586 7.13164 10.5536 7.13741 10.548 7.14243L10.6486 7.25376L10.7491 7.36509C10.77 7.34625 10.7884 7.3255 10.803 7.30574L10.6823 7.21664ZM10.6486 7.25376L10.5449 7.14534C10.5384 7.15153 10.5307 7.1578 10.5227 7.16348C10.5145 7.16921 10.5075 7.17333 10.5028 7.1757L10.5708 7.30944L10.6387 7.44318C10.6748 7.42482 10.7163 7.39651 10.7522 7.36218L10.6486 7.25376ZM10.5708 7.30944L10.5045 7.17487C10.5065 7.17389 10.506 7.17426 10.5021 7.1757C10.4988 7.17696 10.4943 7.17848 10.4893 7.18003C10.4781 7.18342 10.4692 7.18531 10.4649 7.18586L10.4841 7.33463L10.5033 7.48339C10.551 7.47724 10.6065 7.45902 10.637 7.444L10.5708 7.30944ZM10.4841 7.33463L10.4587 7.1868C10.4543 7.18755 10.4497 7.18776 10.4465 7.18767C10.445 7.18763 10.445 7.18755 10.4465 7.18775C10.4473 7.18785 10.4493 7.18813 10.4521 7.18872C10.4536 7.18903 10.4557 7.18949 10.4583 7.19017C10.4607 7.19082 10.4644 7.1919 10.469 7.19355L10.4181 7.33463L10.3671 7.47571C10.3948 7.48571 10.4241 7.48716 10.438 7.48755C10.4583 7.48812 10.4831 7.48701 10.5095 7.48246L10.4841 7.33463ZM10.4181 7.33463L10.4555 7.18938C10.4561 7.18954 10.4579 7.19 10.4603 7.19073C10.4618 7.19119 10.4679 7.19304 10.4755 7.19636C10.479 7.19789 10.4874 7.20166 10.4972 7.20804C10.5008 7.21038 10.5335 7.23036 10.5523 7.27277C10.5642 7.29954 10.5709 7.33673 10.5588 7.37698C10.5474 7.41473 10.5244 7.4384 10.5087 7.45087C10.4816 7.47249 10.4543 7.47845 10.4498 7.47951C10.434 7.48323 10.4211 7.48337 10.42 7.4834C10.416 7.48351 10.413 7.48341 10.4118 7.48337C10.4103 7.48332 10.4093 7.48326 10.4088 7.48323C10.4083 7.4832 10.408 7.48318 10.408 7.48317C10.408 7.48317 10.4083 7.4832 10.4092 7.48328C10.4102 7.48338 10.4108 7.48344 10.4123 7.48358C10.4134 7.48369 10.4153 7.48386 10.4172 7.48402C10.4182 7.4841 10.4197 7.48422 10.4214 7.48432C10.4226 7.4844 10.4265 7.48463 10.4313 7.48463V7.33463V7.18463C10.4396 7.18463 10.4475 7.18557 10.4407 7.18493C10.4395 7.18481 10.4351 7.18438 10.4314 7.18409C10.4296 7.18395 10.4261 7.18369 10.4221 7.18355C10.4201 7.18348 10.4165 7.18339 10.412 7.18351C10.4103 7.18355 10.397 7.18372 10.381 7.1875C10.3763 7.1886 10.3489 7.1946 10.3217 7.21626C10.3061 7.22875 10.283 7.25245 10.2716 7.29022C10.2594 7.3305 10.2662 7.36771 10.2781 7.39452C10.297 7.43698 10.3297 7.45703 10.3335 7.45944C10.3434 7.4659 10.3519 7.46975 10.3556 7.47137C10.3684 7.47693 10.38 7.47972 10.3806 7.47987L10.4181 7.33463ZM10.4313 7.33463L10.5625 7.40729C10.5781 7.37912 10.5813 7.35236 10.5814 7.33509C10.5815 7.31788 10.5787 7.30412 10.5766 7.2959C10.5725 7.28003 10.5667 7.26815 10.5644 7.26345C10.5592 7.25312 10.5534 7.24424 10.5512 7.24083C10.5482 7.23638 10.5447 7.23117 10.5422 7.22742C10.5393 7.22314 10.5364 7.21889 10.5335 7.2143L10.4078 7.29618L10.2821 7.37806C10.2864 7.38474 10.2904 7.3906 10.2935 7.39523C10.297 7.40038 10.2987 7.40288 10.3 7.40489C10.302 7.40795 10.2994 7.40429 10.2962 7.3979C10.2948 7.39516 10.2897 7.38493 10.286 7.37038C10.284 7.36282 10.2813 7.34964 10.2814 7.33293C10.2815 7.31615 10.2846 7.28981 10.3 7.26196L10.4313 7.33463ZM10.4078 7.29618L10.5375 7.22091L10.5214 7.19307L10.3916 7.26834L10.2619 7.34361L10.278 7.37145L10.4078 7.29618ZM10.3916 7.26834L10.5312 7.21348L10.5151 7.17238L10.3755 7.22724L10.2359 7.28211L10.252 7.32321L10.3916 7.26834ZM10.3755 7.22724L10.5148 7.17169C10.4865 7.10075 10.4545 7.03122 10.4186 6.96632L10.2874 7.03899L10.1562 7.11166C10.1848 7.16342 10.2116 7.22117 10.2361 7.2828L10.3755 7.22724ZM10.2874 7.03899L10.4191 6.96727C10.3489 6.83824 10.2556 6.7149 10.1247 6.63733C9.98827 6.55652 9.8272 6.53496 9.6448 6.58224L9.68244 6.72744L9.72009 6.87264C9.83428 6.84304 9.91181 6.85992 9.97178 6.89544C10.0372 6.93421 10.0981 7.00508 10.1556 7.11071L10.2874 7.03899ZM9.68244 6.72744L9.64473 6.58226C9.45237 6.63222 9.31644 6.73252 9.25135 6.88522C9.19035 7.02831 9.20505 7.18792 9.2402 7.3307L9.38585 7.29486L9.5315 7.25901C9.50204 7.1393 9.50426 7.05696 9.52732 7.00285C9.5463 6.95835 9.59096 6.90618 9.72015 6.87263L9.68244 6.72744ZM9.38585 7.29486L9.24028 7.33105C9.25808 7.40264 9.28205 7.47744 9.31039 7.55139L9.45045 7.49769L9.59051 7.444C9.566 7.38007 9.54592 7.31699 9.53142 7.25866L9.38585 7.29486ZM9.45045 7.49769L9.31107 7.55311L9.33162 7.60481L9.47101 7.5494L9.6104 7.49398L9.58984 7.44228L9.45045 7.49769ZM9.47101 7.5494L9.33115 7.60361L9.34143 7.63012L9.48129 7.57591L9.62115 7.5217L9.61087 7.49518L9.47101 7.5494ZM9.48129 7.57591L9.34414 7.63667L9.35002 7.64993L9.48716 7.58917L9.62431 7.52841L9.61843 7.51515L9.48129 7.57591ZM9.48716 7.58917L9.35053 7.65107L9.36375 7.68024L9.50038 7.61833L9.63701 7.55643L9.62379 7.52726L9.48716 7.58917ZM9.50038 7.61833L9.3684 7.68963C9.40174 7.75135 9.43249 7.79763 9.46913 7.84575L9.58847 7.75488L9.70781 7.66401C9.67985 7.62729 9.65774 7.59403 9.63235 7.54704L9.50038 7.61833ZM9.58847 7.75488L9.46951 7.84626C9.54021 7.9383 9.62687 8.02739 9.73309 8.10351L9.82046 7.98158L9.90783 7.85966C9.82905 7.8032 9.763 7.73586 9.70743 7.66351L9.58847 7.75488ZM9.82046 7.98158L9.73123 8.10215C9.83606 8.17974 9.96841 8.24305 10.0902 8.27817L10.1317 8.13404L10.1733 7.98992C10.0836 7.96405 9.98399 7.916 9.90969 7.86101L9.82046 7.98158ZM10.1317 8.13404L10.0896 8.27802C10.2657 8.32948 10.435 8.33647 10.5907 8.32183L10.5766 8.17249L10.5626 8.02315C10.4363 8.03502 10.3061 8.02876 10.1738 7.99007L10.1317 8.13404ZM10.5766 8.17249L10.5919 8.32171C10.7491 8.30562 10.8949 8.26871 11.0434 8.2039L10.9833 8.06643L10.9233 7.92896C10.8045 7.98082 10.689 8.0102 10.5613 8.02327L10.5766 8.17249ZM10.9833 8.06643L11.0445 8.2034C11.1915 8.13779 11.3185 8.04984 11.4255 7.94877L11.3225 7.83973L11.2195 7.73069C11.1356 7.80992 11.0366 7.87841 10.9222 7.92946L10.9833 8.06643ZM11.3225 7.83973L11.4247 7.94956C11.4797 7.89841 11.5293 7.84308 11.5737 7.78517L11.4547 7.6939L11.3356 7.60263C11.3007 7.64813 11.2623 7.6909 11.2203 7.72991L11.3225 7.83973ZM11.4547 7.6939L11.5732 7.78581C11.5978 7.75408 11.6183 7.72307 11.6374 7.69384L11.5119 7.6117L11.3864 7.52956C11.3674 7.55867 11.3526 7.58069 11.3361 7.60199L11.4547 7.6939ZM11.5119 7.6117L11.6387 7.69192C11.6594 7.65921 11.6822 7.61511 11.6872 7.60615L11.556 7.53349L11.4247 7.46082C11.4219 7.46589 11.4186 7.47209 11.4157 7.47761C11.4125 7.48354 11.4092 7.4897 11.4057 7.49611C11.3985 7.50924 11.3914 7.52157 11.3852 7.53149L11.5119 7.6117ZM11.556 7.53349L11.6872 7.60615C11.6943 7.59329 11.7008 7.57949 11.7047 7.57129L11.5692 7.50697L11.4337 7.44265C11.4288 7.45301 11.4264 7.45777 11.4247 7.46082L11.556 7.53349ZM11.5692 7.50697H11.7192V7.50299H11.5692H11.4192V7.50697H11.5692ZM11.5692 7.50299L11.7063 7.56375L11.721 7.53061L11.5839 7.46985L11.4467 7.4091L11.432 7.44224L11.5692 7.50299ZM11.5839 7.46985L11.7246 7.5218C11.729 7.50987 11.733 7.49696 11.7357 7.48859L11.5927 7.44334L11.4497 7.39808C11.4464 7.40827 11.4446 7.41393 11.4431 7.4179L11.5839 7.46985ZM11.5927 7.44334H11.7427V7.44069H11.5927H11.4427V7.44334H11.5927ZM11.5927 7.44069L11.737 7.48167L11.9851 6.60801L11.8408 6.56703L11.6965 6.52605L11.4484 7.3997L11.5927 7.44069ZM11.8408 6.56703L11.9852 6.60773L12.0469 6.38899L11.9025 6.34828L11.7581 6.30758L11.6964 6.52633L11.8408 6.56703ZM11.9025 6.34828L12.0468 6.38921L12.0776 6.28051L11.9333 6.23957L11.789 6.19864L11.7582 6.30735L11.9025 6.34828ZM11.9333 6.23957L12.0749 6.2891C12.0909 6.24327 12.0876 6.24532 12.0943 6.23158L11.9597 6.16533L11.8252 6.09909C11.8084 6.13308 11.7933 6.1855 11.7917 6.19005L11.9333 6.23957ZM11.9597 6.16533L12.0986 6.22219C12.1289 6.14817 12.1796 6.07749 12.2453 6.01815L12.1447 5.90682L12.0442 5.79548C11.9484 5.88198 11.8699 5.98895 11.8209 6.10847L11.9597 6.16533ZM12.1447 5.90682L12.2432 6.01995C12.3116 5.96045 12.3917 5.91348 12.4778 5.88723L12.434 5.74375L12.3902 5.60028C12.259 5.64031 12.1424 5.71001 12.0463 5.79369L12.1447 5.90682ZM12.434 5.74375L12.485 5.88483C12.5043 5.87785 12.5137 5.87591 12.5563 5.86594L12.5221 5.71989L12.4879 5.57384C12.4512 5.58243 12.4225 5.58844 12.383 5.60267L12.434 5.74375ZM12.5221 5.71989L12.5559 5.86603L12.6763 5.83819L12.6425 5.69205L12.6087 5.5459L12.4883 5.57374L12.5221 5.71989ZM12.6425 5.69205L12.6761 5.83824L12.9184 5.78256L12.8848 5.63637L12.8512 5.49018L12.6089 5.54586L12.6425 5.69205ZM12.8848 5.63637L12.9184 5.78255L13.886 5.55982L13.8524 5.41365L13.8187 5.26747L12.8511 5.49019L12.8848 5.63637ZM13.8524 5.41365V5.56365H13.8553V5.41365V5.26365H13.8524V5.41365ZM13.8553 5.41365L13.8928 5.55889C13.9001 5.55701 13.9236 5.55137 13.9464 5.54108L13.8847 5.40437L13.8229 5.26765C13.8267 5.26595 13.8287 5.26544 13.8273 5.26587C13.8257 5.26635 13.8235 5.26694 13.8178 5.2684L13.8553 5.41365ZM13.8847 5.40437L13.9279 5.548L13.9455 5.5427L13.9023 5.39906L13.8591 5.25543L13.8414 5.26073L13.8847 5.40437ZM13.9023 5.39906V5.54906H13.9067V5.39906V5.24906H13.9023V5.39906ZM13.9067 5.39906L13.9684 5.53578C13.9775 5.53169 13.9828 5.52932 13.9887 5.52702L13.9346 5.38713L13.8805 5.24724C13.8658 5.2529 13.8535 5.25848 13.845 5.26235L13.9067 5.39906ZM13.9346 5.38713L13.9963 5.52384L14.0257 5.51059L13.9639 5.37387L13.9022 5.23716L13.8729 5.25042L13.9346 5.38713ZM13.9639 5.37387L14.0257 5.51059L14.0668 5.49203L14.0051 5.35531L13.9433 5.2186L13.9022 5.23716L13.9639 5.37387ZM14.0051 5.35531L14.064 5.49323C14.1008 5.47751 14.1347 5.45775 14.1568 5.44555L14.0843 5.31422L14.0119 5.18288C13.9811 5.19984 13.9651 5.20926 13.9461 5.2174L14.0051 5.35531ZM14.0843 5.31422L14.1584 5.44467C14.2181 5.41077 14.2719 5.37268 14.3214 5.33252L14.2268 5.21611L14.1322 5.0997C14.0935 5.13113 14.0534 5.15933 14.0103 5.18376L14.0843 5.31422ZM14.2268 5.21611L14.3203 5.33338C14.4199 5.25394 14.5045 5.16257 14.574 5.06389L14.4514 4.97748L14.3288 4.89107C14.275 4.96739 14.2098 5.03776 14.1332 5.09884L14.2268 5.21611ZM14.4514 4.97748L14.574 5.06389C14.644 4.96463 14.6991 4.85615 14.7375 4.74144L14.5953 4.69377L14.4531 4.6461C14.424 4.73291 14.3822 4.81533 14.3288 4.89107L14.4514 4.97748ZM14.5953 4.69377L14.6958 4.58241L14.6943 4.58109L14.5938 4.69245L14.4933 4.80381L14.4948 4.80513L14.5953 4.69377ZM10.3887 7.25376L10.268 7.34286L10.271 7.34684L10.3916 7.25774L10.5123 7.16863L10.5094 7.16466L10.3887 7.25376ZM10.3916 7.25774H10.5416V7.25376H10.3916H10.2416V7.25774H10.3916ZM10.3916 7.25376V7.10376H10.3887V7.25376V7.40376H10.3916V7.25376Z" fill="#666666" mask="url(#path-1-outside-1_2955_3546)"/>
<path d="M5.76599 7.54785C5.88867 7.54569 6.01494 7.61386 6.07556 7.71777H6.07654L6.0824 7.72656L6.09705 7.74609V7.76562L6.20349 8.14551L6.23083 8.20801C6.26789 8.26695 6.33164 8.31323 6.4115 8.33105L6.83728 8.42773L6.84607 8.42969H6.85193L6.86853 8.43945L6.87537 8.44336C6.94006 8.47261 7.00835 8.52857 7.04431 8.60352L7.06482 8.66211C7.07983 8.72273 7.07629 8.78745 7.05115 8.84277L7.05017 8.8418C7.0181 8.91524 6.96126 8.96273 6.90173 8.98047C6.88058 8.98676 6.85371 8.98708 6.82654 8.9834C6.81395 8.99643 6.80081 9.00787 6.78748 9.0166C6.74088 9.04712 6.67568 9.07206 6.61169 9.0918C6.54641 9.11191 6.47467 9.12975 6.41052 9.14551C6.34889 9.16064 6.29534 9.17274 6.2572 9.18457L6.10876 9.71875L6.10583 9.72852L6.10291 9.73535L6.09998 9.74121L6.09509 9.74707L6.09607 9.74805C6.03473 9.86401 5.89595 9.93603 5.76404 9.93359L5.76501 9.93457L5.76306 9.93359L5.76208 9.93457V9.93359C5.63037 9.93424 5.49348 9.86051 5.43396 9.74609V9.74512L5.43201 9.74219L5.42029 9.72363V9.70996L5.31873 9.32812L5.31775 9.32715C5.30045 9.26144 5.25285 9.20348 5.18494 9.16797L5.11072 9.14062L4.68494 9.04102L4.6781 9.03906L4.67126 9.03613L4.66345 9.0332L4.65857 9.03125C4.54573 8.98114 4.45941 8.86488 4.45935 8.74121H4.46033C4.45599 8.62114 4.53259 8.50127 4.64392 8.44727L4.65662 8.44043L4.66443 8.43555L4.67322 8.43359L4.68201 8.43066L4.68689 8.42871L5.11853 8.33105L5.19275 8.30469C5.26057 8.26983 5.30947 8.21143 5.32751 8.14551L5.43494 7.76562V7.75098L5.44373 7.73438L5.44861 7.72656C5.50658 7.61793 5.63556 7.54614 5.76306 7.54785V7.54688L5.76501 7.54785L5.76697 7.54688L5.76599 7.54785Z" fill="#666666" stroke="#666666" stroke-width="0.15"/>
<path d="M4.45044 2.08789C4.62287 2.09098 4.78519 2.11553 4.90454 2.18066C4.96525 2.21387 5.01694 2.25884 5.052 2.31836C5.087 2.37782 5.10189 2.44697 5.0979 2.52441L5.09888 2.52539C5.09201 2.6784 5.00961 2.78465 4.89185 2.85547C4.77809 2.92388 4.62745 2.96192 4.47095 2.98828C4.31378 3.01473 4.13974 3.03098 3.97681 3.04883C3.81145 3.06695 3.65658 3.08678 3.52954 3.12207L3.52856 3.12305C3.37905 3.16191 3.24201 3.20889 3.11646 3.26758L2.99438 3.33008C2.87068 3.39941 2.74676 3.48524 2.63208 3.57812L2.52075 3.67285C2.37854 3.80389 2.24329 3.95318 2.14478 4.10059V4.10156C2.04847 4.24276 1.97415 4.40099 1.91724 4.57812L1.91821 4.5791C1.83359 4.84715 1.78982 5.14864 1.76294 5.46484L1.74048 5.78516C1.71857 6.21656 1.71558 6.66068 1.71411 7.10742C1.71704 8.00292 1.69861 8.90647 1.74829 9.76758L1.77368 10.0859C1.79969 10.3466 1.83905 10.5957 1.90649 10.8203L1.95044 10.9521L2.00024 11.0771C2.05396 11.198 2.1193 11.3084 2.20044 11.416H2.20142C2.31674 11.5677 2.45173 11.7088 2.60181 11.834L2.82642 12.002L2.94556 12.0771L3.06079 12.1406H3.06177C3.21676 12.2182 3.39346 12.2778 3.58618 12.3232L3.88599 12.3809C4.19602 12.429 4.53198 12.45 4.87524 12.4629H4.87427C5.79291 12.4907 6.75095 12.4695 7.69946 12.4629L8.40552 12.4521C8.6394 12.4469 8.87176 12.4393 9.10083 12.4287L9.4397 12.4092C9.77489 12.3854 10.096 12.3477 10.385 12.2822H10.386L10.5256 12.2471C10.8417 12.1592 11.0878 12.0252 11.3489 11.8154L11.551 11.6338C11.6146 11.5702 11.6753 11.5041 11.7317 11.4346C11.7902 11.3606 11.8364 11.2994 11.8743 11.2334L11.8752 11.2314L11.9338 11.1279C11.9517 11.0923 11.9683 11.0551 11.9846 11.0166L11.9856 11.0146L12.0266 10.9102C12.0652 10.7998 12.0963 10.6717 12.1252 10.5342C12.1632 10.3539 12.1985 10.1555 12.2444 9.97754C12.2902 9.79974 12.3491 9.62958 12.4407 9.50293C12.5349 9.37262 12.6658 9.28606 12.8459 9.28516L12.9211 9.28906C13.0903 9.30568 13.2215 9.38549 13.3147 9.5127C13.4182 9.65405 13.4713 9.84834 13.4895 10.0654L13.4973 10.2334C13.4989 10.6385 13.3886 11.1297 13.1741 11.5381L13.175 11.5391C13.0818 11.726 12.9567 11.9079 12.8235 12.0684L12.6887 12.2207C12.5045 12.4195 12.2964 12.5992 12.0706 12.7559L12.0696 12.7568C11.9565 12.8347 11.8409 12.9079 11.718 12.9756L11.717 12.9766L11.5256 13.0742L11.5208 13.0771V13.0762L11.3245 13.1602L11.3215 13.1611C11.1177 13.2394 10.9111 13.2957 10.7083 13.3369L10.5061 13.373C10.2388 13.4166 9.9779 13.4406 9.72192 13.4541L8.96704 13.4746C8.46976 13.4786 7.97944 13.4699 7.49243 13.4619H7.49146C6.52103 13.4408 5.54682 13.4472 4.5481 13.3848H4.54712C4.04832 13.3489 3.52675 13.2934 3.00806 13.1221H3.00708C2.74954 13.0363 2.49074 12.908 2.27271 12.7627V12.7617C2.10916 12.6534 1.95453 12.5333 1.81177 12.4023L1.67212 12.2676C1.53736 12.1297 1.41379 11.9825 1.30493 11.8203L1.20142 11.6523C1.07693 11.4328 0.989505 11.2016 0.927002 10.9736L0.924072 10.9707L0.919189 10.9482C0.830824 10.5957 0.788116 10.2493 0.763916 9.90918L0.745361 9.57031C0.727699 9.12245 0.721016 8.67939 0.718994 8.23828V6.91797L0.726807 6.25293C0.732147 6.03008 0.740371 5.80596 0.755127 5.58008V5.5791L0.784424 5.23828C0.820011 4.89415 0.880345 4.54141 1.01099 4.18652L1.08325 4.01074C1.1628 3.83516 1.26394 3.66355 1.38306 3.50684L1.50317 3.3584C1.62796 3.21282 1.76562 3.07616 1.91528 2.95117H1.91626L2.0686 2.83008C2.22403 2.71278 2.38823 2.60743 2.57544 2.5127L2.76294 2.42578C2.88971 2.37259 3.01948 2.32862 3.14966 2.29199L3.34497 2.24219C3.67293 2.16239 4.10336 2.08176 4.45044 2.08789Z" fill="#666666" stroke="#666666" stroke-width="0.15"/>
</svg>
