<svg width="25" height="25" viewBox="0 0 25 25" fill="none" xmlns="http://www.w3.org/2000/svg">
<path d="M21.7859 14.7234L21.7323 14.1831H21.7144H21.6966L21.7859 14.7234ZM21.7859 14.7234L21.8404 15.2637H21.8582H21.8761L21.7859 14.7234ZM17.3867 20.678L17.7271 20.2577H17.7228L17.3867 20.678ZM17.3867 20.678L17.0464 21.0984H17.0506L17.3867 20.678ZM7.40817 20.6712L7.0678 20.2509L7.05929 20.2577L7.05079 20.2653L7.40817 20.6712ZM7.40817 20.6712L7.74853 21.0916L7.75704 21.0848L7.76555 21.0771L7.40817 20.6712ZM3.02175 10.0809V9.53798H2.99452H2.96729L3.02175 10.0809ZM3.02175 10.0809V10.6237H3.04898H3.07621L3.02175 10.0809ZM15.2629 2.96814C15.2399 2.7401 15.2203 2.54269 15.1931 2.37932C15.1684 2.20693 15.1168 2.03952 15.0399 1.88324L14.075 2.38102C14.0998 2.43785 14.1159 2.49809 14.1227 2.55971C14.1422 2.67798 14.1584 2.8337 14.1831 3.07621L15.2629 2.96814ZM15.4747 4.27428C15.4227 4.17669 15.3909 4.06961 15.3811 3.95945C15.3403 3.73226 15.308 3.42338 15.2629 2.96814L14.1831 3.07621C14.2265 3.51272 14.2622 3.8718 14.3124 4.15175C14.3487 4.43223 14.4514 4.70001 14.6119 4.93288L15.4747 4.27428ZM15.9785 4.48275C15.8836 4.49551 15.787 4.48295 15.6985 4.44634C15.6101 4.40972 15.5329 4.35037 15.4747 4.27428L14.6119 4.93288C14.7863 5.16142 15.018 5.33975 15.2836 5.44974C15.5491 5.55974 15.8391 5.59748 16.124 5.55915L15.9785 4.48275ZM17.0515 3.70928C16.6975 3.99859 16.4558 4.19515 16.2678 4.32704C16.1828 4.39813 16.0845 4.45053 15.9785 4.48275L16.1231 5.56C16.4019 5.50917 16.6644 5.39248 16.8889 5.21964C17.1221 5.05797 17.3995 4.82822 17.7399 4.55083L17.0515 3.70928ZM17.9764 3.10003C17.8114 3.15617 17.6564 3.23802 17.5169 3.34254C17.3825 3.43784 17.2293 3.56463 17.0515 3.70928L17.739 4.54912C17.9279 4.39511 18.0487 4.29385 18.1466 4.22578C18.1949 4.18697 18.2489 4.1557 18.3066 4.13303L17.9764 3.10003ZM19.1192 3.15704C18.7577 3.00045 18.3517 2.9802 17.9764 3.10003L18.3066 4.13303C18.4317 4.09293 18.5671 4.10043 18.6878 4.1526L19.1192 3.15704ZM19.9786 3.85564C19.8169 3.69311 19.6765 3.55272 19.5531 3.44465C19.4248 3.32686 19.2786 3.23009 19.12 3.15789L18.6844 4.14835C18.7395 4.17658 18.79 4.21302 18.8341 4.25641C18.9252 4.33555 19.0358 4.44617 19.2077 4.61805L19.9786 3.85564ZM20.9486 4.82567L19.976 3.85394L19.2102 4.61975L20.1803 5.58978L20.9486 4.82567ZM21.6447 5.67998C21.5724 5.52143 21.4757 5.37527 21.3579 5.24687C21.249 5.12263 21.1086 4.98224 20.9461 4.82141L20.1803 5.58723C20.3504 5.75741 20.4627 5.87058 20.5419 5.96078C20.5852 6.00497 20.6217 6.05546 20.6499 6.11054L21.6447 5.67998ZM21.7017 6.82274C21.8215 6.44746 21.8012 6.04147 21.6447 5.67998L20.6482 6.11139C20.7004 6.232 20.7071 6.36745 20.667 6.49259L21.7017 6.82274ZM21.0924 7.74768C21.2379 7.56984 21.3639 7.41668 21.4592 7.28223C21.5636 7.14277 21.6455 6.9877 21.7017 6.82274L20.6678 6.49259C20.6452 6.55029 20.6139 6.60423 20.5751 6.65256C20.5053 6.75042 20.4049 6.8721 20.2517 7.06015L21.0924 7.74768ZM20.3164 8.82833C20.3486 8.72235 20.4019 8.62396 20.473 8.53902C20.6049 8.34927 20.8014 8.10846 21.0907 7.75533L20.25 7.0678C19.9726 7.40816 19.7395 7.68641 19.5812 7.91871C19.4084 8.14326 19.2917 8.4058 19.2409 8.68452L20.3164 8.82833ZM20.5249 9.33206C20.4488 9.27394 20.3894 9.19673 20.3528 9.10826C20.3162 9.01979 20.3036 8.92322 20.3164 8.82833L19.24 8.68367C19.2017 8.96855 19.2394 9.25851 19.3494 9.52408C19.4594 9.78965 19.6377 10.0214 19.8663 10.1957L20.5249 9.33206ZM21.831 9.54394C21.3766 9.49884 21.0652 9.46736 20.8397 9.42651C20.7295 9.41679 20.6225 9.38495 20.5249 9.33291L19.8688 10.1898C20.1017 10.3503 20.3695 10.453 20.6499 10.4893C20.929 10.5395 21.289 10.5744 21.7255 10.6186L21.831 9.54394ZM22.9159 9.76687C22.7596 9.69005 22.5922 9.63836 22.4198 9.61371C22.2573 9.58648 22.0599 9.56691 21.831 9.54394L21.7229 10.6246C21.9654 10.6484 22.1212 10.6646 22.2394 10.685C22.3011 10.6918 22.3613 10.7079 22.4181 10.7327L22.9159 9.76687ZM23.6817 10.6178C23.5379 10.2508 23.2658 9.94843 22.9159 9.76687L22.4181 10.7327C22.5345 10.7929 22.6252 10.8924 22.6734 11.0143L23.6817 10.6178ZM23.7957 11.7197C23.7957 11.4908 23.7957 11.2942 23.7847 11.1241C23.7776 10.9495 23.7428 10.7772 23.6817 10.6135L22.6726 11.0126C22.6915 11.0715 22.7016 11.1328 22.7023 11.1947C22.71 11.3147 22.7108 11.4712 22.7108 11.7146L23.7957 11.7197ZM23.7957 13.0914V11.7137H22.7142V13.0829L23.7957 13.0914ZM23.686 14.189C23.747 14.0254 23.7818 13.853 23.7889 13.6785C23.8 13.5143 23.8 13.3151 23.8 13.0829H22.7142C22.7142 13.3262 22.7142 13.4828 22.7057 13.6028C22.705 13.6646 22.695 13.726 22.676 13.7848L23.686 14.189ZM22.9202 15.0399C23.2699 14.8583 23.542 14.5559 23.686 14.189L22.676 13.79C22.6279 13.9122 22.5372 14.0128 22.4207 14.0733L22.9202 15.0399ZM21.8353 15.2629C22.0633 15.2399 22.2607 15.2203 22.4241 15.1931C22.5965 15.1685 22.7639 15.1168 22.9202 15.0399L22.4224 14.075C22.3656 14.0998 22.3053 14.1159 22.2437 14.1227C22.1254 14.1422 21.9697 14.1584 21.7272 14.1831L21.8353 15.2629ZM20.5291 15.4739C20.6267 15.4219 20.7338 15.3901 20.844 15.3803C21.0711 15.3395 21.38 15.308 21.8344 15.2629L21.7263 14.1822C21.2898 14.2256 20.9307 14.2614 20.6516 14.3116C20.3712 14.3479 20.1034 14.4505 19.8705 14.6111L20.5291 15.4739ZM20.3164 15.9759C20.3035 15.8809 20.316 15.7842 20.3526 15.6955C20.3892 15.6069 20.4486 15.5295 20.5249 15.4713L19.8663 14.6077C19.6377 14.782 19.4594 15.0138 19.3494 15.2793C19.2394 15.5449 19.2017 15.8348 19.24 16.1197L20.3164 15.9759ZM21.0899 17.0489C20.8006 16.6949 20.604 16.4533 20.4721 16.2652C20.401 16.1803 20.3478 16.0819 20.3155 15.9759L19.2391 16.1206C19.29 16.3993 19.4067 16.6618 19.5795 16.8864C19.7412 17.1195 19.9701 17.3969 20.2483 17.7373L21.0899 17.0489ZM21.6991 17.9739C21.6429 17.8089 21.5611 17.6538 21.4566 17.5144C21.3613 17.3799 21.2354 17.2268 21.0899 17.0489L20.2492 17.7365C20.4032 17.9254 20.5044 18.0462 20.5717 18.144C20.6105 18.1924 20.6417 18.2463 20.6644 18.304L21.6991 17.9739ZM21.6421 19.1175C21.7989 18.7557 21.8192 18.3494 21.6991 17.9739L20.6653 18.304C20.7054 18.4291 20.6987 18.5646 20.6465 18.6852L21.6421 19.1175ZM20.9444 19.9769C21.106 19.8152 21.2473 19.6748 21.3553 19.5514C21.4731 19.4231 21.5699 19.276 21.6421 19.1175L20.6457 18.6869C20.6174 18.742 20.581 18.7925 20.5376 18.8367C20.4585 18.9269 20.3479 19.0383 20.176 19.2102L20.9444 19.9769ZM19.9743 20.9469L20.9444 19.9769L20.1785 19.2111L19.2085 20.1811L19.9743 20.9469ZM19.1149 21.6455C19.2735 21.5733 19.4197 21.4766 19.548 21.3588C19.6723 21.2498 19.8127 21.1094 19.9735 20.9478L19.2077 20.182C19.0375 20.3521 18.9243 20.4645 18.8341 20.5436C18.7899 20.5869 18.7394 20.6234 18.6844 20.6516L19.1149 21.6455ZM17.9722 21.7025C18.3474 21.8224 18.7534 21.8021 19.1149 21.6455L18.6835 20.6491C18.5629 20.7013 18.4274 20.7079 18.3023 20.6678L17.9722 21.7025ZM17.0472 21.0933C17.2251 21.2388 17.3782 21.3647 17.5127 21.46C17.6521 21.5645 17.8072 21.6463 17.9722 21.7025L18.3023 20.6678C18.2446 20.6452 18.1907 20.6147 18.1423 20.5759C18.0445 20.5061 17.9228 20.4057 17.7347 20.2526L17.0472 21.0933ZM15.9768 20.3155C16.0828 20.3478 16.1811 20.401 16.2661 20.4721C16.4558 20.604 16.6966 20.8006 17.0498 21.0899L17.7373 20.2492C17.3969 19.9718 17.1187 19.7386 16.8864 19.5804C16.6618 19.4076 16.3993 19.2909 16.1206 19.24L15.9768 20.3155ZM15.473 20.524C15.5312 20.4479 15.6084 20.3886 15.6968 20.352C15.7853 20.3153 15.8819 20.3028 15.9768 20.3155L16.1214 19.2391C15.8365 19.2008 15.5466 19.2386 15.281 19.3486C15.0155 19.4586 14.7837 19.6369 14.6094 19.8654L15.473 20.524ZM15.2612 21.8302C15.3063 21.3758 15.3377 21.0643 15.3786 20.8389C15.3884 20.7287 15.4211 20.6216 15.473 20.524L14.6094 19.8654C14.4488 20.0983 14.3462 20.3661 14.3099 20.6465C14.2597 20.9256 14.2248 21.2856 14.1805 21.7221L15.2612 21.8302ZM15.0382 22.9151C15.1151 22.7588 15.1667 22.5914 15.1914 22.419C15.2186 22.2565 15.2382 22.0582 15.2612 21.8302L14.1805 21.7221C14.1567 21.9646 14.1405 22.1203 14.1201 22.2394C14.1133 22.3011 14.0972 22.3613 14.0725 22.4181L15.0382 22.9151ZM14.1873 23.6809C14.5543 23.537 14.8566 23.2649 15.0382 22.9151L14.0733 22.4173C14.013 22.5337 13.9127 22.6244 13.7908 22.6726L14.1873 23.6809ZM13.0811 23.7949C13.3109 23.7949 13.5066 23.7949 13.6768 23.7838C13.8513 23.7766 14.0236 23.7419 14.1873 23.6809L13.7883 22.6717C13.7294 22.6907 13.668 22.7008 13.6062 22.7015C13.4862 22.7091 13.3296 22.71 13.0854 22.71L13.0811 23.7949ZM11.7095 23.7949H13.0837V22.7134H11.7146L11.7095 23.7949ZM10.6161 23.6851C10.7797 23.7462 10.9521 23.781 11.1266 23.7881C11.2917 23.7991 11.49 23.7991 11.7223 23.7991V22.7134C11.4789 22.7134 11.3223 22.7134 11.2024 22.7049C11.1405 22.7041 11.0791 22.6941 11.0203 22.6751L10.6161 23.6851ZM9.76517 22.9193C9.94673 23.2692 10.2491 23.5413 10.6161 23.6851L11.0152 22.676C10.8933 22.6278 10.7929 22.5371 10.7327 22.4207L9.76517 22.9193ZM9.54224 21.8344C9.56521 22.0625 9.58478 22.2599 9.61201 22.4232C9.63666 22.5956 9.68835 22.763 9.76517 22.9193L10.7301 22.4215C10.7053 22.3647 10.6893 22.3045 10.6824 22.2428C10.6629 22.1246 10.6467 21.9689 10.622 21.7263L9.54224 21.8344ZM9.33036 20.5283C9.3824 20.6259 9.41424 20.7329 9.42396 20.8431C9.4648 21.0703 9.49629 21.3792 9.54138 21.8344L10.622 21.7263C10.5786 21.2898 10.5429 20.9307 10.4927 20.6508C10.4564 20.3703 10.3537 20.1025 10.1932 19.8697L9.33036 20.5283ZM8.82918 20.3155C8.92407 20.3028 9.02064 20.3153 9.10911 20.352C9.19758 20.3886 9.27479 20.4479 9.33291 20.524L10.1957 19.8654C10.0214 19.6369 9.78965 19.4586 9.52408 19.3486C9.25851 19.2386 8.96856 19.2008 8.68367 19.2391L8.82918 20.3155ZM7.75619 21.089C8.11016 20.7997 8.35182 20.6031 8.53987 20.4713C8.62481 20.4002 8.7232 20.3469 8.82918 20.3147L8.68452 19.2383C8.4058 19.2892 8.14326 19.4059 7.91871 19.5787C7.68556 19.7403 7.40817 19.9701 7.0678 20.2475L7.75619 21.089ZM6.83125 21.6983C6.99623 21.6421 7.1513 21.5603 7.29074 21.4558C7.42518 21.3605 7.57835 21.2337 7.75619 21.089L7.06865 20.2492C6.87975 20.4032 6.75893 20.5044 6.66107 20.5725C6.61275 20.6114 6.55882 20.6426 6.5011 20.6653L6.83125 21.6983ZM5.68083 21.6438C6.0423 21.8005 6.44832 21.8207 6.82359 21.7008L6.49344 20.667C6.36831 20.7072 6.23283 20.7005 6.11224 20.6482L5.68083 21.6438ZM4.82141 20.9452C4.98394 21.1077 5.12349 21.2481 5.24687 21.3571C5.3755 21.4749 5.52196 21.5717 5.68083 21.6438L6.11224 20.6482C6.05714 20.62 6.00665 20.5827 5.96248 20.5393C5.87228 20.4602 5.76081 20.3496 5.58893 20.1768L4.82141 20.9452ZM3.85479 19.9752L4.82482 20.9452L5.59063 20.1794L4.6223 19.2094L3.85479 19.9752ZM3.15619 19.1158C3.2284 19.2743 3.32517 19.4205 3.44295 19.5489C3.55186 19.6731 3.69226 19.8144 3.85479 19.9752L4.6206 19.2085C4.45042 19.0383 4.3381 18.9252 4.25897 18.835C4.21562 18.7908 4.17919 18.7403 4.1509 18.6852L3.15619 19.1158ZM3.09918 17.973C2.97935 18.3483 2.9996 18.7543 3.15619 19.1158L4.1492 18.6844C4.09703 18.5637 4.09037 18.4283 4.13048 18.3032L3.09918 17.973ZM3.70843 17.0481C3.56293 17.2259 3.43699 17.3791 3.34169 17.5135C3.23722 17.653 3.15538 17.8081 3.09918 17.973L4.13303 18.3032C4.1557 18.2455 4.18697 18.1915 4.22578 18.1432C4.29555 18.0453 4.39596 17.9236 4.54912 17.7356L3.70843 17.0481ZM4.48275 15.9759C4.45053 16.0819 4.39728 16.1803 4.32619 16.2652C4.1943 16.455 3.99774 16.6949 3.70843 17.0481L4.54827 17.7365C4.82567 17.3961 5.05882 17.1178 5.21708 16.8855C5.38992 16.661 5.50662 16.3985 5.55745 16.1197L4.48275 15.9759ZM4.27428 15.4722C4.35037 15.5303 4.40972 15.6075 4.44634 15.696C4.48295 15.7845 4.49551 15.881 4.48275 15.9759L5.55915 16.1206C5.59748 15.8357 5.55974 15.5457 5.44974 15.2802C5.33975 15.0146 5.16057 14.7829 4.93203 14.6085L4.27428 15.4722ZM2.96814 15.2603C3.42253 15.3054 3.73396 15.3369 3.95945 15.3777C4.06961 15.3875 4.17669 15.4202 4.27428 15.4722L4.93203 14.6085C4.69849 14.4473 4.43064 14.3444 4.1492 14.3082C3.8701 14.2579 3.51017 14.2231 3.07366 14.1788L2.96814 15.2603ZM1.88324 15.0374C2.03952 15.1142 2.20693 15.1659 2.37932 15.1905C2.54184 15.2178 2.73925 15.2373 2.96814 15.2603L3.07621 14.1797C2.8337 14.1558 2.67798 14.1397 2.55971 14.1193C2.49809 14.1125 2.43785 14.0964 2.38102 14.0716L1.88324 15.0374ZM1.11742 14.1865C1.26125 14.5535 1.53336 14.8558 1.88324 15.0374L2.38017 14.0725C2.26376 14.0122 2.17394 13.9118 2.12575 13.79L1.11742 14.1865ZM1.00085 13.0829C1.00085 13.3126 1.00085 13.5083 1.01191 13.6785C1.01909 13.853 1.05384 14.0253 1.11487 14.189L2.12575 13.79C2.10675 13.7311 2.09586 13.6697 2.09511 13.6079C2.08746 13.4879 2.08661 13.3313 2.08661 13.088L1.00085 13.0829ZM1.00085 11.7112V13.0829H2.08661V11.7137L1.00085 11.7112ZM1.11487 10.605C1.05356 10.7687 1.01852 10.941 1.01106 11.1156C1 11.2806 1 11.4789 1 11.7112H2.08661C2.08661 11.467 2.08661 11.3113 2.09511 11.1913C2.09582 11.1294 2.10586 11.068 2.1249 11.0092L1.11487 10.605ZM1.88069 9.75411C1.53086 9.93573 1.25876 10.2381 1.11487 10.605L2.12405 11.0041C2.17224 10.8822 2.26291 10.7819 2.37932 10.7216L1.88069 9.75411ZM2.96559 9.53117C2.73755 9.55415 2.54014 9.57372 2.37676 9.60095C2.20438 9.6256 2.03696 9.67729 1.88069 9.75411L2.37847 10.719C2.4353 10.6943 2.49554 10.6782 2.55716 10.6714C2.67628 10.6518 2.83115 10.6356 3.07366 10.611L2.96559 9.53117ZM4.27173 9.32185C4.17413 9.37387 4.06706 9.4057 3.95689 9.41545C3.7297 9.45629 3.42082 9.48778 2.96559 9.53288L3.07366 10.6135C3.51017 10.5701 3.8701 10.5344 4.1492 10.4842C4.42967 10.4478 4.69744 10.3451 4.93033 10.1847L4.27173 9.32185ZM4.4802 8.81811C4.49296 8.91301 4.4804 9.00958 4.44378 9.09805C4.40717 9.18652 4.34781 9.26373 4.27173 9.32185L4.93288 10.1898C5.16129 10.0155 5.33953 9.78391 5.44951 9.5185C5.5595 9.25309 5.59733 8.96332 5.55915 8.67857L4.4802 8.81811ZM3.70588 7.74427C3.99519 8.09825 4.19174 8.33991 4.32364 8.52881C4.39475 8.61373 4.448 8.71213 4.4802 8.81811L5.5566 8.67346C5.50574 8.39473 5.38905 8.13218 5.21623 7.90765C5.05456 7.6745 4.82482 7.3971 4.54742 7.05674L3.70588 7.74427ZM3.09918 6.82615C3.15534 6.99112 3.23718 7.14619 3.34169 7.28564C3.43784 7.42008 3.56378 7.57324 3.70843 7.75108L4.54827 7.06355C4.39341 6.87465 4.293 6.75382 4.22493 6.65511C4.18612 6.60678 4.15485 6.55284 4.13218 6.49514L3.09918 6.82615ZM3.15619 5.67998C2.9996 6.04147 2.97935 6.44746 3.09918 6.82274L4.13303 6.49259C4.09297 6.36879 4.09871 6.23472 4.1492 6.11479L3.15619 5.67998ZM3.85479 4.81971C3.69226 4.98224 3.55186 5.12263 3.44295 5.24516C3.32502 5.37407 3.22824 5.52082 3.15619 5.67998L4.1492 6.11479C4.17747 6.05971 4.2139 6.00922 4.25726 5.96503C4.3364 5.87484 4.44702 5.76337 4.61975 5.59148L3.85479 4.81971ZM4.82482 3.84968L3.85479 4.81971L4.6206 5.58553L5.59574 4.62145L4.82482 3.84968ZM5.68083 3.15534C5.52497 3.22824 5.38143 3.32499 5.25538 3.4421C5.13114 3.55101 4.99074 3.69141 4.82992 3.85394L5.59574 4.61975C5.76592 4.44957 5.87909 4.33725 5.96929 4.25812C6.01232 4.21443 6.06165 4.17743 6.11564 4.14835L5.68083 3.15534ZM6.82359 3.09833C6.44831 2.9785 6.04232 2.99875 5.68083 3.15534L6.11564 4.14835C6.23626 4.09617 6.3717 4.08952 6.49685 4.12963L6.82359 3.09833ZM7.74853 3.70758C7.57069 3.56208 7.41753 3.43614 7.28308 3.34084C7.14363 3.23633 6.98856 3.15449 6.82359 3.09833L6.49685 4.13218C6.55454 4.15485 6.60848 4.18612 6.65682 4.22493C6.75467 4.2947 6.87635 4.39511 7.0644 4.54827L7.74853 3.70758ZM8.82152 4.48105C8.71555 4.44883 8.61715 4.39558 8.53221 4.32449C8.34246 4.1926 8.10165 3.99689 7.74853 3.70758L7.061 4.54657C7.40136 4.82397 7.6796 5.05712 7.9119 5.21538C8.13643 5.38819 8.39899 5.50489 8.67772 5.55575L8.82152 4.48105ZM9.32525 4.27258C9.26713 4.34866 9.18992 4.40802 9.10145 4.44463C9.01299 4.48125 8.91641 4.49381 8.82152 4.48105L8.67687 5.5566C8.96194 5.59534 9.25219 5.55788 9.51808 5.44802C9.78398 5.33817 10.016 5.15984 10.1906 4.93118L9.32525 4.27258ZM9.53713 2.96729C9.49203 3.42168 9.46055 3.73311 9.41971 3.95775C9.40993 4.06791 9.3781 4.17497 9.32611 4.27258L10.1906 4.93118C10.3511 4.69831 10.4538 4.43053 10.4901 4.15005C10.5403 3.87095 10.5752 3.51102 10.6195 3.07536L9.53713 2.96729ZM9.76517 1.88239C9.68835 2.03867 9.63666 2.20608 9.61201 2.37847C9.58478 2.54099 9.56521 2.7384 9.54224 2.96644L10.6229 3.07451C10.6467 2.832 10.6629 2.67628 10.6833 2.55801C10.69 2.49637 10.7061 2.43612 10.731 2.37932L9.76517 1.88239ZM10.6161 1.11657C10.2491 1.26047 9.94679 1.53256 9.76517 1.88239L10.7301 2.38017C10.7906 2.26361 10.8912 2.17292 11.0135 2.1249L10.6161 1.11657ZM11.7146 1C11.4857 1 11.2891 1 11.119 1.01106C10.9444 1.01824 10.7721 1.05299 10.6084 1.11402L11.0075 2.12405C11.0663 2.10501 11.1277 2.09497 11.1896 2.09426C11.3096 2.08661 11.4661 2.08575 11.7095 2.08575L11.7146 1ZM13.0863 1H11.7146V2.08575H13.0837L13.0863 1ZM14.1899 1.11402C14.0262 1.05299 13.8539 1.01824 13.6793 1.01106C13.5143 1 13.316 1 13.0837 1V2.08575C13.3271 2.08575 13.4836 2.08575 13.6036 2.09426C13.6655 2.09501 13.7268 2.10505 13.7857 2.12405L14.1899 1.11402ZM15.0408 1.87984C14.8592 1.52996 14.5569 1.25785 14.1899 1.11402L13.7908 2.12405C13.9127 2.17224 14.013 2.26291 14.0733 2.37932L15.0408 1.87984ZM16.2006 12.4021C16.1999 13.4091 15.7996 14.3746 15.0875 15.0867C14.3755 15.7987 13.41 16.199 12.403 16.1997V17.2855C13.6979 17.2848 14.9396 16.7701 15.8553 15.8544C16.7709 14.9388 17.2856 13.6971 17.2863 12.4021H16.2006ZM12.403 8.59943C12.902 8.59977 13.3961 8.69839 13.857 8.88968C14.318 9.08096 14.7367 9.36116 15.0893 9.71427C15.442 10.0674 15.7216 10.4865 15.9123 10.9477C16.1029 11.4089 16.2009 11.9031 16.2006 12.4021H17.2863C17.2867 11.7605 17.1606 11.1251 16.9154 10.5322C16.6702 9.93927 16.3105 9.40046 15.8571 8.94653C15.4036 8.49259 14.8652 8.13242 14.2725 7.88657C13.6799 7.64072 13.0446 7.51401 12.403 7.51368V8.59943ZM8.60028 12.4021C8.59995 11.9027 8.69808 11.408 8.88906 10.9465C9.08005 10.485 9.36014 10.0656 9.71332 9.71247C10.0665 9.35929 10.4858 9.0792 10.9474 8.88821C11.4089 8.69723 11.9035 8.5991 12.403 8.59943V7.51368C11.7609 7.51334 11.1251 7.63956 10.5319 7.88511C9.93861 8.13065 9.39958 8.49072 8.94557 8.94472C8.49157 9.39872 8.13151 9.93776 7.88596 10.531C7.64041 11.1242 7.51419 11.7601 7.51453 12.4021H8.60028ZM12.403 16.1997C11.9039 16.2001 11.4097 16.1021 10.9485 15.9114C10.4873 15.7208 10.0682 15.4411 9.71512 15.0885C9.36201 14.7358 9.08181 14.3171 8.89053 13.8562C8.69924 13.3953 8.60062 12.9012 8.60028 12.4021H7.51453C7.51486 13.0438 7.64157 13.679 7.88742 14.2717C8.13327 14.8643 8.49345 15.4028 8.94738 15.8562C9.40131 16.3097 9.94012 16.6693 10.533 16.9145C11.1259 17.1598 11.7614 17.2858 12.403 17.2855V16.1997Z" fill="#666666"/>
<path d="M14.7191 3.0209L15.2595 2.96729M14.5541 2.13085L14.0716 2.37932M15.0408 4.60188L15.4722 4.27258M16.0491 5.01968L15.9768 4.4819M17.3935 4.12793L17.7339 4.54827M18.1398 3.61738L18.3049 4.13473M18.9056 3.65567L19.1217 3.15789M19.5974 4.2394L19.2136 4.62315M20.5674 5.20943L20.9512 4.82567M21.1511 5.90121L21.6447 5.67998M21.6447 5.67998C21.5724 5.52143 21.4757 5.37527 21.3579 5.24687C21.249 5.12263 21.1086 4.98224 20.9461 4.82141L20.1802 5.58723C20.3504 5.75741 20.4627 5.87058 20.5419 5.96078C20.5852 6.00497 20.6217 6.05546 20.6499 6.11054L21.6447 5.67998ZM21.6447 5.67998C21.8012 6.04147 21.8215 6.44746 21.7017 6.82274M21.6447 5.67998L20.6482 6.11139C20.7004 6.232 20.7071 6.36745 20.667 6.49259L21.7017 6.82274M21.1894 6.66703L21.7068 6.8321M20.6789 7.41327L20.2585 7.07291M19.7871 8.7577L19.2494 8.68537M20.2049 9.76602L19.8756 10.1974M21.7859 10.086L21.8404 9.54564M22.676 10.251L22.9244 9.76858M23.1865 10.8169L23.6911 10.6169M23.1865 13.9925L22.6819 13.7925M22.676 14.5583L22.9244 15.0408M21.7859 14.7234L21.7323 14.1831H21.7144H21.6966L21.7859 14.7234ZM21.7859 14.7234L21.8404 15.2637H21.8582H21.8761L21.7859 14.7234ZM20.1981 15.0399L19.8688 14.6085M19.7803 16.0483L19.2426 16.1206M20.6721 17.3927L20.2517 17.733M21.1826 18.1389L20.6653 18.304M20.6653 18.304L21.6991 17.9739M20.6653 18.304C20.7054 18.4292 20.6987 18.5646 20.6465 18.6852L21.6421 19.1175M21.1443 18.9047L20.6465 18.6886M20.5606 19.5965L20.9444 19.9803M19.5906 20.5666L19.2068 20.1828M18.8988 21.1503L19.1149 21.6481M18.133 21.1886L17.9679 21.7059M17.3867 20.678L17.7271 20.2577H17.7228L17.3867 20.678ZM17.3867 20.678L17.0464 21.0984H17.0506L17.3867 20.678ZM16.0423 19.7863L16.1146 19.2485M15.0408 20.1964L15.4722 20.5257M14.7208 21.7782L14.1805 21.7246M14.5549 22.6683L14.0725 22.419M13.9891 23.1788L13.7891 22.6743M10.8126 23.1788L11.0126 22.6743M10.2468 22.6683L10.7292 22.4198M10.0817 21.7782L9.54138 21.8327M9.76517 20.1973L9.33376 20.5266M8.7577 19.7795L8.68537 19.2417M7.40817 20.6712L7.0678 20.2509L7.05929 20.2577L7.05079 20.2653L7.40817 20.6712ZM7.40817 20.6712L7.74853 21.0916L7.75704 21.0848L7.76555 21.0771L7.40817 20.6712ZM6.66192 21.1818L6.827 21.6991M5.89611 21.1435L5.68083 21.6438M5.68083 21.6438C6.0423 21.8005 6.44832 21.8207 6.82359 21.7008L6.49344 20.667C6.36831 20.7072 6.23283 20.7005 6.11224 20.6482M5.68083 21.6438L6.11224 20.6482M5.68083 21.6438C5.52196 21.5717 5.3755 21.4749 5.24687 21.3571C5.12349 21.2481 4.98394 21.1077 4.82141 20.9452L5.58893 20.1768C5.76081 20.3496 5.87228 20.4602 5.96248 20.5393C6.00665 20.5827 6.05714 20.62 6.11224 20.6482M5.20432 20.5598L5.58808 20.176M4.23429 19.5914L3.85053 19.9752M3.65057 18.8996L4.14835 18.6835M3.61228 18.1338L4.12963 18.2989M4.12282 17.3876L4.54317 17.7279M5.01457 16.0432L5.55234 16.1155M4.60273 15.0399L4.93203 14.6085M4.93203 14.6085C5.16057 14.7829 5.33975 15.0146 5.44974 15.2802C5.55974 15.5457 5.59748 15.8357 5.55915 16.1206L4.48275 15.9759M4.93203 14.6085L4.27428 15.4722M4.93203 14.6085C4.69849 14.4473 4.43064 14.3444 4.1492 14.3082C3.8701 14.258 3.51017 14.2231 3.07366 14.1788L2.96814 15.2603M3.02175 14.72L2.96814 15.2603M2.96814 15.2603C3.42253 15.3054 3.73396 15.3369 3.95945 15.3777C4.06961 15.3875 4.17669 15.4202 4.27428 15.4722M2.96814 15.2603C2.73925 15.2373 2.54184 15.2178 2.37932 15.1905C2.20693 15.1659 2.03952 15.1142 1.88324 15.0374M2.96814 15.2603L3.07621 14.1797C2.8337 14.1558 2.67798 14.1397 2.55971 14.1193C2.49809 14.1125 2.43785 14.0964 2.38102 14.0716L1.88324 15.0374M2.1317 14.5549L2.38017 14.0725M2.38017 14.0725L1.88324 15.0374M2.38017 14.0725C2.26376 14.0122 2.17394 13.9118 2.12575 13.79M1.62116 13.9891L1.11487 14.189M1.11487 14.189C1.05384 14.0253 1.01909 13.853 1.01191 13.6785C1.00085 13.5083 1.00085 13.3126 1.00085 13.0829M1.11487 14.189L2.12575 13.79M1.62116 10.8126L1.11487 10.6152M2.1317 10.2468L1.88239 9.76432M3.02175 10.0809V9.53798H2.99452H2.96729L3.02175 10.0809ZM3.02175 10.0809V10.6237H3.04898H3.07621L3.02175 10.0809ZM4.60358 9.76432L4.27428 9.33291M5.02138 8.75685L5.55915 8.68452M4.12878 7.40731L4.54912 7.06695M3.61823 6.66022L4.13558 6.49514M3.65653 5.89441L3.15619 5.67998M3.15619 5.67998C2.9996 6.04147 2.97935 6.44746 3.09918 6.82274L4.13303 6.49259C4.09297 6.36879 4.09871 6.23472 4.1492 6.11479M3.15619 5.67998L4.1492 6.11479M3.15619 5.67998C3.22824 5.52082 3.32502 5.37407 3.44295 5.24516C3.55186 5.12263 3.69226 4.98224 3.85479 4.81971M4.2411 5.20262L4.62486 5.58638M5.20858 4.23344L4.82482 3.84968M4.82482 3.84968L3.85479 4.81971M4.82482 3.84968L5.59574 4.62145L4.6206 5.58553L3.85479 4.81971M4.82482 3.84968L5.59063 4.6155M5.90036 3.64972L5.68083 3.15534M5.68083 3.15534C5.52497 3.22824 5.38143 3.32499 5.25538 3.4421C5.13114 3.55101 4.99074 3.69141 4.82992 3.85394L5.59574 4.61975C5.76592 4.44957 5.87909 4.33725 5.96929 4.25812C6.01232 4.21443 6.06165 4.17743 6.11564 4.14835M5.68083 3.15534L6.11564 4.14835M5.68083 3.15534C6.04232 2.99875 6.44831 2.9785 6.82359 3.09833M6.66618 3.61143L6.83125 3.09408M7.41242 4.12197L7.75278 3.70162M8.75685 5.01372L8.82918 4.47595M9.76517 4.60188L9.33376 4.27258M10.0851 3.0209L10.6254 3.07451M10.2502 2.13085L9.76517 1.88239M9.76517 1.88239C9.68835 2.03867 9.63666 2.20608 9.61201 2.37847C9.58478 2.54099 9.56521 2.7384 9.54224 2.96644L10.6229 3.07451C10.6467 2.832 10.6629 2.67628 10.6833 2.55801C10.69 2.49637 10.7061 2.43612 10.731 2.37932L9.76517 1.88239ZM9.76517 1.88239C9.94679 1.53256 10.2491 1.26047 10.6161 1.11657L11.0135 2.1249C10.8912 2.17292 10.7906 2.26361 10.7301 2.38017L9.76517 1.88239ZM10.816 1.62031L11.016 2.1249M13.9916 1.62031L14.1899 1.11402M14.1899 1.11402C14.0262 1.05299 13.8539 1.01824 13.6793 1.01106C13.5143 1 13.316 1 13.0837 1V2.08575M14.1899 1.11402L13.7857 2.12405C13.7268 2.10505 13.6655 2.09501 13.6036 2.09426C13.4836 2.08575 13.3271 2.08575 13.0837 2.08575M14.1899 1.11402C14.5569 1.25785 14.8592 1.52996 15.0408 1.87984L14.0733 2.37932C14.013 2.26291 13.9127 2.17224 13.7908 2.12405L14.1899 1.11402ZM15.2629 2.96814C15.2399 2.7401 15.2203 2.54269 15.1931 2.37932C15.1684 2.20693 15.1168 2.03952 15.0399 1.88324L14.075 2.38102C14.0998 2.43785 14.1159 2.49809 14.1227 2.55971C14.1422 2.67798 14.1584 2.8337 14.1831 3.07621M15.2629 2.96814L14.1831 3.07621M15.2629 2.96814C15.308 3.42338 15.3403 3.73226 15.3811 3.95945C15.3909 4.06961 15.4227 4.17669 15.4747 4.27428M14.1831 3.07621C14.2265 3.51272 14.2622 3.8718 14.3124 4.15175C14.3487 4.43223 14.4514 4.70001 14.6119 4.93288M15.4747 4.27428L14.6119 4.93288M15.4747 4.27428C15.5329 4.35037 15.6101 4.40972 15.6985 4.44634C15.787 4.48295 15.8836 4.49551 15.9785 4.48275M14.6119 4.93288C14.7863 5.16142 15.018 5.33975 15.2836 5.44974C15.5491 5.55974 15.8391 5.59748 16.124 5.55915L15.9785 4.48275M15.9785 4.48275C16.0845 4.45053 16.1828 4.39813 16.2678 4.32704C16.4558 4.19515 16.6975 3.99859 17.0515 3.70928M15.9785 4.48275L16.1231 5.56C16.4019 5.50917 16.6644 5.39248 16.8889 5.21964C17.1221 5.05797 17.3995 4.82822 17.7399 4.55083L17.0515 3.70928M17.0515 3.70928C17.2293 3.56463 17.3825 3.43784 17.5169 3.34254C17.6564 3.23802 17.8114 3.15617 17.9764 3.10003M17.0515 3.70928L17.739 4.54912C17.9279 4.39511 18.0487 4.29385 18.1466 4.22578C18.1949 4.18697 18.2489 4.1557 18.3066 4.13303M17.9764 3.10003L18.3066 4.13303M17.9764 3.10003C18.3517 2.9802 18.7577 3.00045 19.1192 3.15704L18.6878 4.1526C18.5671 4.10043 18.4317 4.09293 18.3066 4.13303M21.7017 6.82274C21.6455 6.9877 21.5636 7.14277 21.4592 7.28223C21.3639 7.41667 21.2379 7.56984 21.0924 7.74768L20.2517 7.06015C20.4049 6.8721 20.5053 6.75042 20.5751 6.65256C20.6139 6.60423 20.6452 6.55029 20.6678 6.49259L21.7017 6.82274ZM20.3164 8.82833C20.3486 8.72235 20.4019 8.62396 20.473 8.53902C20.6049 8.34927 20.8014 8.10846 21.0907 7.75533L20.25 7.0678C19.9726 7.40817 19.7395 7.68641 19.5812 7.91871C19.4084 8.14326 19.2917 8.4058 19.2409 8.68452L20.3164 8.82833ZM20.3164 8.82833C20.3036 8.92322 20.3162 9.01979 20.3528 9.10826C20.3894 9.19673 20.4488 9.27394 20.5249 9.33206L19.8663 10.1957C19.6377 10.0214 19.4594 9.78965 19.3494 9.52408C19.2394 9.25851 19.2017 8.96855 19.24 8.68367L20.3164 8.82833ZM21.831 9.54394C21.3766 9.49884 21.0652 9.46736 20.8397 9.42651C20.7295 9.41679 20.6225 9.38495 20.5249 9.33291L19.8688 10.1898C20.1017 10.3503 20.3695 10.453 20.6499 10.4893C20.929 10.5395 21.289 10.5744 21.7255 10.6186L21.831 9.54394ZM21.831 9.54394C22.0599 9.56691 22.2573 9.58648 22.4198 9.61371C22.5922 9.63836 22.7596 9.69005 22.9159 9.76687M21.831 9.54394L21.7229 10.6246C21.9654 10.6484 22.1212 10.6646 22.2394 10.685C22.3011 10.6918 22.3613 10.7079 22.4181 10.7327M22.9159 9.76687L22.4181 10.7327M22.9159 9.76687C23.2658 9.94843 23.5379 10.2508 23.6817 10.6178L22.6734 11.0143C22.6252 10.8924 22.5345 10.7929 22.4181 10.7327M22.7142 13.0829V11.7137H23.7957V13.0914L22.7142 13.0829ZM22.7142 13.0829H23.8C23.8 13.3151 23.8 13.5143 23.7889 13.6785C23.7818 13.853 23.747 14.0254 23.686 14.189M22.7142 13.0829C22.7142 13.3262 22.7142 13.4828 22.7057 13.6028C22.705 13.6646 22.695 13.726 22.676 13.7848L23.686 14.189M23.686 14.189C23.542 14.5559 23.2699 14.8583 22.9202 15.0399M23.686 14.189L22.676 13.79C22.6279 13.9122 22.5372 14.0128 22.4207 14.0733L22.9202 15.0399M22.9202 15.0399C22.7639 15.1168 22.5965 15.1685 22.4241 15.1931C22.2607 15.2203 22.0633 15.2399 21.8353 15.2629L21.7272 14.1831C21.9697 14.1584 22.1254 14.1422 22.2437 14.1227C22.3053 14.1159 22.3656 14.0998 22.4224 14.075L22.9202 15.0399ZM21.8701 15.2578L21.6915 14.1865M21.0899 17.0489C20.8006 16.6949 20.604 16.4533 20.4721 16.2652C20.401 16.1803 20.3478 16.0819 20.3155 15.9759L19.2391 16.1206C19.29 16.3993 19.4067 16.6618 19.5795 16.8864C19.7412 17.1195 19.9701 17.3969 20.2483 17.7373L21.0899 17.0489ZM21.0899 17.0489C21.2354 17.2268 21.3613 17.3799 21.4566 17.5144C21.5611 17.6538 21.6429 17.8089 21.6991 17.9739M21.0899 17.0489L20.2492 17.7365C20.4032 17.9254 20.5044 18.0462 20.5717 18.144C20.6105 18.1924 20.6417 18.2463 20.6644 18.304L21.6991 17.9739M21.6991 17.9739C21.8192 18.3494 21.7989 18.7557 21.6421 19.1175M21.6421 19.1175C21.5699 19.276 21.4731 19.4231 21.3553 19.5514C21.2473 19.6748 21.106 19.8152 20.9444 19.9769M21.6421 19.1175L20.6457 18.6869C20.6174 18.742 20.581 18.7925 20.5376 18.8367C20.4585 18.9269 20.3479 19.0383 20.176 19.2102L20.9444 19.9769M20.9444 19.9769L19.9743 20.9469L19.2085 20.1811L20.1785 19.2111L20.9444 19.9769ZM19.1149 21.6455C19.2735 21.5733 19.4197 21.4766 19.548 21.3588C19.6723 21.2498 19.8127 21.1094 19.9735 20.9478L19.2077 20.182C19.0375 20.3521 18.9243 20.4645 18.8341 20.5436C18.7899 20.5869 18.7394 20.6234 18.6844 20.6517L19.1149 21.6455ZM19.1149 21.6455C18.7534 21.8021 18.3474 21.8224 17.9722 21.7025M19.1149 21.6455L18.6835 20.6491C18.5629 20.7013 18.4274 20.7079 18.3023 20.6678M17.9722 21.7025L18.3023 20.6678M17.9722 21.7025C17.8072 21.6463 17.6521 21.5645 17.5127 21.46C17.3782 21.3647 17.2251 21.2388 17.0472 21.0933L17.7347 20.2526C17.9228 20.4057 18.0445 20.5061 18.1423 20.5759C18.1907 20.6147 18.2446 20.6452 18.3023 20.6678M17.0515 21.0933L17.7322 20.2424M15.9768 20.3155C16.0828 20.3478 16.1811 20.401 16.2661 20.4721C16.4558 20.604 16.6966 20.8006 17.0498 21.0899L17.7373 20.2492C17.3969 19.9718 17.1187 19.7386 16.8864 19.5804C16.6618 19.4076 16.3993 19.2909 16.1206 19.24L15.9768 20.3155ZM15.9768 20.3155C15.8819 20.3028 15.7853 20.3153 15.6968 20.352C15.6084 20.3886 15.5312 20.4479 15.473 20.524M15.9768 20.3155L16.1214 19.2391C15.8366 19.2008 15.5466 19.2386 15.281 19.3486C15.0155 19.4586 14.7837 19.6369 14.6094 19.8654M15.473 20.524L14.6094 19.8654M15.473 20.524C15.4211 20.6216 15.3884 20.7287 15.3786 20.8389C15.3377 21.0643 15.3063 21.3758 15.2612 21.8302M14.6094 19.8654C14.4488 20.0983 14.3462 20.3661 14.3099 20.6465C14.2597 20.9256 14.2248 21.2856 14.1805 21.7221M15.2612 21.8302L14.1805 21.7221M15.2612 21.8302C15.2382 22.0582 15.2186 22.2565 15.1914 22.419C15.1667 22.5914 15.1151 22.7588 15.0382 22.9151M14.1805 21.7221C14.1567 21.9646 14.1405 22.1203 14.1201 22.2394C14.1133 22.3011 14.0972 22.3613 14.0725 22.4181L15.0382 22.9151M15.0382 22.9151C14.8566 23.2649 14.5543 23.537 14.1873 23.6809M15.0382 22.9151L14.0733 22.4173C14.013 22.5337 13.9127 22.6244 13.7908 22.6725L14.1873 23.6809M14.1873 23.6809C14.0236 23.7419 13.8513 23.7766 13.6768 23.7838C13.5066 23.7949 13.3109 23.7949 13.0811 23.7949L13.0854 22.71C13.3296 22.71 13.4862 22.7091 13.6062 22.7015C13.668 22.7008 13.7294 22.6907 13.7883 22.6717L14.1873 23.6809ZM10.6161 23.6851C10.7797 23.7462 10.9521 23.781 11.1266 23.7881C11.2917 23.7991 11.49 23.7991 11.7223 23.7991V22.7134C11.4789 22.7134 11.3223 22.7134 11.2024 22.7049C11.1405 22.7041 11.0791 22.6941 11.0203 22.6751L10.6161 23.6851ZM10.6161 23.6851C10.2491 23.5413 9.94673 23.2692 9.76517 22.9193M10.6161 23.6851L11.0152 22.676C10.8933 22.6278 10.7929 22.5371 10.7327 22.4207L9.76517 22.9193M9.76517 22.9193C9.68835 22.763 9.63666 22.5956 9.61201 22.4232C9.58478 22.2599 9.56521 22.0625 9.54224 21.8344L10.622 21.7263M9.76517 22.9193L10.7301 22.4215C10.7053 22.3647 10.6893 22.3045 10.6824 22.2428C10.6629 22.1246 10.6467 21.9689 10.622 21.7263M10.622 21.7263L9.54138 21.8344C9.49629 21.3792 9.4648 21.0703 9.42396 20.8431C9.41424 20.7329 9.3824 20.6259 9.33036 20.5283L10.1932 19.8697C10.3537 20.1025 10.4564 20.3703 10.4927 20.6508C10.5429 20.9307 10.5786 21.2898 10.622 21.7263ZM7.75619 21.089C8.11016 20.7997 8.35182 20.6031 8.53987 20.4713C8.62481 20.4002 8.7232 20.3469 8.82918 20.3147L8.68452 19.2383C8.4058 19.2892 8.14326 19.4059 7.91871 19.5787C7.68556 19.7403 7.40817 19.9701 7.0678 20.2475L7.75619 21.089ZM7.75619 21.089C7.57835 21.2337 7.42518 21.3605 7.29074 21.4558C7.1513 21.5603 6.99623 21.6421 6.83125 21.6983L6.5011 20.6653C6.55882 20.6426 6.61275 20.6114 6.66107 20.5725C6.75893 20.5044 6.87975 20.4032 7.06865 20.2492L7.75619 21.089ZM7.7732 21.0745L7.05164 20.2628M3.85479 19.9752L4.82482 20.9452L5.59063 20.1794L4.6223 19.2094L3.85479 19.9752ZM3.85479 19.9752C3.69226 19.8144 3.55186 19.6731 3.44295 19.5489C3.32517 19.4205 3.2284 19.2743 3.15619 19.1158M3.85479 19.9752L4.6206 19.2085C4.45042 19.0383 4.3381 18.9252 4.25897 18.835C4.21562 18.7908 4.17919 18.7403 4.1509 18.6852L3.15619 19.1158M3.15619 19.1158C2.9996 18.7543 2.97935 18.3483 3.09918 17.973M3.15619 19.1158L4.1492 18.6844C4.09703 18.5637 4.09037 18.4283 4.13048 18.3032L3.09918 17.973M3.09918 17.973C3.15538 17.808 3.23722 17.653 3.34169 17.5135C3.43699 17.3791 3.56293 17.2259 3.70843 17.0481M3.09918 17.973L4.13303 18.3032C4.1557 18.2455 4.18697 18.1915 4.22578 18.1432C4.29555 18.0453 4.39596 17.9236 4.54912 17.7356L3.70843 17.0481M3.70843 17.0481C3.99774 16.6949 4.1943 16.455 4.32619 16.2652C4.39728 16.1803 4.45053 16.0819 4.48275 15.9759M3.70843 17.0481L4.54827 17.7365C4.82567 17.3961 5.05882 17.1178 5.21709 16.8855C5.38992 16.661 5.50662 16.3985 5.55745 16.1197L4.48275 15.9759M4.48275 15.9759C4.49551 15.881 4.48295 15.7845 4.44634 15.696C4.40972 15.6075 4.35037 15.5303 4.27428 15.4722M1.88324 15.0374C1.53336 14.8558 1.26125 14.5535 1.11742 14.1865L2.12575 13.79M2.12575 13.79C2.10675 13.7311 2.09586 13.6697 2.09511 13.6079C2.08746 13.4879 2.08661 13.3313 2.08661 13.088L1.00085 13.0829M1.00085 13.0829V11.7112L2.08661 11.7137V13.0829H1.00085ZM1.11487 10.605C1.05356 10.7687 1.01852 10.941 1.01106 11.1156C1 11.2806 1 11.4789 1 11.7112H2.08661C2.08661 11.467 2.08661 11.3113 2.09511 11.1913C2.09582 11.1294 2.10586 11.068 2.1249 11.0092L1.11487 10.605ZM1.11487 10.605C1.25876 10.2381 1.53086 9.93573 1.88069 9.75411M1.11487 10.605L2.12405 11.0041C2.17224 10.8822 2.26291 10.7819 2.37932 10.7216L1.88069 9.75411M1.88069 9.75411C2.03696 9.67729 2.20438 9.6256 2.37676 9.60095C2.54014 9.57372 2.73755 9.55415 2.96559 9.53117L3.07366 10.611C2.83115 10.6356 2.67628 10.6518 2.55716 10.6714C2.49554 10.6782 2.4353 10.6943 2.37847 10.719L1.88069 9.75411ZM3.0192 9.53117V10.6169M4.27173 9.32185C4.17413 9.37387 4.06706 9.4057 3.95689 9.41545C3.7297 9.45629 3.42082 9.48778 2.96559 9.53288L3.07366 10.6135C3.51017 10.5701 3.8701 10.5344 4.1492 10.4842C4.42967 10.4478 4.69744 10.3451 4.93033 10.1847L4.27173 9.32185ZM4.27173 9.32185C4.34781 9.26373 4.40717 9.18652 4.44378 9.09805C4.4804 9.00958 4.49296 8.91301 4.4802 8.81811M4.27173 9.32185L4.93288 10.1898C5.16129 10.0155 5.33953 9.78391 5.44951 9.5185C5.5595 9.25309 5.59733 8.96331 5.55915 8.67857L4.4802 8.81811M4.4802 8.81811C4.448 8.71213 4.39475 8.61373 4.32364 8.52881C4.19174 8.33991 3.99519 8.09825 3.70588 7.74427L4.54742 7.05674C4.82482 7.3971 5.05456 7.6745 5.21623 7.90765C5.38905 8.13218 5.50574 8.39473 5.5566 8.67346L4.4802 8.81811ZM4.1492 6.11479C4.17747 6.05971 4.2139 6.00922 4.25726 5.96503C4.3364 5.87483 4.44702 5.76337 4.61975 5.59148L3.85479 4.81971M6.11564 4.14835C6.23626 4.09617 6.3717 4.08952 6.49685 4.12963L6.82359 3.09833M6.82359 3.09833C6.98856 3.15449 7.14364 3.23633 7.28308 3.34084C7.41753 3.43614 7.57069 3.56208 7.74853 3.70758M6.82359 3.09833L6.49685 4.13218C6.55454 4.15485 6.60848 4.18612 6.65682 4.22493C6.75467 4.2947 6.87635 4.39511 7.0644 4.54827L7.74853 3.70758M7.74853 3.70758C8.10165 3.99689 8.34246 4.1926 8.53221 4.32449C8.61715 4.39558 8.71555 4.44883 8.82152 4.48105M7.74853 3.70758L7.061 4.54657C7.40136 4.82397 7.6796 5.05712 7.9119 5.21538C8.13643 5.38819 8.39899 5.50489 8.67772 5.55575L8.82152 4.48105M8.82152 4.48105C8.91641 4.49381 9.01299 4.48125 9.10145 4.44463C9.18992 4.40802 9.26713 4.34866 9.32525 4.27258L10.1906 4.93118M8.82152 4.48105L8.67687 5.5566C8.96194 5.59534 9.25219 5.55788 9.51808 5.44802C9.78398 5.33817 10.016 5.15984 10.1906 4.93118M10.1906 4.93118L9.32611 4.27258C9.3781 4.17498 9.40994 4.06791 9.41971 3.95775C9.46055 3.73311 9.49203 3.42168 9.53713 2.96729L10.6195 3.07536C10.5752 3.51102 10.5403 3.87095 10.4901 4.15005C10.4538 4.43053 10.3511 4.69831 10.1906 4.93118ZM11.7146 1C11.4857 1 11.2891 1 11.119 1.01106C10.9444 1.01824 10.7721 1.05299 10.6084 1.11402L11.0075 2.12405C11.0663 2.10501 11.1277 2.09497 11.1896 2.09426C11.3096 2.08661 11.4661 2.08575 11.7095 2.08575L11.7146 1ZM11.7146 1H13.0863L13.0837 2.08575M11.7146 1V2.08575H13.0837M16.2006 12.4021C16.1999 13.4091 15.7996 14.3746 15.0875 15.0867C14.3755 15.7987 13.41 16.199 12.403 16.1997M16.2006 12.4021H17.2863M16.2006 12.4021C16.2009 11.9031 16.1029 11.4089 15.9123 10.9477C15.7216 10.4865 15.442 10.0674 15.0893 9.71427C14.7367 9.36116 14.318 9.08096 13.857 8.88968C13.3961 8.69839 12.902 8.59977 12.403 8.59943M12.403 16.1997V17.2855M12.403 16.1997C11.9039 16.2001 11.4097 16.1021 10.9485 15.9114C10.4873 15.7208 10.0682 15.4411 9.71512 15.0885C9.36201 14.7358 9.08181 14.3171 8.89053 13.8562C8.69924 13.3953 8.60062 12.9012 8.60028 12.4021M12.403 17.2855C13.6979 17.2848 14.9396 16.7701 15.8553 15.8544C16.7709 14.9388 17.2856 13.6971 17.2863 12.4021M12.403 17.2855C11.7614 17.2858 11.1259 17.1598 10.533 16.9145C9.94012 16.6693 9.40131 16.3097 8.94738 15.8562C8.49345 15.4028 8.13327 14.8643 7.88742 14.2717C7.64157 13.679 7.51486 13.0438 7.51453 12.4021M17.2863 12.4021C17.2867 11.7605 17.1606 11.1251 16.9154 10.5322C16.6702 9.93927 16.3105 9.40046 15.8571 8.94653C15.4036 8.49259 14.8652 8.13242 14.2725 7.88657C13.6799 7.64072 13.0446 7.51401 12.403 7.51368M12.403 8.59943V7.51368M12.403 8.59943C11.9035 8.5991 11.4089 8.69723 10.9474 8.88821C10.4858 9.0792 10.0665 9.35929 9.71332 9.71247C9.36014 10.0656 9.08005 10.485 8.88906 10.9465C8.69808 11.408 8.59995 11.9027 8.60028 12.4021M12.403 7.51368C11.7609 7.51334 11.1251 7.63956 10.5319 7.88511C9.93861 8.13065 9.39958 8.49072 8.94557 8.94472C8.49157 9.39872 8.13151 9.93776 7.88596 10.531C7.64041 11.1242 7.51419 11.7601 7.51453 12.4021M8.60028 12.4021H7.51453M19.9786 3.85564C19.8169 3.69311 19.6765 3.55272 19.5531 3.44465C19.4248 3.32686 19.2786 3.23009 19.12 3.15789L18.6844 4.14835C18.7395 4.17658 18.79 4.21302 18.8341 4.25641C18.9252 4.33555 19.0358 4.44617 19.2077 4.61805L19.9786 3.85564ZM20.9486 4.82567L19.976 3.85394L19.2102 4.61975L20.1802 5.58978L20.9486 4.82567ZM23.7957 11.7197C23.7957 11.4908 23.7957 11.2942 23.7847 11.1241C23.7776 10.9495 23.7428 10.7772 23.6817 10.6135L22.6725 11.0126C22.6915 11.0715 22.7016 11.1328 22.7023 11.1947C22.71 11.3147 22.7108 11.4712 22.7108 11.7146L23.7957 11.7197ZM20.5291 15.4739C20.6267 15.4219 20.7338 15.3901 20.844 15.3803C21.0711 15.3395 21.38 15.308 21.8344 15.2629L21.7263 14.1822C21.2898 14.2256 20.9307 14.2614 20.6517 14.3116C20.3712 14.3479 20.1034 14.4505 19.8705 14.6111L20.5291 15.4739ZM20.3164 15.9759C20.3035 15.8809 20.316 15.7842 20.3526 15.6955C20.3892 15.6069 20.4486 15.5295 20.5249 15.4713L19.8663 14.6077C19.6377 14.782 19.4594 15.0138 19.3494 15.2793C19.2394 15.5449 19.2017 15.8348 19.24 16.1197L20.3164 15.9759ZM11.7095 23.7949H13.0837V22.7134H11.7146L11.7095 23.7949ZM8.82918 20.3155C8.92407 20.3028 9.02064 20.3153 9.10911 20.352C9.19758 20.3886 9.27479 20.4479 9.33291 20.524L10.1957 19.8654C10.0214 19.6369 9.78965 19.4586 9.52408 19.3486C9.25851 19.2386 8.96856 19.2008 8.68367 19.2391L8.82918 20.3155ZM3.09918 6.82615C3.15534 6.99112 3.23718 7.14619 3.34169 7.28564C3.43784 7.42008 3.56378 7.57324 3.70843 7.75108L4.54827 7.06355C4.39341 6.87465 4.293 6.75382 4.22493 6.65511C4.18612 6.60678 4.15485 6.55284 4.13218 6.49514L3.09918 6.82615Z" stroke="#666666" stroke-width="0.4"/>
</svg>
