<svg width="34" height="39" viewBox="0 0 34 39" fill="none" xmlns="http://www.w3.org/2000/svg">
<path d="M1.63603 14.3873V23.4494C1.63603 30.2843 1.63603 33.702 3.7594 35.8253C5.88278 37.9487 9.30029 37.9487 16.1353 37.9487H17.9477C24.7827 37.9487 28.2004 37.9487 30.3236 35.8253C32.447 33.702 32.447 30.2843 32.447 23.4494V16.1997C32.447 9.36469 32.447 5.94719 30.3236 3.82381C28.2004 1.70044 24.7827 1.70044 17.9477 1.70044H17.0415" fill="#F3E6FB"/>
<path d="M1.63603 14.3873V23.4494C1.63603 30.2843 1.63603 33.702 3.7594 35.8253C5.88278 37.9487 9.30029 37.9487 16.1353 37.9487H17.9477C24.7827 37.9487 28.2004 37.9487 30.3236 35.8253C32.447 33.702 32.447 30.2843 32.447 23.4494V16.1997C32.447 9.36469 32.447 5.94719 30.3236 3.82381C28.2004 1.70044 24.7827 1.70044 17.9477 1.70044H17.0415" stroke="#A56DD7" stroke-width="1.5" stroke-linecap="round" stroke-linejoin="round"/>
<path d="M19.7601 28.8866H27.0098H19.7601Z" fill="#F3E6FB"/>
<path d="M19.7601 28.8866H27.0098" stroke="#A56DD7" stroke-width="1.5" stroke-linecap="round" stroke-linejoin="round"/>
<path d="M19.7601 10.7625H27.0098H19.7601Z" fill="#F3E6FB"/>
<path d="M19.7601 10.7625H27.0098" stroke="#A56DD7" stroke-width="1.5" stroke-linecap="round" stroke-linejoin="round"/>
<path d="M19.7601 19.8246H27.0098H19.7601Z" fill="#F3E6FB"/>
<path d="M19.7601 19.8246H27.0098" stroke="#A56DD7" stroke-width="1.5" stroke-linecap="round" stroke-linejoin="round"/>
<path d="M7.07327 27.9804C7.07327 27.9804 8.82692 28.4646 9.79188 30.699C9.79188 30.699 11.6043 25.2618 15.2291 23.4493" fill="#F3E6FB"/>
<path d="M7.07327 27.9804C7.07327 27.9804 8.82692 28.4646 9.79188 30.699C9.79188 30.699 11.6043 25.2618 15.2291 23.4493" stroke="#A56DD7" stroke-width="1.5" stroke-linecap="round" stroke-linejoin="round"/>
<path d="M13.4167 7.13767H1.63603H13.4167ZM13.4167 7.13767C13.4167 5.61476 9.19981 2.76947 8.1305 1.70044L13.4167 7.13767ZM13.4167 7.13767C13.4167 8.66059 9.19979 11.5059 8.1305 12.5749L13.4167 7.13767Z" fill="#F3E6FB"/>
<path d="M13.4167 7.13767H1.63603M13.4167 7.13767C13.4167 5.61476 9.19981 2.76947 8.1305 1.70044M13.4167 7.13767C13.4167 8.66059 9.19979 11.5059 8.1305 12.5749" stroke="#A56DD7" stroke-width="1.5" stroke-linecap="round" stroke-linejoin="round"/>
</svg>
