<svg width="20" height="14" viewBox="0 0 20 14" fill="none" xmlns="http://www.w3.org/2000/svg">
<path d="M18.9265 8.65721C18.9265 11.0017 17.0283 12.9058 14.6779 12.9058H5.17508C2.83062 12.9058 0.926483 11.0017 0.926483 8.65721C0.926483 6.31275 2.83062 4.40862 5.17508 4.40862C5.31789 4.40862 5.46664 4.41457 5.6035 4.43242C6.01408 2.52234 7.7159 1.09424 9.75094 1.09424C11.786 1.09424 13.5116 2.54614 13.9103 4.48597C14.1543 4.43242 14.4101 4.40862 14.6719 4.40862C17.0224 4.40862 18.9205 6.3068 18.9205 8.65721H18.9265Z" fill="#41B0D5" stroke="#2291B9" stroke-width="1.3" stroke-linecap="round" stroke-linejoin="round"/>
<path d="M6.82932 8.96051C7.23394 10.1684 8.37642 11.0491 9.72122 11.0491C11.185 11.0491 12.4049 10.0197 12.6964 8.64514" stroke="white" stroke-linecap="round" stroke-linejoin="round"/>
<path d="M6.87094 6.9257C7.29937 5.76537 8.41805 4.94421 9.72714 4.94421C10.9589 4.94421 12.018 5.67016 12.5 6.71744" stroke="white" stroke-linecap="round" stroke-linejoin="round"/>
<path d="M6.82333 10.9955V8.96045H8.62036" stroke="white" stroke-linecap="round" stroke-linejoin="round"/>
<path d="M12.5298 4.68213V6.71717H10.7328" stroke="white" stroke-linecap="round" stroke-linejoin="round"/>
</svg>
