<svg width="25" height="25" viewBox="0 0 25 25" fill="none" xmlns="http://www.w3.org/2000/svg">
<path d="M17.9268 8.15044C17.9416 7.98575 17.9492 7.81895 17.9492 7.65039C17.9492 4.61282 15.4868 2.15039 12.4492 2.15039C9.57246 2.15039 7.21155 4.35901 6.96964 7.17309M17.9268 8.15044C17.8442 9.06716 17.5366 9.91901 17.0597 10.6504M17.9268 8.15044C20.4167 8.1383 22.4492 10.1576 22.4492 12.6504C22.4492 14.0538 21.4492 15.6504 20.4492 16.1504M6.96964 7.17309C4.4332 7.41446 2.44922 9.55073 2.44922 12.1504C2.44922 13.7862 3.23477 15.2309 4.44922 16.1504M6.96964 7.17309C7.12748 7.15807 7.28745 7.15039 7.44922 7.15039C8.57504 7.15039 9.61396 7.52248 10.4497 8.15039" stroke="#00243E" stroke-width="1.5" stroke-linecap="round" stroke-linejoin="round"/>
<path d="M12.3418 11.0598C15.6174 11.0601 18.2725 13.7158 18.2725 16.9915C18.2722 20.2669 15.6172 22.9219 12.3418 22.9221C9.06614 22.9221 6.41042 20.2671 6.41016 16.9915C6.41016 13.7156 9.06598 11.0598 12.3418 11.0598ZM11.0205 19.5959C11.2116 19.787 11.4742 19.8894 11.7441 19.8772C12.0142 19.865 12.2674 19.7392 12.4404 19.5315L11.7012 18.9163L11.0205 19.5959ZM15.5244 14.3274C15.1162 13.9874 14.5092 14.0423 14.1689 14.4504L11.6357 17.4895L10.457 16.3108C10.0812 15.935 9.47148 15.935 9.0957 16.3108C8.72005 16.6866 8.71997 17.2964 9.0957 17.6721L11.0205 19.5959L11.7012 18.9153L12.4404 19.5315L15.6475 15.6829C15.9876 15.2746 15.9327 14.6676 15.5244 14.3274Z" fill="#56BD7F"/>
</svg>
