<svg width="57" height="48" viewBox="0 0 57 48" fill="none" xmlns="http://www.w3.org/2000/svg">
<g clip-path="url(#clip0_5047_14463)">
<path d="M28.4003 7.74977L8.18034 41.3998C6.44034 44.2998 8.53034 47.9998 11.9103 47.9998H52.3503C55.7403 47.9998 57.8303 44.3098 56.0803 41.3998L35.8603 7.74977C34.1703 4.92977 30.0903 4.92977 28.4003 7.74977Z" fill="#99B6FF"/>
<path d="M24.3397 0.669816C24.3397 0.669816 22.3497 0.899816 18.5997 8.48982L1.03969 39.1698C1.03969 39.1698 0.609686 43.0498 3.92969 43.5098H46.4797C46.4797 43.5098 49.3697 43.2198 49.1797 39.3598L27.3197 1.27982C27.3197 1.27982 26.3897 0.139816 24.3397 0.669816Z" fill="white"/>
<path d="M24.7601 15.5601H25.3601C25.5901 15.5601 25.7801 15.7501 25.7801 15.9801C25.7601 20.7601 25.5001 25.5401 25.4801 30.3501C25.4801 30.5801 25.2901 30.7701 25.0601 30.7701C24.8301 30.7701 24.6401 30.5801 24.6401 30.3501C24.6201 25.5801 24.3501 20.8001 24.3301 15.9801C24.3301 15.7501 24.5201 15.5601 24.7501 15.5601H24.7601Z" fill="black"/>
<path d="M25.0701 34.0298C24.6701 34.0298 24.3401 33.7098 24.3401 33.3198C24.3401 32.9298 24.6701 32.5898 25.0601 32.5898C25.4501 32.5898 25.7701 32.9098 25.7801 33.2998C25.7801 33.6998 25.4701 34.0298 25.0701 34.0298Z" fill="black"/>
<path d="M25.0503 43.97C19.1203 43.97 13.1903 43.97 7.27031 43.97C6.23031 43.97 5.20031 43.98 4.16031 43.97C3.41031 43.97 2.69031 43.8 2.05031 43.4C1.22031 42.89 0.740314 42.11 0.470314 41.19C0.170314 40.2 0.280314 39.23 0.780314 38.33C1.67031 36.75 2.58031 35.19 3.48031 33.63C6.22031 28.87 8.97031 24.1 11.7103 19.34C14.5003 14.49 17.3003 9.63998 20.0903 4.78998C20.6003 3.90998 21.1103 3.01998 21.6203 2.13998C21.9303 1.60998 22.3003 1.11998 22.7903 0.739981C23.6003 0.0999807 24.5303 -0.0800193 25.5303 0.0199807C26.8103 0.149981 27.7403 0.819981 28.3703 1.89998C29.5703 3.94998 30.7403 5.99998 31.9203 8.05998C33.5503 10.88 35.1703 13.7 36.7903 16.53C36.9103 16.75 36.9903 16.99 37.0803 17.22C37.1503 17.4 37.0803 17.55 36.9203 17.66C36.7603 17.78 36.6003 17.85 36.4003 17.74C36.1903 17.62 36.0603 17.45 35.9403 17.25C35.5103 16.52 35.0903 15.78 34.6703 15.05C32.3003 10.93 29.9303 6.81998 27.5603 2.69998C27.2503 2.15998 26.8603 1.68998 26.2903 1.38998C25.2403 0.839981 23.6703 0.979981 22.8403 2.28998C22.3503 3.05998 21.9003 3.85998 21.4403 4.64998C17.9503 10.71 14.4503 16.77 10.9603 22.83C8.06031 27.85 5.17031 32.88 2.28031 37.9C2.02031 38.35 1.76031 38.8 1.58031 39.28C0.910314 41.03 2.24031 42.54 3.44031 42.77C3.72031 42.82 4.02031 42.85 4.31031 42.85C18.1403 42.85 31.9703 42.85 45.8003 42.85C46.5203 42.85 47.1903 42.7 47.7603 42.23C48.6703 41.48 48.9903 40.23 48.5003 39.14C48.2203 38.52 47.8703 37.93 47.5403 37.35C45.0903 33.09 42.6403 28.84 40.1903 24.58C40.0803 24.39 40.0003 24.18 39.9503 23.97C39.8903 23.74 40.0103 23.56 40.2103 23.46C40.4003 23.36 40.6203 23.38 40.7803 23.54C40.9003 23.67 41.0103 23.81 41.1003 23.96C42.3403 26.1 43.5703 28.23 44.8003 30.37C46.2503 32.88 47.7003 35.4 49.1503 37.91C49.4103 38.37 49.6503 38.84 49.7703 39.36C50.2703 41.61 48.6803 43.42 47.1603 43.79C46.8103 43.87 46.4503 43.93 46.1003 43.93C43.4603 43.95 40.8203 43.95 38.1903 43.96C36.9503 43.96 35.7103 43.96 34.4803 43.96C33.4203 43.96 32.3703 43.96 31.3103 43.96C29.6803 43.96 28.0403 43.96 26.4103 43.96C25.9703 43.96 25.5203 43.96 25.0803 43.96C25.0803 43.96 25.0803 43.96 25.0803 43.95L25.0503 43.97Z" fill="black"/>
<path d="M38.45 21.0899C38.6985 21.0899 38.9 20.8885 38.9 20.6399C38.9 20.3914 38.6985 20.1899 38.45 20.1899C38.2015 20.1899 38 20.3914 38 20.6399C38 20.8885 38.2015 21.0899 38.45 21.0899Z" fill="black"/>
</g>
<defs>
<clipPath id="clip0_5047_14463">
<rect width="56.42" height="48" fill="white" transform="translate(0.290039)"/>
</clipPath>
</defs>
</svg>
