<svg width="25" height="17" viewBox="0 0 25 17" fill="none" xmlns="http://www.w3.org/2000/svg">
<path d="M23.9999 10.6169C23.9999 13.6126 21.5744 16.0457 18.5711 16.0457H6.42864C3.43294 16.0457 0.999878 13.6126 0.999878 10.6169C0.999878 7.62122 3.43294 5.18817 6.42864 5.18817C6.61112 5.18817 6.80119 5.19577 6.97607 5.21858C7.5007 2.77792 9.67525 0.953125 12.2756 0.953125C14.8759 0.953125 17.0809 2.80833 17.5903 5.28701C17.902 5.21858 18.229 5.18817 18.5635 5.18817C21.5668 5.18817 23.9923 7.61362 23.9923 10.6169H23.9999Z" stroke="#D1D1D1" stroke-width="1.5" stroke-linecap="round" stroke-linejoin="round"/>
<path d="M15.9121 7.83984C16.2178 8.27807 16.3971 8.81105 16.3971 9.38586C16.3971 10.8801 15.1857 12.0914 13.6914 12.0914H10.0193L11.1789 13.0576" stroke="#666666" stroke-width="1.5" stroke-linecap="round" stroke-linejoin="round"/>
<path d="M9.15148 10.9307C8.84578 10.4925 8.6665 9.95948 8.6665 9.38467C8.6665 7.89045 9.8779 6.67915 11.3722 6.67915H15.0443L13.8847 5.71289" stroke="#666666" stroke-width="1.5" stroke-linecap="round" stroke-linejoin="round"/>
</svg>
