<svg width="25" height="25" viewBox="0 0 25 25" fill="none" xmlns="http://www.w3.org/2000/svg">
<path d="M17.9268 8.15044C17.9416 7.98575 17.9492 7.81895 17.9492 7.65039C17.9492 4.61282 15.4868 2.15039 12.4492 2.15039C9.57246 2.15039 7.21155 4.35901 6.96964 7.17309M17.9268 8.15044C17.8442 9.06716 17.5366 9.91901 17.0597 10.6504M17.9268 8.15044C20.4167 8.1383 22.4492 10.1576 22.4492 12.6504C22.4492 14.0538 21.4492 15.6504 20.4492 16.1504M6.96964 7.17309C4.4332 7.41446 2.44922 9.55073 2.44922 12.1504C2.44922 13.7862 3.23477 15.2309 4.44922 16.1504M6.96964 7.17309C7.12748 7.15807 7.28745 7.15039 7.44922 7.15039C8.57504 7.15039 9.61396 7.52248 10.4497 8.15039" stroke="#00243E" stroke-width="1.5" stroke-linecap="round" stroke-linejoin="round"/>
<path d="M12.4482 11.4575C15.5921 11.4575 18.1415 14.0061 18.1416 17.1499C18.1416 20.2939 15.5922 22.8433 12.4482 22.8433C9.3044 22.8431 6.75586 20.2938 6.75586 17.1499C6.75599 14.0061 9.30448 11.4577 12.4482 11.4575ZM15.0029 17.0591C14.7765 17.0959 14.5935 17.2575 14.5264 17.4712L14.5049 17.5659C14.3642 18.5497 13.4901 19.3198 12.4521 19.3198C11.7574 19.3197 11.1433 18.9734 10.7725 18.4419L10.2803 18.7856L9.78809 19.1284C10.3737 19.9678 11.3486 20.5199 12.4521 20.52C13.5628 20.52 14.5593 19.9593 15.1533 19.1021L15.3184 19.4321L15.3838 19.5347C15.5561 19.754 15.8648 19.8293 16.124 19.6997C16.3832 19.5698 16.507 19.2778 16.4346 19.0083L16.3916 18.895L15.6357 17.3823C15.5183 17.1479 15.2618 17.0171 15.0029 17.0591ZM10.7725 18.4419C10.5829 18.1704 10.2092 18.1041 9.9375 18.2935C9.66586 18.483 9.59879 18.8567 9.78809 19.1284L10.7725 18.4419ZM12.4521 14.0269C11.342 14.027 10.344 14.5852 9.75 15.4419L9.58691 15.1147L9.52148 15.0112C9.34911 14.792 9.04044 14.7166 8.78125 14.8462C8.52213 14.9759 8.39752 15.2681 8.46973 15.5376L8.5127 15.6509L9.26953 17.1636C9.38696 17.3981 9.64346 17.5288 9.90234 17.4868C10.1612 17.4447 10.3632 17.2396 10.4004 16.98L10.4346 16.7983C10.6502 15.9032 11.4792 15.2263 12.4521 15.2261C13.147 15.2261 13.762 15.5725 14.1328 16.104C14.3224 16.3756 14.696 16.4419 14.9678 16.2524C15.2394 16.0629 15.3065 15.6892 15.1172 15.4175C14.5316 14.578 13.5559 14.0269 12.4521 14.0269Z" fill="#F49055"/>
</svg>
