<svg width="20" height="21" viewBox="0 0 20 21" fill="none" xmlns="http://www.w3.org/2000/svg">
<path d="M19.0885 9.81006C18.6263 9.81006 18.2451 10.1456 18.2451 10.6106C18.2045 13.6388 16.4528 16.376 13.7724 17.8436C9.73368 20.0551 5.01368 18.07 3.20516 15.3773L5.75574 15.907C6.17746 15.9919 6.63973 15.7372 6.72488 15.2763C6.81004 14.8558 6.55457 14.3949 6.0923 14.31L1.07629 13.2588C0.784334 13.19 0.017943 13.4003 0.107153 14.1846L0.73973 19.2304C0.78028 19.6508 1.1209 19.946 1.54262 19.946C2.17114 19.946 2.4266 19.4851 2.38605 19.0201L2.09004 16.5579C6.18962 21.4621 11.3922 20.7789 14.5307 19.3597C17.7788 17.6334 19.8468 14.314 19.8874 10.651C19.8914 10.1901 19.5508 9.81006 19.0885 9.81006Z" fill="#42B0D5"/>
<path d="M0.907379 11.1878C1.36965 11.1878 1.75081 10.8522 1.75081 10.3873C1.79136 7.35902 3.54312 4.62188 6.22346 3.15425C10.2622 0.942703 14.9822 2.92784 16.7907 5.62051L14.2402 5.09087C13.8184 5.00597 13.3562 5.26068 13.271 5.72159C13.1859 6.14206 13.4413 6.60297 13.9036 6.68788L18.9237 7.73907C19.2156 7.8078 19.982 7.59756 19.8928 6.81321L19.2602 1.76748C19.2197 1.34701 18.8791 1.05187 18.4573 1.05187C17.8288 1.05187 17.5734 1.51277 17.6139 1.97772L17.9059 4.43994C13.8063 -0.460235 8.60373 0.218997 5.46518 1.64215C2.21714 3.36449 0.149097 6.68788 0.104492 10.3468C0.104492 10.8118 0.445111 11.1878 0.907379 11.1878Z" fill="#42B0D5"/>
</svg>
