<svg width="47" height="47" viewBox="0 0 47 47" fill="none" xmlns="http://www.w3.org/2000/svg">
<path d="M24.5498 12.5083C24.6364 12.5012 24.7247 12.5001 24.8115 12.5073C24.9557 12.5194 25.1194 12.5534 25.2744 12.6294L25.4258 12.7202L25.458 12.7437L25.4863 12.772L34.2168 21.5122L34.2266 21.522C34.5401 21.8544 34.5318 22.2658 34.4297 22.5854C34.3322 22.8905 34.1336 23.1819 33.9336 23.4253C33.5272 23.9197 32.9866 24.3676 32.7217 24.5649C32.495 24.7337 32.2758 24.8533 32.0635 24.9517L31.4463 25.2114C29.7019 25.948 27.818 26.4994 26.0811 27.1021L25.79 27.2036L25.5684 26.9878L20.0508 21.6167L19.9033 21.4741L19.8994 21.269L19.8906 20.8286L19.8887 20.7095L19.9395 20.603C20.3356 19.7729 20.6341 18.8224 20.9443 17.8335C21.2497 16.8603 21.5676 15.8475 21.998 14.9595C22.0719 14.8071 22.2281 14.591 22.3877 14.3862C22.559 14.1664 22.7706 13.9131 22.9854 13.6704C23.1994 13.4285 23.4229 13.1905 23.6182 13.0034C23.7152 12.9104 23.8115 12.824 23.9004 12.7544C23.9726 12.6979 24.0948 12.6072 24.2334 12.5649L24.5205 12.478L24.5498 12.5083Z" fill="#204259" stroke="#204259" stroke-miterlimit="10"/>
<path d="M29.3555 7.60266L30.1563 1" stroke="#204259" stroke-width="2.5"/>
<path d="M36.385 10.6821L41.0326 5.92429" stroke="#204259" stroke-width="2.5"/>
<path d="M39.9866 16.4986L46.6376 16.5137" stroke="#204259" stroke-width="2.5"/>
<path d="M19.001 22.6865L24.3076 27.9922L24.6602 28.3457L24.3076 28.6992L16.1299 36.8994L16.0977 36.9316L16.0605 36.957C15.5545 37.3073 15.0203 37.5079 14.4609 37.498C13.9704 37.4894 13.5073 37.3196 13.0713 37.0244L12.8857 36.8906C12.6079 36.6762 11.9688 36.0696 11.3789 35.4795C11.0789 35.1794 10.7827 34.8741 10.5391 34.6123C10.3045 34.3602 10.0932 34.1219 9.98633 33.9658L9.9873 33.9648C9.30067 32.9641 9.35587 31.7852 10.1094 30.8467L10.127 30.8252L10.1465 30.8057L18.2949 22.6855L18.6484 22.334L19.001 22.6865ZM18.0732 28.9092L18.083 28.9199L19.1914 27.8096L19.1816 27.7998L18.0732 28.9092Z" fill="#204259" stroke="#204259" stroke-miterlimit="10"/>
<path d="M18.7803 21.2656L25.6153 28.2581" stroke="white" stroke-width="2"/>
<path d="M19.0859 27.7876L17.1758 29.6978" stroke="white" stroke-width="2"/>
</svg>
