<svg width="45" height="45" viewBox="0 0 45 45" fill="none" xmlns="http://www.w3.org/2000/svg">
<path d="M24.7549 10.0054C24.7875 10.0065 24.8201 10.0056 24.8525 10.0083C25.0715 10.0266 25.3467 10.087 25.6074 10.2427L25.7188 10.3149L25.7832 10.3618L25.8408 10.4194L34.5703 19.1587L34.5801 19.1685L34.5898 19.1792C35.0711 19.6895 35.0416 20.314 34.9062 20.7378C34.7802 21.1324 34.535 21.4824 34.3203 21.7437C33.9888 22.147 33.5818 22.5148 33.2803 22.7622L33.0205 22.9663C32.7626 23.1583 32.5078 23.2963 32.2725 23.4058L31.6406 23.6724C29.877 24.4171 27.9488 24.9835 26.2451 25.5747L25.6621 25.7769L25.2197 25.3462L19.7021 19.9751L19.4082 19.689L19.3994 19.2788L19.3906 18.8384L19.3857 18.6011L19.4883 18.3872C19.8662 17.5951 20.1542 16.6806 20.4668 15.6841C20.7697 14.7185 21.0982 13.6681 21.5479 12.7407L21.6377 12.5776C21.7409 12.4089 21.8777 12.228 21.9941 12.0786C22.1727 11.8495 22.3908 11.5885 22.6113 11.3394C22.8306 11.0916 23.0638 10.842 23.2725 10.6421C23.3755 10.5434 23.4849 10.4446 23.5918 10.3608C23.6655 10.3032 23.852 10.1583 24.0879 10.0864L24.6621 9.91162L24.7549 10.0054Z" stroke="#204259" stroke-width="2" stroke-miterlimit="10"/>
<path d="M19.3545 20.333L24.6611 25.6387L25.3672 26.3447L24.6621 27.0518L16.4834 35.252L16.4189 35.3164L16.3447 35.3682C15.7771 35.761 15.1425 36.0102 14.4521 35.998C13.8457 35.9874 13.2905 35.7766 12.791 35.4385L12.5801 35.2861C12.2721 35.0484 11.6102 34.418 11.0254 33.833C10.7226 33.5301 10.4218 33.2206 10.1729 32.9531C9.94211 32.7052 9.70557 32.4398 9.57422 32.248L9.5752 32.2471C8.76229 31.062 8.83023 29.6421 9.71973 28.5342L9.75391 28.4912L9.79297 28.4521L17.9414 20.332L18.6494 19.627L19.3545 20.333Z" stroke="#204259" stroke-width="2" stroke-miterlimit="10"/>
</svg>
