<svg width="30" height="30" viewBox="0 0 30 30" fill="none" xmlns="http://www.w3.org/2000/svg">
<path d="M20.6826 11.8939H19.4038V8.5679C19.4038 5.88758 17.2233 3.70703 14.543 3.70703C11.8626 3.70703 9.68209 5.88756 9.68209 8.5679C9.68209 8.99192 10.0255 9.33535 10.4495 9.33535C10.8736 9.33535 11.217 8.99192 11.217 8.5679C11.217 6.73465 12.7087 5.24194 14.543 5.24194C16.3762 5.24194 17.8689 6.73367 17.8689 8.5679V11.8939H8.40333C6.85116 11.8939 5.58966 13.1563 5.58966 14.7075V22.8934C5.58966 24.4455 6.85212 25.707 8.40333 25.707H20.6826C22.2348 25.707 23.4963 24.4446 23.4963 22.8934V14.7075C23.4963 13.1554 22.2338 11.8939 20.6826 11.8939ZM21.9613 22.8943C21.9613 23.5994 21.3877 24.1731 20.6826 24.1731H8.40333C7.69823 24.1731 7.12457 23.5994 7.12457 22.8943V14.7085C7.12457 14.0034 7.69823 13.4297 8.40333 13.4297H20.6826C21.3877 13.4297 21.9613 14.0034 21.9613 14.7085V22.8943Z" fill="#42B0D5"/>
</svg>
