<svg width="20" height="16" viewBox="0 0 20 16" fill="none" xmlns="http://www.w3.org/2000/svg">
<path d="M6.01128 13.9455C5.27577 13.9564 4.54394 13.9585 3.82528 13.752C1.90306 13.2002 0.459416 11.525 0.234604 9.56577C-0.066023 6.94552 1.61612 4.61548 4.24121 4.08654C4.65767 4.0028 4.80087 3.83637 4.94671 3.4697C5.67801 1.6348 7.0511 0.54467 9.03492 0.27734C11.4894 -0.0534429 13.8144 1.47409 14.4978 3.82545C14.5357 3.95651 14.5841 4.00748 14.73 4.02465C16.8544 4.27585 18.6708 6.05979 19.0051 8.14903C19.4321 10.8171 17.661 13.3115 15.0543 13.8389C14.7542 13.8997 14.4441 13.9325 14.1377 13.9403C13.5012 13.9559 12.8636 13.946 12.2265 13.945C11.8269 13.9445 11.55 13.686 11.5516 13.3188C11.5531 12.9532 11.8301 12.7014 12.2339 12.7004C12.8383 12.6994 13.4427 12.7035 14.0466 12.6994C15.8556 12.6874 17.3493 11.5109 17.7631 9.77433C18.2459 7.74907 16.8449 5.64371 14.779 5.29525C14.5599 5.25832 14.3367 5.23388 14.115 5.22399C13.6917 5.20579 13.4443 5.00711 13.3743 4.59051C13.2758 4.00384 13.0452 3.47438 12.6898 2.99641C11.8059 1.80851 10.2527 1.22548 8.82011 1.58435C7.24748 1.97858 6.27873 2.97665 5.95231 4.55099C5.85175 5.0352 5.55955 5.22139 5.14941 5.22919C2.96605 5.27132 1.27495 7.14055 1.46291 9.2792C1.62928 11.1718 3.21876 12.6515 5.14572 12.6952C5.79541 12.7098 6.44616 12.6978 7.09638 12.6999C7.49283 12.7009 7.76976 12.9636 7.76608 13.3318C7.76239 13.687 7.4844 13.9429 7.0969 13.9445C6.73573 13.946 6.37456 13.9445 6.01338 13.9445L6.01128 13.9455Z" fill="#42B0D5"/>
<path d="M9.02785 7.36337C8.94572 7.44034 8.89781 7.48299 8.85253 7.52772C8.23443 8.1378 7.6179 8.74891 6.99875 9.35742C6.71023 9.6414 6.33326 9.65648 6.06949 9.40215C5.80045 9.14314 5.81414 8.76191 6.10792 8.47066C7.12879 7.46011 8.15019 6.4506 9.17316 5.44265C9.48063 5.13943 9.83444 5.13839 10.1435 5.44265C11.167 6.45008 12.1884 7.46011 13.2087 8.47066C13.503 8.76243 13.5146 9.14418 13.2461 9.40267C12.9818 9.65648 12.6059 9.64036 12.3174 9.35638C11.703 8.75203 11.0906 8.14612 10.4789 7.53864C10.4288 7.48923 10.3946 7.42422 10.353 7.36649C10.3314 7.37741 10.3099 7.38833 10.2883 7.39926V7.60053C10.2883 10.1246 10.2883 12.6491 10.2877 15.1732C10.2877 15.4769 10.1214 15.7031 9.84286 15.7905C9.58856 15.8706 9.29478 15.7874 9.15158 15.5528C9.07523 15.428 9.03364 15.2626 9.03312 15.116C9.02627 12.6179 9.02838 10.1194 9.02838 7.62134C9.02838 7.5506 9.02838 7.48039 9.02838 7.36285L9.02785 7.36337Z" fill="#42B0D5"/>
</svg>
