<svg width="17" height="16" viewBox="0 0 17 16" fill="none" xmlns="http://www.w3.org/2000/svg">
<path d="M3.44758 6.29269C5.22608 3.14568 6.11533 1.57216 7.3356 1.16712C8.00686 0.944293 8.73 0.944293 9.40126 1.16712C10.6215 1.57216 11.5108 3.14568 13.2893 6.29269C15.0678 9.43967 15.957 11.0132 15.6903 12.2953C15.5435 13.0007 15.1819 13.6404 14.6574 14.123C13.7039 15 11.9255 15 8.36843 15C4.81143 15 3.03293 15 2.07945 14.123C1.5549 13.6404 1.19334 13.0007 1.04659 12.2953C0.779827 11.0132 1.66908 9.43967 3.44758 6.29269Z" stroke="#F73C3C" stroke-width="1.4" stroke-linecap="round" stroke-linejoin="round"/>
<path d="M8.36255 10.9473H8.37013" stroke="#F73C3C" stroke-width="1.4" stroke-linecap="round" stroke-linejoin="round"/>
<path d="M8.36841 8.73694V5.78955" stroke="#F73C3C" stroke-width="1.4" stroke-linecap="round" stroke-linejoin="round"/>
</svg>
