<svg width="6" height="6" viewBox="0 0 6 6" fill="none" xmlns="http://www.w3.org/2000/svg">
<path opacity="0.5" d="M5.58513 2.66656C5.58661 3.35065 5.31704 4.00746 4.83541 4.49328C4.35379 4.9791 3.69934 5.25435 3.01526 5.25881C2.67508 5.259 2.33819 5.19218 2.02383 5.06218C1.70946 4.93217 1.42378 4.74152 1.1831 4.50111C0.942418 4.2607 0.751448 3.97523 0.621088 3.66102C0.490728 3.3468 0.423532 3.00999 0.42334 2.6698C0.423149 2.32962 0.489964 1.99273 0.61997 1.67836C0.749976 1.364 0.940626 1.07832 1.18104 0.837641C1.42145 0.596959 1.70691 0.405986 2.02113 0.275626C2.33534 0.145266 2.67216 0.0780725 3.01235 0.0778809C3.69642 0.0813116 4.35126 0.355643 4.83352 0.840818C5.31578 1.32599 5.58616 1.98248 5.58546 2.66656" fill="#42B0D5"/>
</svg>
