<svg width="4" height="9" viewBox="0 0 4 9" fill="none" xmlns="http://www.w3.org/2000/svg">
<path opacity="0.6" d="M2.3419 0.388428C2.46444 0.398947 2.58253 0.43936 2.68582 0.506128C2.78911 0.572896 2.87445 0.66398 2.93435 0.771395C2.99478 0.874802 3.0225 0.994074 3.01388 1.11353C3.00526 1.23299 2.96069 1.34704 2.88603 1.4407C2.75373 1.61483 2.59419 1.76854 2.46091 1.9417C1.81133 2.77759 1.48104 3.81768 1.52936 4.87519C1.57768 5.9327 2.00144 6.93834 2.72454 7.71151C2.83547 7.82267 2.92292 7.955 2.98169 8.10064C3.02422 8.2361 3.01811 8.38217 2.96441 8.5136C2.91071 8.64504 2.8128 8.7536 2.68758 8.82053C2.55945 8.89078 2.41108 8.91491 2.26729 8.88888C2.1235 8.86285 1.99301 8.78823 1.89764 8.67752C1.10484 7.88284 0.57463 6.86429 0.37842 5.75905C0.195617 4.86047 0.235001 3.93085 0.49315 3.05095C0.751299 2.17105 1.2204 1.36749 1.8597 0.710107C2.00716 0.58466 2.16903 0.477218 2.3419 0.390048" fill="#42B0D5"/>
</svg>
