<svg width="4" height="9" viewBox="0 0 4 9" fill="none" xmlns="http://www.w3.org/2000/svg">
<path opacity="0.6" d="M3.73285 4.7246C3.7229 6.17449 3.15667 7.56522 2.15104 8.60973C2.03183 8.73517 1.88245 8.82794 1.71716 8.8792C1.59226 8.91047 1.46053 8.89958 1.34246 8.8482C1.2244 8.79682 1.12664 8.70785 1.0644 8.59513C0.999255 8.48487 0.968976 8.35748 0.977541 8.2297C0.986107 8.10192 1.03311 7.97972 1.11239 7.87913C1.25345 7.70046 1.41656 7.53865 1.55438 7.35705C2.17966 6.52575 2.4958 5.50258 2.44845 4.46345C2.40111 3.42431 1.99324 2.43413 1.29496 1.66312C1.24178 1.60476 1.18535 1.54898 1.13541 1.48802C1.02359 1.36505 0.964769 1.20294 0.971713 1.03687C0.978657 0.870802 1.0508 0.714171 1.1725 0.600965C1.2942 0.487758 1.45564 0.427109 1.62177 0.432179C1.78791 0.437248 1.94535 0.507627 2.05992 0.628043C2.59213 1.15432 3.012 1.78313 3.29411 2.47641C3.58486 3.19065 3.73356 3.95474 3.73188 4.72589" fill="#42B0D5"/>
</svg>
